<svg xmlns="http://www.w3.org/2000/svg" width="81" height="7"><path fill-rule="evenodd" opacity=".2" fill="#191919" d="M70.541 6.999l-5.007-5.162-5.007 5.162-5.007-5.162-5.007 5.162-5.006-5.162L40.5 6.999l-5.007-5.162-5.007 5.162-5.006-5.162-5.007 5.162-5.007-5.162-5.007 5.162-5.007-5.162L.891 6.539 0 5.619l5.452-5.62 5.007 5.161 5.007-5.161 5.007 5.161L25.48-.001l5.006 5.161 5.007-5.161L40.5 5.16l5.007-5.161 5.006 5.161L55.52-.001l5.007 5.161 5.007-5.161 5.007 5.161 5.006-5.161L81 5.619l-.892.92-4.561-4.702-5.006 5.162z"/></svg>