<svg id="Слой_3" data-name="Слой 3" xmlns="http://www.w3.org/2000/svg" xmlns:xlink="http://www.w3.org/1999/xlink" viewBox="0 0 344.37 327.97"><defs><style>.cls-1{fill:#1f212b}</style><linearGradient id="linear-gradient" x1="15.94" y1="101.2" x2="137.34" y2="100.53" gradientUnits="userSpaceOnUse"><stop offset="0" stop-color="#ff5556"/><stop offset="1" stop-color="#c2343e"/></linearGradient><linearGradient id="linear-gradient-2" x1="265.24" y1="228.26" x2="472.25" y2="228.26" xlink:href="#linear-gradient"/></defs><path class="cls-1" d="M152.11 416.42h-10.34v37.8h-13.86V366h13.86v37.8h10.33v-16.61c0-14.11 7.43-22.18 21-22.18s21 8.06 21 22.18v45.87c0 14.11-7.43 22.18-21 22.18s-21-8.06-21-22.18zM166 433.94c0 6.3 2.77 8.7 7.18 8.7s7.18-2.39 7.18-8.7V386.3c0-6.3-2.77-8.69-7.18-8.69S166 380 166 386.3zM202.76 403.82H228v12.6h-25.2zM277.6 421.34v11.72c0 14.11-7.06 22.18-20.67 22.18s-20.67-8.06-20.67-22.18v-45.87c0-14.11 7.06-22.18 20.67-22.18s20.67 8.06 20.67 22.18v8.57h-13.1v-9.46c0-6.3-2.77-8.69-7.18-8.69s-7.18 2.39-7.18 8.69v47.63c0 6.3 2.77 8.57 7.18 8.57s7.18-2.27 7.18-8.57v-12.6zM282 366h42.84v12.6h-14.48v75.6H296.5v-75.6H282zM372 387.82v11.47c0 14.11-6.8 21.8-20.67 21.8h-6.55v33.14H330.9V366h20.41c13.86 0 20.69 7.71 20.69 21.82zm-27.22-9.2v29.86h6.55c4.41 0 6.8-2 6.8-8.32v-13.22c0-6.3-2.39-8.32-6.8-8.32zM377.26 387.19c0-14.11 7.43-22.18 21-22.18s21 8.06 21 22.18v45.87c0 14.11-7.43 22.18-21 22.18s-21-8.06-21-22.18zm13.86 46.75c0 6.3 2.77 8.7 7.18 8.7s7.18-2.39 7.18-8.7V386.3c0-6.3-2.77-8.69-7.18-8.69s-7.18 2.39-7.18 8.69zM442.53 454.22h-14.24V366h12.35v55.82l5-19.41L457 366h15.25v88.21h-12.46V392.1l-5.67 21.67zm14.24-107.86c-.38 4.66-2.52 5.8-6.3 5.8s-5.54-1.13-5.92-5.8H436c.25 8.57 4.79 14 14.49 14s14.74-5.42 14.74-14z" transform="translate(-127.9 -127.26)"/><path fill="url(#linear-gradient)" d="M51.72 75.77V0L0 32.91V202h51.72v-75.76h118.04V75.77H51.72z"/><path d="M368.75 127.26c-57.16 0-103.51 45.22-103.51 101s46.34 101 103.51 101 103.5-45.22 103.5-101-46.34-101-103.5-101zm0 150.86c-28.22 0-51.09-22.32-51.09-49.85s22.87-49.85 51.09-49.85 51.09 22.32 51.09 49.85-22.84 49.84-51.09 49.84z" transform="translate(-127.9 -127.26)" fill="url(#linear-gradient-2)"/></svg>