<svg xmlns="http://www.w3.org/2000/svg" width="178" height="178" viewBox="0 0 178 178"><path d="M89 3c47.496 0 86 38.503 86 86 0 47.496-38.504 86-86 86S3 136.496 3 89C3 41.503 41.504 3 89 3z" fill="none" stroke="#fff" stroke-width="6"/><path d="M119.708 80.466l-.03.021-.001.001-25.969 17.979-.002-.003a2.983 2.983 0 0 1-3.369.031l-.001.001-.011-.007-.004-.003L76.9 89.539 63 97.716V110h55a3 3 0 1 1 0 6H60a3 3 0 0 1-3-3V65a3 3 0 1 1 6 0v25.755l12.479-7.341.006.01A2.968 2.968 0 0 1 77 83c.616 0 1.187.187 1.664.505v-.001l.011.007.004.003 13.289 8.859 24.324-16.84.002.003A2.984 2.984 0 0 1 118 75a3 3 0 0 1 3 3 2.994 2.994 0 0 1-1.294 2.464z" fill="#fff" fill-rule="evenodd"/></svg>