<svg xmlns="http://www.w3.org/2000/svg" width="19" height="13"><defs><filter id="a"><feFlood flood-color="#323232" flood-opacity="1" result="floodOut"/><feComposite operator="atop" in="floodOut" in2="SourceGraphic" result="compOut"/><feBlend in="compOut" in2="SourceGraphic"/></filter></defs><path fill-rule="evenodd" fill="#FFF" d="M12.95 5.832L18.735.256a.88.88 0 0 1 .265.63v11.227a.876.876 0 0 1-.24.602l-5.81-6.883zM.296.23A.886.886 0 0 1 .891 0h17.218c.23 0 .437.088.595.23L9.5 7.386.296.23zM.24 12.715a.876.876 0 0 1-.24-.602V.886a.88.88 0 0 1 .265-.63L6.05 5.832.24 12.715zM9.5 9.159l2.415-2.328 6.805 5.925a.89.89 0 0 1-.611.244H.891a.89.89 0 0 1-.611-.244l6.805-5.925L9.5 9.159z" filter="url(#a)"/></svg>