<svg xmlns="http://www.w3.org/2000/svg" width="21" height="18"><defs><filter id="a"><feFlood flood-color="#C8C8C8" flood-opacity="1" result="floodOut"/><feComposite operator="atop" in="floodOut" in2="SourceGraphic" result="compOut"/><feBlend in="compOut" in2="SourceGraphic"/></filter></defs><path fill-rule="evenodd" fill="#FFF" d="M13.851.876c1.618-.028 2.479.551 3.302 1.287.698-.059 1.606-.442 2.14-.708l.52-.28c-.305.811-.719 1.445-1.355 1.926-.142.107-.282.252-.459.32v.01c.907-.01 1.654-.411 2.365-.629v.01c-.373.582-.878 1.173-1.417 1.597l-.652.509c.012.942-.014 1.842-.194 2.634-1.043 4.606-3.808 7.733-8.184 9.072-1.572.481-4.111.679-5.912.24-.892-.218-1.699-.464-2.456-.789-.42-.18-.81-.376-1.182-.598L0 15.257c.406.012.881.122 1.335.05.411-.065.814-.048 1.193-.13.945-.204 1.784-.473 2.507-.888.35-.201.882-.438 1.131-.729a3.58 3.58 0 0 1-1.243-.219c-1.352-.469-2.138-1.33-2.65-2.625.409.044 1.589.149 1.865-.08-.516-.028-1.012-.321-1.366-.539C1.685 9.429.798 8.309.805 6.584l.428.2c.273.113.551.174.877.24.137.027.412.107.571.05H2.66c-.21-.241-.553-.401-.764-.659C1.198 5.563.545 4.253.958 2.692a4.74 4.74 0 0 1 .448-1.068.2.2 0 0 0 .021.01c.081.167.262.29.377.429.356.434.796.824 1.243 1.168 1.526 1.172 2.9 1.892 5.107 2.425a8.126 8.126 0 0 0 1.875.24c-.188-.537-.128-1.406.02-1.927.372-1.306 1.18-2.249 2.365-2.754.283-.121.597-.208.927-.279l.51-.06z" filter="url(#a)"/></svg>