<svg width="245" height="37" viewBox="0 0 245 37" fill="none" xmlns="http://www.w3.org/2000/svg"><path d="M84.85 22H88.63V3.1H84.85V10.66H75.94V3.1H72.16V22H75.94V14.44H84.85V22ZM106.167 8.5H102.657V9.121C101.604 8.473 100.362 8.095 99.0123 8.095C95.0703 8.095 91.8573 11.308 91.8573 15.25C91.8573 19.192 95.0703 22.405 99.0123 22.405C100.362 22.405 101.604 22.027 102.657 21.406V22H106.167V8.5ZM102.657 15.25C102.657 17.275 101.037 18.895 99.0123 18.895C96.9873 18.895 95.3673 17.275 95.3673 15.25C95.3673 13.225 96.9873 11.605 99.0123 11.605C101.037 11.605 102.657 13.225 102.657 15.25ZM118.578 22H122.088V8.5H118.578V13.495H113.448V8.5H109.938V22H113.448V17.005H118.578V22ZM125.054 15.25C125.054 19.192 128.267 22.405 132.209 22.405C136.151 22.405 139.364 19.192 139.364 15.25C139.364 11.308 136.151 8.095 132.209 8.095C128.267 8.095 125.054 11.308 125.054 15.25ZM128.564 15.25C128.564 13.225 130.184 11.605 132.209 11.605C134.234 11.605 135.854 13.225 135.854 15.25C135.854 17.275 134.234 18.895 132.209 18.895C130.184 18.895 128.564 17.275 128.564 15.25ZM140.993 22H145.34L148.148 18.193L150.956 22H155.303L150.308 15.25L155.303 8.5H150.956L148.148 12.307L145.34 8.5H140.993L145.961 15.25L140.993 22ZM171.242 8.5H167.732V9.121C166.679 8.473 165.437 8.095 164.087 8.095C160.145 8.095 156.932 11.308 156.932 15.25C156.932 19.192 160.145 22.405 164.087 22.405C165.437 22.405 166.679 22.027 167.732 21.406V22H171.242V8.5ZM167.732 15.25C167.732 17.275 166.112 18.895 164.087 18.895C162.062 18.895 160.442 17.275 160.442 15.25C160.442 13.225 162.062 11.605 164.087 11.605C166.112 11.605 167.732 13.225 167.732 15.25ZM173.932 12.01H178.252V22H181.762V12.01H186.082V8.5H173.932V12.01ZM202.276 8.5H198.766V9.121C197.713 8.473 196.471 8.095 195.121 8.095C191.179 8.095 187.966 11.308 187.966 15.25C187.966 19.192 191.179 22.405 195.121 22.405C196.471 22.405 197.713 22.027 198.766 21.406V22H202.276V8.5ZM198.766 15.25C198.766 17.275 197.146 18.895 195.121 18.895C193.096 18.895 191.476 17.275 191.476 15.25C191.476 13.225 193.096 11.605 195.121 11.605C197.146 11.605 198.766 13.225 198.766 15.25ZM219.276 12.28H206.046V15.79H219.276V12.28ZM230.613 14.467H234.393L237.903 9.607V22H241.683V3.1H237.903L232.503 10.633L227.103 3.1H223.323V22H227.103V9.607L230.613 14.467Z" fill="#3F4046"/><path d="M77.7021 34.18C76.6355 34.18 75.7521 33.83 75.0521 33.13C74.3588 32.4233 74.0121 31.5333 74.0121 30.46C74.0121 29.3867 74.3621 28.5 75.0621 27.8C75.7621 27.0933 76.6421 26.74 77.7021 26.74C78.2221 26.74 78.7088 26.8433 79.1621 27.05C79.6221 27.25 79.9755 27.52 80.2221 27.86L79.6221 28.3C79.4555 28.0467 79.1988 27.83 78.8521 27.65C78.5121 27.4633 78.1321 27.37 77.7121 27.37C76.8255 27.37 76.1121 27.67 75.5721 28.27C75.0388 28.87 74.7721 29.6 74.7721 30.46C74.7721 31.32 75.0421 32.05 75.5821 32.65C76.1221 33.25 76.8321 33.55 77.7121 33.55C78.6321 33.55 79.3255 33.2 79.7921 32.5L80.3521 32.86C80.0988 33.2467 79.7421 33.5633 79.2821 33.81C78.8288 34.0567 78.3021 34.18 77.7021 34.18ZM82.3441 34V29.89H80.6541V29.32H84.7141V29.89H83.0241V34H82.3441ZM85.817 36.4V29.32H86.497V30.13H86.527C86.7137 29.8367 86.967 29.61 87.287 29.45C87.607 29.2833 87.9403 29.2 88.287 29.2C89.007 29.2 89.5903 29.4367 90.037 29.91C90.4837 30.3767 90.707 30.96 90.707 31.66C90.707 32.36 90.4837 32.9467 90.037 33.42C89.5903 33.8867 89.007 34.12 88.287 34.12C87.947 34.12 87.617 34.04 87.297 33.88C86.977 33.72 86.7203 33.4967 86.527 33.21H86.497V36.4H85.817ZM88.217 33.54C88.7637 33.54 89.1937 33.3633 89.507 33.01C89.827 32.65 89.987 32.2 89.987 31.66C89.987 31.12 89.827 30.67 89.507 30.31C89.1937 29.95 88.7637 29.77 88.217 29.77C87.697 29.77 87.267 29.95 86.927 30.31C86.587 30.67 86.417 31.12 86.417 31.66C86.417 32.2 86.587 32.65 86.927 33.01C87.267 33.3633 87.697 33.54 88.217 33.54ZM94.3146 34.12C93.5946 34.12 92.998 33.8867 92.5246 33.42C92.058 32.9533 91.8246 32.3667 91.8246 31.66C91.8246 30.9533 92.058 30.3667 92.5246 29.9C92.998 29.4333 93.5946 29.2 94.3146 29.2C95.0413 29.2 95.638 29.4333 96.1046 29.9C96.578 30.3667 96.8146 30.9533 96.8146 31.66C96.8146 32.3667 96.578 32.9533 96.1046 33.42C95.638 33.8867 95.0413 34.12 94.3146 34.12ZM94.3146 33.54C94.848 33.54 95.278 33.3633 95.6046 33.01C95.9313 32.65 96.0946 32.2 96.0946 31.66C96.0946 31.12 95.9313 30.67 95.6046 30.31C95.278 29.95 94.848 29.77 94.3146 29.77C93.788 29.77 93.3613 29.95 93.0346 30.31C92.708 30.67 92.5446 31.12 92.5446 31.66C92.5446 32.1933 92.708 32.64 93.0346 33C93.3613 33.36 93.788 33.54 94.3146 33.54ZM98.2779 34V29.32H98.9579V33.06H98.9679L101.738 29.32H102.478V34H101.808V30.22H101.788L99.0179 34H98.2779ZM105.264 34V29.89H103.574V29.32H107.634V29.89H105.944V34H105.264ZM110.7 34.12C110.006 34.12 109.43 33.8867 108.97 33.42C108.51 32.9533 108.28 32.3667 108.28 31.66C108.28 30.96 108.506 30.3767 108.96 29.91C109.413 29.4367 109.973 29.2 110.64 29.2C111.346 29.2 111.896 29.42 112.29 29.86C112.683 30.2933 112.88 30.8467 112.88 31.52C112.88 31.6533 112.876 31.76 112.87 31.84H108.99C109.003 32.3133 109.173 32.7167 109.5 33.05C109.826 33.3767 110.226 33.54 110.7 33.54C111.026 33.54 111.323 33.4633 111.59 33.31C111.856 33.15 112.06 32.9567 112.2 32.73L112.71 33.13C112.19 33.79 111.52 34.12 110.7 34.12ZM109 31.3H112.19C112.17 30.8467 112.023 30.48 111.75 30.2C111.483 29.9133 111.113 29.77 110.64 29.77C110.2 29.77 109.823 29.9233 109.51 30.23C109.203 30.53 109.033 30.8867 109 31.3ZM114.042 34.05C113.849 34.05 113.679 34.03 113.532 33.99L113.612 33.4C113.712 33.4333 113.819 33.45 113.932 33.45C114.299 33.45 114.569 33.2567 114.742 32.87C114.922 32.4767 115.012 31.82 115.012 30.9V29.32H118.362V34H117.682V29.89H115.672V31.14C115.672 32.08 115.546 32.8 115.292 33.3C115.046 33.8 114.629 34.05 114.042 34.05ZM120.163 34V29.32H120.843V31.08H121.973C122.553 31.08 123.003 31.2067 123.323 31.46C123.649 31.7133 123.813 32.0767 123.813 32.55C123.813 33.0167 123.653 33.3767 123.333 33.63C123.019 33.8767 122.569 34 121.983 34H120.163ZM120.843 33.41H122.053C122.759 33.41 123.113 33.1233 123.113 32.55C123.113 31.95 122.759 31.65 122.053 31.65H120.843V33.41ZM125.163 34V29.32H125.843V31.28H128.533V29.32H129.213V34H128.533V31.85H125.843V34H125.163ZM133.162 34.12C132.442 34.12 131.846 33.8867 131.372 33.42C130.906 32.9533 130.672 32.3667 130.672 31.66C130.672 30.9533 130.906 30.3667 131.372 29.9C131.846 29.4333 132.442 29.2 133.162 29.2C133.889 29.2 134.486 29.4333 134.952 29.9C135.426 30.3667 135.662 30.9533 135.662 31.66C135.662 32.3667 135.426 32.9533 134.952 33.42C134.486 33.8867 133.889 34.12 133.162 34.12ZM133.162 33.54C133.696 33.54 134.126 33.3633 134.452 33.01C134.779 32.65 134.942 32.2 134.942 31.66C134.942 31.12 134.779 30.67 134.452 30.31C134.126 29.95 133.696 29.77 133.162 29.77C132.636 29.77 132.209 29.95 131.882 30.31C131.556 30.67 131.392 31.12 131.392 31.66C131.392 32.1933 131.556 32.64 131.882 33C132.209 33.36 132.636 33.54 133.162 33.54ZM138.946 31.29V31.86H136.706V31.29H138.946ZM140.329 34V29.32H141.309L143.039 32.99H143.049L144.769 29.32H145.749V34H145.069V30.13H145.049L143.209 34H142.859L141.019 30.13H141.009V34H140.329ZM149.696 34.12C148.976 34.12 148.379 33.8867 147.906 33.42C147.439 32.9533 147.206 32.3667 147.206 31.66C147.206 30.9533 147.439 30.3667 147.906 29.9C148.379 29.4333 148.976 29.2 149.696 29.2C150.422 29.2 151.019 29.4333 151.486 29.9C151.959 30.3667 152.196 30.9533 152.196 31.66C152.196 32.3667 151.959 32.9533 151.486 33.42C151.019 33.8867 150.422 34.12 149.696 34.12ZM149.696 33.54C150.229 33.54 150.659 33.3633 150.986 33.01C151.312 32.65 151.476 32.2 151.476 31.66C151.476 31.12 151.312 30.67 150.986 30.31C150.659 29.95 150.229 29.77 149.696 29.77C149.169 29.77 148.742 29.95 148.416 30.31C148.089 30.67 147.926 31.12 147.926 31.66C147.926 32.1933 148.089 32.64 148.416 33C148.742 33.36 149.169 33.54 149.696 33.54ZM153.659 34V29.32H154.339V31.28H157.029V29.32H157.709V34H157.029V31.85H154.339V34H153.659ZM160.498 34V29.89H158.808V29.32H162.868V29.89H161.178V34H160.498ZM165.241 34.12C164.821 34.12 164.445 34.0033 164.111 33.77C163.785 33.53 163.621 33.1733 163.621 32.7C163.621 32.4667 163.661 32.2633 163.741 32.09C163.821 31.91 163.941 31.7633 164.101 31.65C164.261 31.5367 164.435 31.4467 164.621 31.38C164.808 31.3067 165.038 31.2533 165.311 31.22C165.585 31.18 165.838 31.1567 166.071 31.15C166.311 31.1367 166.595 31.13 166.921 31.13V30.98C166.921 30.1733 166.505 29.77 165.671 29.77C165.111 29.77 164.648 29.9533 164.281 30.32L163.901 29.87C164.348 29.4233 164.961 29.2 165.741 29.2C166.275 29.2 166.711 29.3467 167.051 29.64C167.391 29.9333 167.561 30.3533 167.561 30.9V32.95C167.561 33.37 167.588 33.72 167.641 34H167.031C166.985 33.7333 166.961 33.48 166.961 33.24H166.941C166.535 33.8267 165.968 34.12 165.241 34.12ZM165.421 33.56C165.881 33.56 166.245 33.41 166.511 33.11C166.785 32.81 166.921 32.4433 166.921 32.01V31.66H166.721C166.401 31.66 166.115 31.6733 165.861 31.7C165.615 31.72 165.365 31.7633 165.111 31.83C164.865 31.8967 164.671 32 164.531 32.14C164.391 32.28 164.321 32.4567 164.321 32.67C164.321 32.9767 164.428 33.2033 164.641 33.35C164.855 33.49 165.115 33.56 165.421 33.56ZM168.503 34L170.953 31.56L168.743 29.32H169.723L171.763 31.53H171.793V29.32H172.473V31.53H172.503L174.543 29.32H175.523L173.313 31.56L175.763 34H174.763L172.503 31.64H172.473V34H171.793V31.64H171.763L169.503 34H168.503ZM176.754 34V29.32H177.434V31.28H180.124V29.32H180.804V34H180.124V31.85H177.434V34H176.754ZM183.874 34.12C183.454 34.12 183.077 34.0033 182.744 33.77C182.417 33.53 182.254 33.1733 182.254 32.7C182.254 32.4667 182.294 32.2633 182.374 32.09C182.454 31.91 182.574 31.7633 182.734 31.65C182.894 31.5367 183.067 31.4467 183.254 31.38C183.441 31.3067 183.671 31.2533 183.944 31.22C184.217 31.18 184.471 31.1567 184.704 31.15C184.944 31.1367 185.227 31.13 185.554 31.13V30.98C185.554 30.1733 185.137 29.77 184.304 29.77C183.744 29.77 183.281 29.9533 182.914 30.32L182.534 29.87C182.981 29.4233 183.594 29.2 184.374 29.2C184.907 29.2 185.344 29.3467 185.684 29.64C186.024 29.9333 186.194 30.3533 186.194 30.9V32.95C186.194 33.37 186.221 33.72 186.274 34H185.664C185.617 33.7333 185.594 33.48 185.594 33.24H185.574C185.167 33.8267 184.601 34.12 183.874 34.12ZM184.054 33.56C184.514 33.56 184.877 33.41 185.144 33.11C185.417 32.81 185.554 32.4433 185.554 32.01V31.66H185.354C185.034 31.66 184.747 31.6733 184.494 31.7C184.247 31.72 183.997 31.7633 183.744 31.83C183.497 31.8967 183.304 32 183.164 32.14C183.024 32.28 182.954 32.4567 182.954 32.67C182.954 32.9767 183.061 33.2033 183.274 33.35C183.487 33.49 183.747 33.56 184.054 33.56ZM187.646 34L188.896 32.1C188.536 32.02 188.253 31.8667 188.046 31.64C187.846 31.4067 187.746 31.1067 187.746 30.74C187.746 30.2867 187.906 29.9367 188.226 29.69C188.546 29.4433 188.979 29.32 189.526 29.32H191.536V34H190.856V32.16H189.626L188.476 34H187.646ZM189.566 31.58H190.856V29.89H189.566C188.813 29.89 188.436 30.1733 188.436 30.74C188.436 31.3 188.813 31.58 189.566 31.58ZM195.857 34V29.32H196.537V31.53H196.567L198.727 29.32H199.707L197.347 31.56L199.947 34H198.947L196.567 31.64H196.537V34H195.857ZM202.908 34.12C202.188 34.12 201.592 33.8867 201.118 33.42C200.652 32.9533 200.418 32.3667 200.418 31.66C200.418 30.9533 200.652 30.3667 201.118 29.9C201.592 29.4333 202.188 29.2 202.908 29.2C203.635 29.2 204.232 29.4333 204.698 29.9C205.172 30.3667 205.408 30.9533 205.408 31.66C205.408 32.3667 205.172 32.9533 204.698 33.42C204.232 33.8867 203.635 34.12 202.908 34.12ZM202.908 33.54C203.442 33.54 203.872 33.3633 204.198 33.01C204.525 32.65 204.688 32.2 204.688 31.66C204.688 31.12 204.525 30.67 204.198 30.31C203.872 29.95 203.442 29.77 202.908 29.77C202.382 29.77 201.955 29.95 201.628 30.31C201.302 30.67 201.138 31.12 201.138 31.66C201.138 32.1933 201.302 32.64 201.628 33C201.955 33.36 202.382 33.54 202.908 33.54ZM206.872 34V29.32H207.852L209.582 32.99H209.592L211.312 29.32H212.292V34H211.612V30.13H211.592L209.752 34H209.402L207.562 30.13H207.552V34H206.872ZM214.088 34V29.32H218.068V34H217.388V29.89H214.768V34H214.088ZM221.14 34.12C220.72 34.12 220.343 34.0033 220.01 33.77C219.683 33.53 219.52 33.1733 219.52 32.7C219.52 32.4667 219.56 32.2633 219.64 32.09C219.72 31.91 219.84 31.7633 220 31.65C220.16 31.5367 220.333 31.4467 220.52 31.38C220.706 31.3067 220.936 31.2533 221.21 31.22C221.483 31.18 221.736 31.1567 221.97 31.15C222.21 31.1367 222.493 31.13 222.82 31.13V30.98C222.82 30.1733 222.403 29.77 221.57 29.77C221.01 29.77 220.546 29.9533 220.18 30.32L219.8 29.87C220.246 29.4233 220.86 29.2 221.64 29.2C222.173 29.2 222.61 29.3467 222.95 29.64C223.29 29.9333 223.46 30.3533 223.46 30.9V32.95C223.46 33.37 223.486 33.72 223.54 34H222.93C222.883 33.7333 222.86 33.48 222.86 33.24H222.84C222.433 33.8267 221.866 34.12 221.14 34.12ZM221.32 33.56C221.78 33.56 222.143 33.41 222.41 33.11C222.683 32.81 222.82 32.4433 222.82 32.01V31.66H222.62C222.3 31.66 222.013 31.6733 221.76 31.7C221.513 31.72 221.263 31.7633 221.01 31.83C220.763 31.8967 220.57 32 220.43 32.14C220.29 32.28 220.22 32.4567 220.22 32.67C220.22 32.9767 220.326 33.2033 220.54 33.35C220.753 33.49 221.013 33.56 221.32 33.56ZM225.212 34V29.32H225.892V31.28H228.582V29.32H229.262V34H228.582V31.85H225.892V34H225.212ZM231.061 34V29.32H231.741V33.06H231.751L234.521 29.32H235.261V34H234.591V30.22H234.571L231.801 34H231.061ZM236.757 34L238.007 32.1C237.647 32.02 237.364 31.8667 237.157 31.64C236.957 31.4067 236.857 31.1067 236.857 30.74C236.857 30.2867 237.017 29.9367 237.337 29.69C237.657 29.4433 238.091 29.32 238.637 29.32H240.647V34H239.967V32.16H238.737L237.587 34H236.757ZM238.677 31.58H239.967V29.89H238.677C237.924 29.89 237.547 30.1733 237.547 30.74C237.547 31.3 237.924 31.58 238.677 31.58Z" fill="#3F4046"/><path d="M0 19.4298L27 10L54 19.4298V35H43.7355V25.3509L27 19.4298L10.2645 25.3509V35H0V19.4298Z" fill="#3F4046"/><path d="M54 0H43.7355V12.1143L54 16V0Z" fill="#7394B3"/><path d="M0 0H10.2645V12.1143L0 16V0Z" fill="#7394B3"/></svg>