<svg width="245" height="35" viewBox="0 0 245 35" fill="none" xmlns="http://www.w3.org/2000/svg"><path d="M84.85 20H88.63V1.1H84.85V8.66H75.94V1.1H72.16V20H75.94V12.44H84.85V20ZM106.167 6.5H102.657V7.121C101.604 6.473 100.362 6.095 99.0123 6.095C95.0703 6.095 91.8573 9.308 91.8573 13.25C91.8573 17.192 95.0703 20.405 99.0123 20.405C100.362 20.405 101.604 20.027 102.657 19.406V20H106.167V6.5ZM102.657 13.25C102.657 15.275 101.037 16.895 99.0123 16.895C96.9873 16.895 95.3673 15.275 95.3673 13.25C95.3673 11.225 96.9873 9.605 99.0123 9.605C101.037 9.605 102.657 11.225 102.657 13.25ZM118.578 20H122.088V6.5H118.578V11.495H113.448V6.5H109.938V20H113.448V15.005H118.578V20ZM125.054 13.25C125.054 17.192 128.267 20.405 132.209 20.405C136.151 20.405 139.364 17.192 139.364 13.25C139.364 9.308 136.151 6.095 132.209 6.095C128.267 6.095 125.054 9.308 125.054 13.25ZM128.564 13.25C128.564 11.225 130.184 9.605 132.209 9.605C134.234 9.605 135.854 11.225 135.854 13.25C135.854 15.275 134.234 16.895 132.209 16.895C130.184 16.895 128.564 15.275 128.564 13.25ZM140.993 20H145.34L148.148 16.193L150.956 20H155.303L150.308 13.25L155.303 6.5H150.956L148.148 10.307L145.34 6.5H140.993L145.961 13.25L140.993 20ZM171.242 6.5H167.732V7.121C166.679 6.473 165.437 6.095 164.087 6.095C160.145 6.095 156.932 9.308 156.932 13.25C156.932 17.192 160.145 20.405 164.087 20.405C165.437 20.405 166.679 20.027 167.732 19.406V20H171.242V6.5ZM167.732 13.25C167.732 15.275 166.112 16.895 164.087 16.895C162.062 16.895 160.442 15.275 160.442 13.25C160.442 11.225 162.062 9.605 164.087 9.605C166.112 9.605 167.732 11.225 167.732 13.25ZM173.932 10.01H178.252V20H181.762V10.01H186.082V6.5H173.932V10.01ZM202.276 6.5H198.766V7.121C197.713 6.473 196.471 6.095 195.121 6.095C191.179 6.095 187.966 9.308 187.966 13.25C187.966 17.192 191.179 20.405 195.121 20.405C196.471 20.405 197.713 20.027 198.766 19.406V20H202.276V6.5ZM198.766 13.25C198.766 15.275 197.146 16.895 195.121 16.895C193.096 16.895 191.476 15.275 191.476 13.25C191.476 11.225 193.096 9.605 195.121 9.605C197.146 9.605 198.766 11.225 198.766 13.25ZM219.276 10.28H206.046V13.79H219.276V10.28ZM230.613 12.467H234.393L237.903 7.607V20H241.683V1.1H237.903L232.503 8.633L227.103 1.1H223.323V20H227.103V7.607L230.613 12.467Z" fill="white"/><path d="M77.7021 32.18C76.6355 32.18 75.7521 31.83 75.0521 31.13C74.3588 30.4233 74.0121 29.5333 74.0121 28.46C74.0121 27.3867 74.3621 26.5 75.0621 25.8C75.7621 25.0933 76.6421 24.74 77.7021 24.74C78.2221 24.74 78.7088 24.8433 79.1621 25.05C79.6221 25.25 79.9755 25.52 80.2221 25.86L79.6221 26.3C79.4555 26.0467 79.1988 25.83 78.8521 25.65C78.5121 25.4633 78.1321 25.37 77.7121 25.37C76.8255 25.37 76.1121 25.67 75.5721 26.27C75.0388 26.87 74.7721 27.6 74.7721 28.46C74.7721 29.32 75.0421 30.05 75.5821 30.65C76.1221 31.25 76.8321 31.55 77.7121 31.55C78.6321 31.55 79.3255 31.2 79.7921 30.5L80.3521 30.86C80.0988 31.2467 79.7421 31.5633 79.2821 31.81C78.8288 32.0567 78.3021 32.18 77.7021 32.18ZM82.3441 32V27.89H80.6541V27.32H84.7141V27.89H83.0241V32H82.3441ZM85.817 34.4V27.32H86.497V28.13H86.527C86.7137 27.8367 86.967 27.61 87.287 27.45C87.607 27.2833 87.9403 27.2 88.287 27.2C89.007 27.2 89.5903 27.4367 90.037 27.91C90.4837 28.3767 90.707 28.96 90.707 29.66C90.707 30.36 90.4837 30.9467 90.037 31.42C89.5903 31.8867 89.007 32.12 88.287 32.12C87.947 32.12 87.617 32.04 87.297 31.88C86.977 31.72 86.7203 31.4967 86.527 31.21H86.497V34.4H85.817ZM88.217 31.54C88.7637 31.54 89.1937 31.3633 89.507 31.01C89.827 30.65 89.987 30.2 89.987 29.66C89.987 29.12 89.827 28.67 89.507 28.31C89.1937 27.95 88.7637 27.77 88.217 27.77C87.697 27.77 87.267 27.95 86.927 28.31C86.587 28.67 86.417 29.12 86.417 29.66C86.417 30.2 86.587 30.65 86.927 31.01C87.267 31.3633 87.697 31.54 88.217 31.54ZM94.3146 32.12C93.5946 32.12 92.998 31.8867 92.5246 31.42C92.058 30.9533 91.8246 30.3667 91.8246 29.66C91.8246 28.9533 92.058 28.3667 92.5246 27.9C92.998 27.4333 93.5946 27.2 94.3146 27.2C95.0413 27.2 95.638 27.4333 96.1046 27.9C96.578 28.3667 96.8146 28.9533 96.8146 29.66C96.8146 30.3667 96.578 30.9533 96.1046 31.42C95.638 31.8867 95.0413 32.12 94.3146 32.12ZM94.3146 31.54C94.848 31.54 95.278 31.3633 95.6046 31.01C95.9313 30.65 96.0946 30.2 96.0946 29.66C96.0946 29.12 95.9313 28.67 95.6046 28.31C95.278 27.95 94.848 27.77 94.3146 27.77C93.788 27.77 93.3613 27.95 93.0346 28.31C92.708 28.67 92.5446 29.12 92.5446 29.66C92.5446 30.1933 92.708 30.64 93.0346 31C93.3613 31.36 93.788 31.54 94.3146 31.54ZM98.2779 32V27.32H98.9579V31.06H98.9679L101.738 27.32H102.478V32H101.808V28.22H101.788L99.0179 32H98.2779ZM105.264 32V27.89H103.574V27.32H107.634V27.89H105.944V32H105.264ZM110.7 32.12C110.006 32.12 109.43 31.8867 108.97 31.42C108.51 30.9533 108.28 30.3667 108.28 29.66C108.28 28.96 108.506 28.3767 108.96 27.91C109.413 27.4367 109.973 27.2 110.64 27.2C111.346 27.2 111.896 27.42 112.29 27.86C112.683 28.2933 112.88 28.8467 112.88 29.52C112.88 29.6533 112.876 29.76 112.87 29.84H108.99C109.003 30.3133 109.173 30.7167 109.5 31.05C109.826 31.3767 110.226 31.54 110.7 31.54C111.026 31.54 111.323 31.4633 111.59 31.31C111.856 31.15 112.06 30.9567 112.2 30.73L112.71 31.13C112.19 31.79 111.52 32.12 110.7 32.12ZM109 29.3H112.19C112.17 28.8467 112.023 28.48 111.75 28.2C111.483 27.9133 111.113 27.77 110.64 27.77C110.2 27.77 109.823 27.9233 109.51 28.23C109.203 28.53 109.033 28.8867 109 29.3ZM114.042 32.05C113.849 32.05 113.679 32.03 113.532 31.99L113.612 31.4C113.712 31.4333 113.819 31.45 113.932 31.45C114.299 31.45 114.569 31.2567 114.742 30.87C114.922 30.4767 115.012 29.82 115.012 28.9V27.32H118.362V32H117.682V27.89H115.672V29.14C115.672 30.08 115.546 30.8 115.292 31.3C115.046 31.8 114.629 32.05 114.042 32.05ZM120.163 32V27.32H120.843V29.08H121.973C122.553 29.08 123.003 29.2067 123.323 29.46C123.649 29.7133 123.813 30.0767 123.813 30.55C123.813 31.0167 123.653 31.3767 123.333 31.63C123.019 31.8767 122.569 32 121.983 32H120.163ZM120.843 31.41H122.053C122.759 31.41 123.113 31.1233 123.113 30.55C123.113 29.95 122.759 29.65 122.053 29.65H120.843V31.41ZM125.163 32V27.32H125.843V29.28H128.533V27.32H129.213V32H128.533V29.85H125.843V32H125.163ZM133.162 32.12C132.442 32.12 131.846 31.8867 131.372 31.42C130.906 30.9533 130.672 30.3667 130.672 29.66C130.672 28.9533 130.906 28.3667 131.372 27.9C131.846 27.4333 132.442 27.2 133.162 27.2C133.889 27.2 134.486 27.4333 134.952 27.9C135.426 28.3667 135.662 28.9533 135.662 29.66C135.662 30.3667 135.426 30.9533 134.952 31.42C134.486 31.8867 133.889 32.12 133.162 32.12ZM133.162 31.54C133.696 31.54 134.126 31.3633 134.452 31.01C134.779 30.65 134.942 30.2 134.942 29.66C134.942 29.12 134.779 28.67 134.452 28.31C134.126 27.95 133.696 27.77 133.162 27.77C132.636 27.77 132.209 27.95 131.882 28.31C131.556 28.67 131.392 29.12 131.392 29.66C131.392 30.1933 131.556 30.64 131.882 31C132.209 31.36 132.636 31.54 133.162 31.54ZM138.946 29.29V29.86H136.706V29.29H138.946ZM140.329 32V27.32H141.309L143.039 30.99H143.049L144.769 27.32H145.749V32H145.069V28.13H145.049L143.209 32H142.859L141.019 28.13H141.009V32H140.329ZM149.696 32.12C148.976 32.12 148.379 31.8867 147.906 31.42C147.439 30.9533 147.206 30.3667 147.206 29.66C147.206 28.9533 147.439 28.3667 147.906 27.9C148.379 27.4333 148.976 27.2 149.696 27.2C150.422 27.2 151.019 27.4333 151.486 27.9C151.959 28.3667 152.196 28.9533 152.196 29.66C152.196 30.3667 151.959 30.9533 151.486 31.42C151.019 31.8867 150.422 32.12 149.696 32.12ZM149.696 31.54C150.229 31.54 150.659 31.3633 150.986 31.01C151.312 30.65 151.476 30.2 151.476 29.66C151.476 29.12 151.312 28.67 150.986 28.31C150.659 27.95 150.229 27.77 149.696 27.77C149.169 27.77 148.742 27.95 148.416 28.31C148.089 28.67 147.926 29.12 147.926 29.66C147.926 30.1933 148.089 30.64 148.416 31C148.742 31.36 149.169 31.54 149.696 31.54ZM153.659 32V27.32H154.339V29.28H157.029V27.32H157.709V32H157.029V29.85H154.339V32H153.659ZM160.498 32V27.89H158.808V27.32H162.868V27.89H161.178V32H160.498ZM165.241 32.12C164.821 32.12 164.445 32.0033 164.111 31.77C163.785 31.53 163.621 31.1733 163.621 30.7C163.621 30.4667 163.661 30.2633 163.741 30.09C163.821 29.91 163.941 29.7633 164.101 29.65C164.261 29.5367 164.435 29.4467 164.621 29.38C164.808 29.3067 165.038 29.2533 165.311 29.22C165.585 29.18 165.838 29.1567 166.071 29.15C166.311 29.1367 166.595 29.13 166.921 29.13V28.98C166.921 28.1733 166.505 27.77 165.671 27.77C165.111 27.77 164.648 27.9533 164.281 28.32L163.901 27.87C164.348 27.4233 164.961 27.2 165.741 27.2C166.275 27.2 166.711 27.3467 167.051 27.64C167.391 27.9333 167.561 28.3533 167.561 28.9V30.95C167.561 31.37 167.588 31.72 167.641 32H167.031C166.985 31.7333 166.961 31.48 166.961 31.24H166.941C166.535 31.8267 165.968 32.12 165.241 32.12ZM165.421 31.56C165.881 31.56 166.245 31.41 166.511 31.11C166.785 30.81 166.921 30.4433 166.921 30.01V29.66H166.721C166.401 29.66 166.115 29.6733 165.861 29.7C165.615 29.72 165.365 29.7633 165.111 29.83C164.865 29.8967 164.671 30 164.531 30.14C164.391 30.28 164.321 30.4567 164.321 30.67C164.321 30.9767 164.428 31.2033 164.641 31.35C164.855 31.49 165.115 31.56 165.421 31.56ZM168.503 32L170.953 29.56L168.743 27.32H169.723L171.763 29.53H171.793V27.32H172.473V29.53H172.503L174.543 27.32H175.523L173.313 29.56L175.763 32H174.763L172.503 29.64H172.473V32H171.793V29.64H171.763L169.503 32H168.503ZM176.754 32V27.32H177.434V29.28H180.124V27.32H180.804V32H180.124V29.85H177.434V32H176.754ZM183.874 32.12C183.454 32.12 183.077 32.0033 182.744 31.77C182.417 31.53 182.254 31.1733 182.254 30.7C182.254 30.4667 182.294 30.2633 182.374 30.09C182.454 29.91 182.574 29.7633 182.734 29.65C182.894 29.5367 183.067 29.4467 183.254 29.38C183.441 29.3067 183.671 29.2533 183.944 29.22C184.217 29.18 184.471 29.1567 184.704 29.15C184.944 29.1367 185.227 29.13 185.554 29.13V28.98C185.554 28.1733 185.137 27.77 184.304 27.77C183.744 27.77 183.281 27.9533 182.914 28.32L182.534 27.87C182.981 27.4233 183.594 27.2 184.374 27.2C184.907 27.2 185.344 27.3467 185.684 27.64C186.024 27.9333 186.194 28.3533 186.194 28.9V30.95C186.194 31.37 186.221 31.72 186.274 32H185.664C185.617 31.7333 185.594 31.48 185.594 31.24H185.574C185.167 31.8267 184.601 32.12 183.874 32.12ZM184.054 31.56C184.514 31.56 184.877 31.41 185.144 31.11C185.417 30.81 185.554 30.4433 185.554 30.01V29.66H185.354C185.034 29.66 184.747 29.6733 184.494 29.7C184.247 29.72 183.997 29.7633 183.744 29.83C183.497 29.8967 183.304 30 183.164 30.14C183.024 30.28 182.954 30.4567 182.954 30.67C182.954 30.9767 183.061 31.2033 183.274 31.35C183.487 31.49 183.747 31.56 184.054 31.56ZM187.646 32L188.896 30.1C188.536 30.02 188.253 29.8667 188.046 29.64C187.846 29.4067 187.746 29.1067 187.746 28.74C187.746 28.2867 187.906 27.9367 188.226 27.69C188.546 27.4433 188.979 27.32 189.526 27.32H191.536V32H190.856V30.16H189.626L188.476 32H187.646ZM189.566 29.58H190.856V27.89H189.566C188.813 27.89 188.436 28.1733 188.436 28.74C188.436 29.3 188.813 29.58 189.566 29.58ZM195.857 32V27.32H196.537V29.53H196.567L198.727 27.32H199.707L197.347 29.56L199.947 32H198.947L196.567 29.64H196.537V32H195.857ZM202.908 32.12C202.188 32.12 201.592 31.8867 201.118 31.42C200.652 30.9533 200.418 30.3667 200.418 29.66C200.418 28.9533 200.652 28.3667 201.118 27.9C201.592 27.4333 202.188 27.2 202.908 27.2C203.635 27.2 204.232 27.4333 204.698 27.9C205.172 28.3667 205.408 28.9533 205.408 29.66C205.408 30.3667 205.172 30.9533 204.698 31.42C204.232 31.8867 203.635 32.12 202.908 32.12ZM202.908 31.54C203.442 31.54 203.872 31.3633 204.198 31.01C204.525 30.65 204.688 30.2 204.688 29.66C204.688 29.12 204.525 28.67 204.198 28.31C203.872 27.95 203.442 27.77 202.908 27.77C202.382 27.77 201.955 27.95 201.628 28.31C201.302 28.67 201.138 29.12 201.138 29.66C201.138 30.1933 201.302 30.64 201.628 31C201.955 31.36 202.382 31.54 202.908 31.54ZM206.872 32V27.32H207.852L209.582 30.99H209.592L211.312 27.32H212.292V32H211.612V28.13H211.592L209.752 32H209.402L207.562 28.13H207.552V32H206.872ZM214.088 32V27.32H218.068V32H217.388V27.89H214.768V32H214.088ZM221.14 32.12C220.72 32.12 220.343 32.0033 220.01 31.77C219.683 31.53 219.52 31.1733 219.52 30.7C219.52 30.4667 219.56 30.2633 219.64 30.09C219.72 29.91 219.84 29.7633 220 29.65C220.16 29.5367 220.333 29.4467 220.52 29.38C220.706 29.3067 220.936 29.2533 221.21 29.22C221.483 29.18 221.736 29.1567 221.97 29.15C222.21 29.1367 222.493 29.13 222.82 29.13V28.98C222.82 28.1733 222.403 27.77 221.57 27.77C221.01 27.77 220.546 27.9533 220.18 28.32L219.8 27.87C220.246 27.4233 220.86 27.2 221.64 27.2C222.173 27.2 222.61 27.3467 222.95 27.64C223.29 27.9333 223.46 28.3533 223.46 28.9V30.95C223.46 31.37 223.486 31.72 223.54 32H222.93C222.883 31.7333 222.86 31.48 222.86 31.24H222.84C222.433 31.8267 221.866 32.12 221.14 32.12ZM221.32 31.56C221.78 31.56 222.143 31.41 222.41 31.11C222.683 30.81 222.82 30.4433 222.82 30.01V29.66H222.62C222.3 29.66 222.013 29.6733 221.76 29.7C221.513 29.72 221.263 29.7633 221.01 29.83C220.763 29.8967 220.57 30 220.43 30.14C220.29 30.28 220.22 30.4567 220.22 30.67C220.22 30.9767 220.326 31.2033 220.54 31.35C220.753 31.49 221.013 31.56 221.32 31.56ZM225.212 32V27.32H225.892V29.28H228.582V27.32H229.262V32H228.582V29.85H225.892V32H225.212ZM231.061 32V27.32H231.741V31.06H231.751L234.521 27.32H235.261V32H234.591V28.22H234.571L231.801 32H231.061ZM236.757 32L238.007 30.1C237.647 30.02 237.364 29.8667 237.157 29.64C236.957 29.4067 236.857 29.1067 236.857 28.74C236.857 28.2867 237.017 27.9367 237.337 27.69C237.657 27.4433 238.091 27.32 238.637 27.32H240.647V32H239.967V30.16H238.737L237.587 32H236.757ZM238.677 29.58H239.967V27.89H238.677C237.924 27.89 237.547 28.1733 237.547 28.74C237.547 29.3 237.924 29.58 238.677 29.58Z" fill="white"/><path d="M0 19.4298L27 10L54 19.4298V35H43.7355V25.3509L27 19.4298L10.2645 25.3509V35H0V19.4298Z" fill="white"/><path d="M54 0H43.7355V12.1143L54 16V0Z" fill="#FFC501"/><path d="M0 0H10.2645V12.1143L0 16V0Z" fill="#FFC501"/></svg>