<svg width="268" height="36" viewBox="0 0 268 36" fill="none" xmlns="http://www.w3.org/2000/svg"><path d="M78.204 23V13.088H81.228C82.3387 13.088 83.2067 13.3167 83.832 13.774C84.4573 14.222 84.77 14.9127 84.77 15.846C84.77 16.798 84.4387 17.5027 83.776 17.96C83.1227 18.4173 82.25 18.646 81.158 18.646H79.59V23H78.204ZM79.59 17.47H81.06C82.6 17.47 83.37 16.9287 83.37 15.846C83.37 14.7913 82.6093 14.264 81.088 14.264H79.59V17.47ZM87.5989 23.168C87.3189 23.168 87.0435 23.1307 86.7729 23.056C86.5022 22.9813 86.2455 22.8693 86.0029 22.72C85.7602 22.5707 85.5642 22.3607 85.4149 22.09C85.2655 21.81 85.1909 21.488 85.1909 21.124C85.1909 20.7413 85.2795 20.41 85.4569 20.13C85.6435 19.8407 85.8769 19.6213 86.1569 19.472C86.4369 19.3133 86.7915 19.192 87.2209 19.108C87.6595 19.0147 88.0702 18.954 88.4529 18.926C88.8449 18.898 89.2975 18.884 89.8109 18.884V18.702C89.8109 18.226 89.6615 17.8667 89.3629 17.624C89.0735 17.372 88.6769 17.246 88.1729 17.246C87.4262 17.246 86.7962 17.5027 86.2829 18.016L85.5829 17.176C86.2735 16.5133 87.1789 16.182 88.2989 16.182C89.2135 16.182 89.9042 16.4247 90.3709 16.91C90.8375 17.386 91.0709 18.0113 91.0709 18.786V21.684C91.0709 22.2627 91.1035 22.7013 91.1689 23H89.9789C89.9042 22.6827 89.8669 22.3653 89.8669 22.048H89.8249C89.3302 22.7947 88.5882 23.168 87.5989 23.168ZM87.8929 22.132C88.4902 22.132 88.9569 21.9547 89.2929 21.6C89.6382 21.236 89.8109 20.7647 89.8109 20.186V19.836H89.4889C87.5195 19.836 86.5349 20.256 86.5349 21.096C86.5349 21.46 86.6655 21.726 86.9269 21.894C87.1882 22.0527 87.5102 22.132 87.8929 22.132ZM95.3128 23.196C94.0528 23.196 93.0961 22.7807 92.4428 21.95L93.3388 21.18C93.5161 21.4507 93.7774 21.6793 94.1228 21.866C94.4774 22.0527 94.8508 22.146 95.2428 22.146C96.2228 22.146 96.7128 21.8007 96.7128 21.11C96.7128 20.4193 96.1294 20.074 94.9628 20.074H94.4728V19.094H94.9488C95.9941 19.094 96.5168 18.758 96.5168 18.086C96.5168 17.5073 96.0734 17.218 95.1868 17.218C94.8694 17.218 94.5614 17.2973 94.2628 17.456C93.9641 17.6053 93.7261 17.806 93.5488 18.058L92.7088 17.344C92.9514 16.98 93.3014 16.6953 93.7588 16.49C94.2254 16.2847 94.7388 16.182 95.2988 16.182C96.0548 16.182 96.6661 16.3453 97.1328 16.672C97.6088 16.9893 97.8468 17.428 97.8468 17.988C97.8468 18.3613 97.7161 18.688 97.4548 18.968C97.2028 19.248 96.8808 19.43 96.4888 19.514V19.542C96.9554 19.626 97.3288 19.8127 97.6088 20.102C97.8981 20.382 98.0428 20.7367 98.0428 21.166C98.0428 21.8007 97.7861 22.3 97.2728 22.664C96.7594 23.0187 96.1061 23.196 95.3128 23.196ZM99.8723 26.36V16.364H101.16V17.4H101.202C101.426 17.036 101.748 16.742 102.168 16.518C102.588 16.294 103.064 16.182 103.596 16.182C104.567 16.182 105.36 16.518 105.976 17.19C106.602 17.8527 106.914 18.6787 106.914 19.668C106.914 20.6667 106.606 21.502 105.99 22.174C105.374 22.846 104.567 23.182 103.568 23.182C103.092 23.182 102.644 23.0793 102.224 22.874C101.804 22.6593 101.473 22.37 101.23 22.006H101.188V26.36H99.8723ZM103.344 22.076C104.035 22.076 104.576 21.8427 104.968 21.376C105.36 20.9 105.556 20.3307 105.556 19.668C105.556 19.0053 105.36 18.4407 104.968 17.974C104.576 17.5073 104.035 17.274 103.344 17.274C102.691 17.274 102.154 17.512 101.734 17.988C101.314 18.464 101.104 19.0287 101.104 19.682C101.104 20.3353 101.314 20.9 101.734 21.376C102.154 21.8427 102.691 22.076 103.344 22.076ZM110.663 23.168C110.383 23.168 110.108 23.1307 109.837 23.056C109.567 22.9813 109.31 22.8693 109.067 22.72C108.825 22.5707 108.629 22.3607 108.479 22.09C108.33 21.81 108.255 21.488 108.255 21.124C108.255 20.7413 108.344 20.41 108.521 20.13C108.708 19.8407 108.941 19.6213 109.221 19.472C109.501 19.3133 109.856 19.192 110.285 19.108C110.724 19.0147 111.135 18.954 111.517 18.926C111.909 18.898 112.362 18.884 112.875 18.884V18.702C112.875 18.226 112.726 17.8667 112.427 17.624C112.138 17.372 111.741 17.246 111.237 17.246C110.491 17.246 109.861 17.5027 109.347 18.016L108.647 17.176C109.338 16.5133 110.243 16.182 111.363 16.182C112.278 16.182 112.969 16.4247 113.435 16.91C113.902 17.386 114.135 18.0113 114.135 18.786V21.684C114.135 22.2627 114.168 22.7013 114.233 23H113.043C112.969 22.6827 112.931 22.3653 112.931 22.048H112.889C112.395 22.7947 111.653 23.168 110.663 23.168ZM110.957 22.132C111.555 22.132 112.021 21.9547 112.357 21.6C112.703 21.236 112.875 20.7647 112.875 20.186V19.836H112.553C110.584 19.836 109.599 20.256 109.599 21.096C109.599 21.46 109.73 21.726 109.991 21.894C110.253 22.0527 110.575 22.132 110.957 22.132ZM119.609 23.182C118.377 23.182 117.435 22.762 116.781 21.922C116.268 21.2593 116.011 20.186 116.011 18.702C116.011 18.0113 116.03 17.4233 116.067 16.938C116.114 16.4433 116.198 15.958 116.319 15.482C116.441 14.9967 116.613 14.6047 116.837 14.306C117.061 13.998 117.36 13.7367 117.733 13.522C118.107 13.3073 118.559 13.1673 119.091 13.102L120.953 12.878C121.317 12.8313 121.593 12.7613 121.779 12.668C121.966 12.5747 122.087 12.4253 122.143 12.22L123.095 12.5C122.983 12.9573 122.797 13.2933 122.535 13.508C122.274 13.7227 121.887 13.8673 121.373 13.942L119.539 14.18C118.933 14.2547 118.461 14.3947 118.125 14.6C117.789 14.8053 117.523 15.1647 117.327 15.678C117.131 16.182 117.024 16.8913 117.005 17.806H117.047C117.589 16.742 118.536 16.21 119.889 16.21C120.832 16.21 121.611 16.5367 122.227 17.19C122.853 17.834 123.165 18.6647 123.165 19.682C123.165 20.7087 122.829 21.5487 122.157 22.202C121.485 22.8553 120.636 23.182 119.609 23.182ZM117.985 21.39C118.387 21.8473 118.923 22.076 119.595 22.076C120.267 22.076 120.804 21.8473 121.205 21.39C121.616 20.9233 121.821 20.3493 121.821 19.668C121.821 18.9867 121.616 18.4173 121.205 17.96C120.804 17.4933 120.263 17.26 119.581 17.26C118.919 17.26 118.387 17.4933 117.985 17.96C117.584 18.4173 117.383 18.9867 117.383 19.668C117.383 20.3493 117.584 20.9233 117.985 21.39ZM130.685 22.188C130.004 22.8507 129.155 23.182 128.137 23.182C127.12 23.182 126.271 22.8507 125.589 22.188C124.908 21.5253 124.567 20.6853 124.567 19.668C124.567 18.6507 124.903 17.8153 125.575 17.162C126.257 16.5087 127.111 16.182 128.137 16.182C129.164 16.182 130.018 16.5087 130.699 17.162C131.381 17.8153 131.721 18.6507 131.721 19.668C131.721 20.6853 131.376 21.5253 130.685 22.188ZM126.513 21.376C126.915 21.8427 127.456 22.076 128.137 22.076C128.819 22.076 129.355 21.8427 129.747 21.376C130.149 20.9 130.349 20.3307 130.349 19.668C130.349 19.0053 130.149 18.4407 129.747 17.974C129.355 17.5073 128.819 17.274 128.137 17.274C127.456 17.274 126.915 17.5073 126.513 17.974C126.121 18.4407 125.925 19.0053 125.925 19.668C125.925 20.3307 126.121 20.9 126.513 21.376ZM134.782 23V17.442H132.528V16.364H138.352V17.442H136.098V23H134.782ZM139.781 23V16.364H141.097V19.402H141.139L143.939 16.364H145.689L142.609 19.514L145.969 23H144.191L141.139 19.752H141.097V23H139.781ZM149.054 23.168C148.774 23.168 148.499 23.1307 148.228 23.056C147.957 22.9813 147.701 22.8693 147.458 22.72C147.215 22.5707 147.019 22.3607 146.87 22.09C146.721 21.81 146.646 21.488 146.646 21.124C146.646 20.7413 146.735 20.41 146.912 20.13C147.099 19.8407 147.332 19.6213 147.612 19.472C147.892 19.3133 148.247 19.192 148.676 19.108C149.115 19.0147 149.525 18.954 149.908 18.926C150.3 18.898 150.753 18.884 151.266 18.884V18.702C151.266 18.226 151.117 17.8667 150.818 17.624C150.529 17.372 150.132 17.246 149.628 17.246C148.881 17.246 148.251 17.5027 147.738 18.016L147.038 17.176C147.729 16.5133 148.634 16.182 149.754 16.182C150.669 16.182 151.359 16.4247 151.826 16.91C152.293 17.386 152.526 18.0113 152.526 18.786V21.684C152.526 22.2627 152.559 22.7013 152.624 23H151.434C151.359 22.6827 151.322 22.3653 151.322 22.048H151.28C150.785 22.7947 150.043 23.168 149.054 23.168ZM149.348 22.132C149.945 22.132 150.412 21.9547 150.748 21.6C151.093 21.236 151.266 20.7647 151.266 20.186V19.836H150.944C148.975 19.836 147.99 20.256 147.99 21.096C147.99 21.46 148.121 21.726 148.382 21.894C148.643 22.0527 148.965 22.132 149.348 22.132ZM158.224 23V16.364H159.54V21.152H159.554L162.956 16.364H164.398V23H163.082V18.198H163.054L159.666 23H158.224ZM170.159 23V16.364H172.021L174.205 21.208H174.219L176.375 16.364H178.251V23H176.949V17.918H176.921L174.583 23H173.785L171.475 17.904H171.461V23H170.159ZM182.441 23.168C182.161 23.168 181.885 23.1307 181.615 23.056C181.344 22.9813 181.087 22.8693 180.845 22.72C180.602 22.5707 180.406 22.3607 180.257 22.09C180.107 21.81 180.033 21.488 180.033 21.124C180.033 20.7413 180.121 20.41 180.299 20.13C180.485 19.8407 180.719 19.6213 180.999 19.472C181.279 19.3133 181.633 19.192 182.063 19.108C182.501 19.0147 182.912 18.954 183.295 18.926C183.687 18.898 184.139 18.884 184.653 18.884V18.702C184.653 18.226 184.503 17.8667 184.205 17.624C183.915 17.372 183.519 17.246 183.015 17.246C182.268 17.246 181.638 17.5027 181.125 18.016L180.425 17.176C181.115 16.5133 182.021 16.182 183.141 16.182C184.055 16.182 184.746 16.4247 185.213 16.91C185.679 17.386 185.913 18.0113 185.913 18.786V21.684C185.913 22.2627 185.945 22.7013 186.011 23H184.821C184.746 22.6827 184.709 22.3653 184.709 22.048H184.667C184.172 22.7947 183.43 23.168 182.441 23.168ZM182.735 22.132C183.332 22.132 183.799 21.9547 184.135 21.6C184.48 21.236 184.653 20.7647 184.653 20.186V19.836H184.331C182.361 19.836 181.377 20.256 181.377 21.096C181.377 21.46 181.507 21.726 181.769 21.894C182.03 22.0527 182.352 22.132 182.735 22.132ZM188.111 26.36V16.364H189.399V17.4H189.441C189.665 17.036 189.987 16.742 190.407 16.518C190.827 16.294 191.303 16.182 191.835 16.182C192.805 16.182 193.599 16.518 194.215 17.19C194.84 17.8527 195.153 18.6787 195.153 19.668C195.153 20.6667 194.845 21.502 194.229 22.174C193.613 22.846 192.805 23.182 191.807 23.182C191.331 23.182 190.883 23.0793 190.463 22.874C190.043 22.6593 189.711 22.37 189.469 22.006H189.427V26.36H188.111ZM191.583 22.076C192.273 22.076 192.815 21.8427 193.207 21.376C193.599 20.9 193.795 20.3307 193.795 19.668C193.795 19.0053 193.599 18.4407 193.207 17.974C192.815 17.5073 192.273 17.274 191.583 17.274C190.929 17.274 190.393 17.512 189.973 17.988C189.553 18.464 189.343 19.0287 189.343 19.682C189.343 20.3353 189.553 20.9 189.973 21.376C190.393 21.8427 190.929 22.076 191.583 22.076ZM196.998 23V16.364H198.314V19.402H198.356L201.156 16.364H202.906L199.826 19.514L203.186 23H201.408L198.356 19.752H198.314V23H196.998ZM207.173 23.182C206.155 23.182 205.315 22.86 204.653 22.216C203.999 21.572 203.673 20.732 203.673 19.696C203.673 18.6693 203.999 17.8293 204.653 17.176C205.306 16.5133 206.123 16.182 207.103 16.182C208.083 16.182 208.857 16.4947 209.427 17.12C210.005 17.736 210.295 18.5713 210.295 19.626C210.295 19.822 210.29 19.9713 210.281 20.074H205.017C205.035 20.6433 205.255 21.124 205.675 21.516C206.095 21.8987 206.594 22.09 207.173 22.09C208.003 22.09 208.647 21.754 209.105 21.082L210.029 21.824C209.329 22.7293 208.377 23.182 207.173 23.182ZM205.017 19.094H208.965C208.946 18.5433 208.778 18.0953 208.461 17.75C208.143 17.3953 207.691 17.218 207.103 17.218C206.543 17.218 206.067 17.4 205.675 17.764C205.283 18.128 205.063 18.5713 205.017 19.094ZM213.532 23V17.442H211.278V16.364H217.102V17.442H214.848V23H213.532ZM218.517 23V16.364H219.833V21.152H219.847L223.249 16.364H224.691V23H223.375V18.198H223.347L219.959 23H218.517ZM226.952 23V16.364H228.268V18.996H231.558V16.364H232.874V23H231.558V20.074H228.268V23H226.952ZM235.142 23V16.364H239.664V17.442H236.458V23H235.142Z" fill="white"/><path d="M16.3084 1.71094H23.9021L37.0358 35.0465H29.5853L26.8152 27.4052H13.0131L10.1953 35.0465H3.1748L16.3084 1.71094ZM24.7617 22.0086L19.9381 8.34947L15.0667 22.0086H24.7617Z" fill="#FF2770"/><path d="M37.6782 13.7462L34.2874 9.40009L44.1734 1.71094H50V35.0465H43.2182V9.16125L37.6782 13.7462Z" fill="#FF2770"/><path d="M13.1653 0H20.7773L33.9427 33.4159H26.4743L23.6975 25.7562H9.86195L7.03746 33.4159H0L13.1653 0ZM21.639 20.3464L16.8038 6.65441L11.9207 20.3464H21.639Z" fill="#11DCF4"/><path d="M34.5866 12.0643L31.1876 7.70771L41.0974 0H46.9381V33.4159H40.14V7.46826L34.5866 12.0643Z" fill="#11DCF4"/><path d="M14.5086 1.70898H22.1206L35.2859 35.1249H27.8175L25.0408 27.4651H11.2052L8.38072 35.1249H1.34326L14.5086 1.70898ZM22.9823 22.0554L18.1471 8.36339L13.264 22.0554H22.9823Z" fill="white"/><path d="M35.9298 13.7733L32.5308 9.4167L42.4406 1.70898H48.2812V35.1249H41.4831V9.17724L35.9298 13.7733Z" fill="white"/></svg>