<svg xmlns="http://www.w3.org/2000/svg" width="12" height="12"><defs><filter id="a"><feFlood flood-color="#3B3B3B" flood-opacity="1" result="floodOut"/><feComposite operator="atop" in="floodOut" in2="SourceGraphic" result="compOut"/><feBlend in="compOut" in2="SourceGraphic"/></filter></defs><path fill-rule="evenodd" fill="#3B3B3B" d="M6 12A6 6 0 1 1 6 0a6 6 0 0 1 0 12zM6 1.125a4.875 4.875 0 1 0 0 9.75 4.875 4.875 0 0 0 0-9.75zm2.437 5.437H6A.563.563 0 0 1 5.437 6V2.625a.563.563 0 1 1 1.125 0v2.812h1.875a.563.563 0 1 1 0 1.125z" filter="url(#a)"/></svg>