<svg xmlns="http://www.w3.org/2000/svg" width="12" height="12"><defs><filter id="a"><feFlood flood-color="#3B3B3B" flood-opacity="1" result="floodOut"/><feComposite operator="atop" in="floodOut" in2="SourceGraphic" result="compOut"/><feBlend in="compOut" in2="SourceGraphic"/></filter></defs><path fill-rule="evenodd" fill="#3B3B3B" d="M12 11.418v.001a.572.572 0 0 1-.563.581H.562A.572.572 0 0 1 0 11.419v-.001s0-2.116 1.497-2.886c.948-.486.583-.091 1.747-.589 1.163-.498 1.439-.671 1.439-.671l.011-1.147s-.436-.344-.571-1.423c-.273.082-.363-.33-.379-.592-.015-.253-.158-1.044.175-.973-.068-.528-.117-1.005-.093-1.257.083-.886.91-1.811 2.183-1.879C7.506.069 8.1.994 8.183 1.879c.024.253-.029.73-.098 1.257.333-.071.189.719.172.972-.014.263-.106.673-.378.592-.136 1.079-.572 1.42-.572 1.42l.01 1.141s.276.162 1.439.659c1.164.498.799.126 1.747.613C12 9.302 12 11.418 12 11.418z" filter="url(#a)"/></svg>