<svg xmlns="http://www.w3.org/2000/svg" width="18" height="15"><defs><filter id="a"><feFlood flood-color="#B8B8B8" flood-opacity="1" result="floodOut"/><feComposite operator="atop" in="floodOut" in2="SourceGraphic" result="compOut"/><feBlend in="compOut" in2="SourceGraphic"/></filter></defs><path fill-rule="evenodd" fill="#B8B8B8" d="M12.243.001c1.431-.026 2.192.509 2.919 1.19.617-.055 1.42-.409 1.892-.655l.459-.259c-.269.75-.635 1.336-1.198 1.781-.125.098-.249.232-.405.295v.009c.801-.008 1.462-.38 2.09-.581v.009c-.33.538-.776 1.084-1.252 1.476l-.577.47c.011.872-.012 1.703-.171 2.435-.922 4.257-3.366 7.146-7.234 8.384-1.389.445-3.634.627-5.226.222-.789-.202-1.502-.429-2.171-.729a8.694 8.694 0 0 1-1.045-.553L0 13.292c.359.011.779.112 1.18.046.363-.06.719-.045 1.054-.12.836-.188 1.577-.437 2.216-.821.31-.186.78-.405 1-.673a3.093 3.093 0 0 1-1.099-.203c-1.194-.433-1.89-1.23-2.342-2.426.362.041 1.405.138 1.649-.074-.456-.026-.894-.297-1.208-.498C1.49 7.906.706 6.87.712 5.277l.378.184c.241.104.487.16.775.221.121.026.365.1.504.046h-.018c-.186-.222-.489-.37-.675-.608C1.059 4.333.481 3.122.847 1.68a4.54 4.54 0 0 1 .396-.988.162.162 0 0 0 .018.01c.072.154.232.267.334.396.314.401.703.762 1.099 1.079 1.348 1.084 2.563 1.749 4.513 2.242.495.125 1.067.22 1.658.221-.166-.496-.113-1.3.018-1.78.328-1.208 1.042-2.079 2.09-2.546a4.37 4.37 0 0 1 .82-.258l.45-.055z" filter="url(#a)"/></svg>