<svg xmlns="http://www.w3.org/2000/svg" width="1920" height="262" viewBox="0 0 508 69.320841"><path d="M0 48.874l2.142-1.453 2.824 2.171v2.013h3.202v-1.699h3.274v2.691h1.723v2.264h1.26v-5.49l2.49-1.086c2.945-1.129 2.957-1.327 2.907-2.217-.028-.506.277-1.025.833-1.557.569-.545.865-.737 1.034-1.837.212-1.05.23-1.077.462 0 .239 1.11.267 1.284.843 1.837.557.535.793.964.793 1.557.047 1.147.328 1.385 3.512 2.217l6.58-4.305 3.815 2.32v-1.516h2.044v3.932h4.434v-1.587h-1.42l3.317-2.592v-2.1h1.27V43.6l3.184-2.33 7.907 5.859h-1.47v3.83h3.407v3.134h3.746v-2.048h2.456v-5.733h-1.284c3.863-2.453 7.049-3.888 11.455-6.083L83 43.485v-2.429h1.962v3.376l3.042 1.88h-1.329v8.597h2.795v-5.764h2.339v-6.167h-1.327l7.198-4.099 6.46 4.099h-1.334v6.167h6.113v-6.392h-1.564s8.595-6.19 9.05-6.19l3.7 2.441v-1.735h1.785v2.814l3.658 2.67h-1.717v12.75h3.587v-5.55h-1.534l1.534-3.122h5.414v-4.986h-1.876l10.717-7.917 3.804 2.597v-1.6h2.6v3.378l4.54 3.542h-1.878v2.427l7.057-1.658v-4.14h-1.85l7.904-14.569v-1.11h-.535l.006-.723h.529V21.4h.874v.673h.585l.006.722h-.59v1.112l7.403 14.567h-1.812v9.81h3.815v-4.831h-1.76l17.498-7.054v-9.092h-1.49l7.698-5.57 2.831 2.05v-1.828h1.933v3.213l2.838 2.135h-1.452v17.992l4.467 2.594V11.886h1.57V7.987h1.364v-2.66h3.014c-.024-2.073.071-3.73.57-5.775.61 2.026.682 3.685.751 5.776h3.014v2.659h1.354v3.9h1.58v25.582h2.114v-2.23h2.839v1.087h3.44v1.143h2.718V15.06h-1.532v-2.48h1.532v-1.635h8.938v1.636h1.386v2.48h-1.386v7.245h2.041v-3.093h1.703v3.093l7.475-4.285 7.194 3.46v-1.964h2.088v2.79l4.309 2.38h-1.124v10.5l5.155-3.973 5.256 4.025V21.53h-1.094v-2.053h4.569v-1.105h8.603v1.105h1.245v2.053h-1.245v30.794l3.423-1.625v-6.256h10.709V28.825h-1.627l3.31-2.137V24.77h1.4v1.208l2.348-1.393 6.748 4.24h-1.505V40.14h6.267v-7.625h-1.201l6.4-4.172 6.335 4.172h-1.162v22.99h3.452v-3.777h-.988c1.014-1.969 1.937-1.85 3.14-1.92h3.052l5.913-5.378V34.28h-1.512l2.648-2.308v-2.877h1.837v1.63l3.177-2.34 7.734 5.894h-1.454v6.616h4.337v-4.066h2.165v1.333l3.436-2.22 9.008 6.515h-1.261v5.922h6.16v-5.922c-.327-.047-1.245 0-1.245 0 .399-1.262.171-1.283 1.245-1.315.268 0 .807-1.075 1.207-1.184 1.155-.315 2.448.018 2.883-.48.918-1.048 1.882-1.048 2.858 0 .39.418 1.615.126 2.665.48.522.176 1.055 1.166 1.312 1.184.851-.013 1.08.096 1.185 1.315h-1.185v3.776h4.085v3.444h2.815v-1.438h2.074v-2.822H396.7l7.815-5.674 2.985 2.204V40.55h1.278v2.34l3.113 2.526h-1.611v2.822h8.793v-3.86h1.806v1.465l4.09-2.655 8.559 6.552h-1.562v6.293h4.023v-13.51h-1.872l10.204-7.578 3.673 2.614v-1.811h2.188v3.283l4.344 3.493h-1.763v5.603h6.288v1.74h5.828v-4.165h2.065v1.192l3.329-2.113 5.526 3.703 9.031-6.316 3.945 2.85v-1.939h1.883v3.11l4.142 3.25h-1.702v3.548l7.657-5.033 3.842 2.737v-1.893h1.924v3.146l1.479 1.16V69.32H0z" fill="#181818"/><path d="M508 61.515l-2.547-1.966a96.986 96.986 0 0 0-3.605 2.5v3.695h-1.945v-6.138h1.557c-2.434-1.794-4.913-3.525-7.386-5.265l-2.462 1.801v-1.39h-1.42v2.49l-2.627 2.387h1.31v4.827l-4.303-.056v-5.972h.845l-3.318-3.17-2.698 2.172-2.666-2.172-2.6 2.172-2.834-2.172-2.58 2.172-3.076-2.172-2.824 2.172v2.012h-3.201v-1.698h-3.275v2.69h-1.723V62.7h-1.26v-5.49l-2.49-1.086c-2.944-1.13-2.957-1.327-2.907-2.217.029-.506-.277-1.025-.832-1.557-.57-.545-.866-.737-1.034-1.837-.213-1.05-.231-1.078-.463 0-.238 1.11-.266 1.283-.843 1.837-.556.534-.793.964-.793 1.557-.046 1.147-.328 1.385-3.511 2.217l-6.581-4.306-3.815 2.32v-1.515h-2.044v3.932h-4.434v-1.588h1.42l-3.317-2.59v-2.102h-1.269v1.164l-3.184-2.331-7.907 5.86h1.47v3.83h-3.408v3.134h-3.746v-2.049h-2.456V54.15h1.285c-3.864-2.453-7.05-3.888-11.456-6.082l-6.26 3.256v-2.43h-1.962v3.376l-3.042 1.88h1.33v8.598h-2.795v-5.765h-2.34v-6.166h1.327l-7.198-4.099-6.459 4.099h1.334v6.166h-6.113V50.59h1.563s-8.595-6.19-9.05-6.19l-3.7 2.442v-1.736h-1.784v2.814l-3.66 2.67h1.718v12.75h-3.586v-5.549h1.533l-1.533-3.122h-5.415v-4.986h1.876l-10.716-7.917-3.804 2.597v-1.6h-2.602v3.377l-4.538 3.543h1.878v2.427l-7.057-1.658v-4.141h1.85l-7.904-14.568v-1.111h.535l-.006-.722h-.53v-.674h-.874v.674h-.584l-.006.722h.59v1.111l-7.404 14.568h1.813v9.81h-3.815V51.29h1.76l-17.498-7.053v-9.092h1.49l-7.698-5.57-2.832 2.049v-1.827h-1.932v3.213l-2.839 2.135h1.452v17.992l-4.467 2.593V19.724h-1.57v-3.9h-1.363v-2.658h-7.35v2.658h-1.354v3.9h-1.579v25.582h-2.114v-2.23h-2.84v1.087h-3.44v1.143h-2.718V22.898h1.532v-2.48h-1.532v-1.636h-8.938v1.636h-1.386v2.48h1.386v7.246h-2.04V27.05h-1.704v3.094l-7.474-4.286-7.194 3.46v-1.964h-2.089v2.79l-4.308 2.38h1.123v10.5l-5.154-3.972-5.257 4.024V29.37h1.094v-2.054h-4.568v-1.104h-8.604v1.104h-1.245v2.054h1.245v30.794l-3.422-1.626v-6.255h-10.71v-15.62h1.627l-3.31-2.136v-1.919h-1.4v1.208l-2.347-1.392-6.749 4.24h1.505v11.314h-6.266v-7.625h1.2l-6.4-4.172-6.335 4.172h1.163V63.34h-3.453v-3.776h.988c-1.014-1.97-1.937-1.85-3.139-1.92h-3.052l-5.913-5.378v-10.15h1.511l-2.647-2.307v-2.877h-1.838v1.63l-3.177-2.34-7.734 5.894h1.454v6.616h-4.336v-4.066h-2.166v1.332l-3.436-2.22-9.008 6.516h1.261v5.922h-6.16v-5.922c.327-.047 1.245 0 1.245 0-.399-1.263-.171-1.284-1.245-1.315-.268 0-.807-1.075-1.207-1.184-1.155-.316-2.448.017-2.883-.48-.918-1.048-1.882-1.048-2.858 0-.39.417-1.615.126-2.665.48-.522.176-1.054 1.166-1.312 1.184-.851-.013-1.08.095-1.185 1.315h1.185v3.776h-4.085v3.443h-2.815v-1.438h-2.074v-2.822h1.623l-7.815-5.673-2.985 2.203v-1.395H59.01v2.34l-3.113 2.525h1.611v2.822h-8.793v-3.86h-1.806v1.465l-4.09-2.655-8.559 6.552h1.562v6.294h-4.023v-13.51h1.872l-10.204-7.579-3.672 2.614v-1.81h-2.189v3.283l-4.344 3.492h1.763v5.603H8.736v1.74H2.908V53.54L0 53.61v15.71h508v-7.805z" fill="#fff"/></svg>