<svg xmlns="http://www.w3.org/2000/svg" width="178" height="178" viewBox="0 0 178 178"><path d="M89 3c47.496 0 86 38.503 86 86 0 47.496-38.504 86-86 86S3 136.496 3 89C3 41.503 41.504 3 89 3z" fill="none" stroke="#fff" stroke-width="6"/><path d="M105.506 107.174a3 3 0 1 1 0-6 9 9 0 0 0 9-9 8.967 8.967 0 0 0-3.634-7.213l-.04-.03a8.782 8.782 0 0 0-.6-.406l-.097-.06a9.58 9.58 0 0 0-.588-.325 8.569 8.569 0 0 0-.167-.08 9.372 9.372 0 0 0-.56-.25l-.253-.091a9.032 9.032 0 0 0-.519-.175c-.116-.034-.236-.062-.354-.091-.152-.038-.303-.08-.457-.11-.162-.03-.328-.051-.493-.074-.119-.016-.236-.04-.356-.05a9.169 9.169 0 0 0-.882-.045c-.094 0-.185.01-.278.014a17.174 17.174 0 0 0-.342-1.512c-.034-.121-.079-.237-.114-.357a16.576 16.576 0 0 0-.364-1.111c-.04-.11-.092-.215-.135-.324-.148-.37-.3-.737-.473-1.093-.042-.086-.09-.168-.133-.253a16.822 16.822 0 0 0-.599-1.097c-2.967-4.95-8.37-8.267-14.562-8.267s-11.595 3.318-14.562 8.267c-.215.356-.41.724-.599 1.097-.043.085-.09.167-.133.253-.172.356-.325.723-.473 1.093-.043.109-.094.214-.135.324-.137.363-.252.736-.364 1.11-.036.12-.08.237-.114.358-.136.496-.25.999-.342 1.512-.093-.003-.184-.014-.278-.014-.298 0-.592.017-.882.045-.12.01-.237.034-.356.05-.165.023-.33.044-.493.075-.154.03-.305.07-.457.109-.118.029-.238.057-.354.09a9.032 9.032 0 0 0-.519.176c-.084.03-.169.06-.252.092a9.07 9.07 0 0 0-.56.249 8.569 8.569 0 0 0-.168.08 9.58 9.58 0 0 0-.588.326l-.096.059a8.782 8.782 0 0 0-.6.406l-.04.03a8.967 8.967 0 0 0-3.634 7.213 9 9 0 0 0 9 9 3 3 0 1 1 0 6c-8.285 0-15-6.716-15-15 0-6.758 4.47-12.468 10.612-14.345 3.34-8.57 11.635-14.655 21.387-14.655s18.048 6.086 21.387 14.655c6.143 1.877 10.613 7.587 10.613 14.345 0 8.284-6.716 15-15 15zm-28.23-7.007l.006-.006.006-.007 8.988-9.987.008.007c.55-.61 1.337-1 2.222-1s1.673.39 2.222 1l.008-.007 8.99 9.989.002.002.008.009c.418.465.693 1.06.756 1.72v.006c.01.092.014.185.014.279v.002a3 3 0 0 1-3 3c-.033 0-.065-.002-.097-.003l-.06-.001a1.336 1.336 0 0 1-.063-.005l-.1-.008-.034-.005a2.986 2.986 0 0 1-.132-.018h-.002a3 3 0 0 1-1.742-.953l-3.77-4.19v15.183a3 3 0 1 1-6 0V99.992l-3.77 4.189a2.996 2.996 0 0 1-1.74.952h-.004a2.898 2.898 0 0 1-.13.019l-.036.005-.098.008-.065.005h-.057c-.034.002-.067.004-.1.004a3 3 0 0 1-2.23-5.007z" fill="#fff" fill-rule="evenodd"/></svg>