<svg xmlns="http://www.w3.org/2000/svg" width="178" height="178" viewBox="0 0 178 178"><path d="M89.733 3.2c47.496 0 86 38.502 86 86 0 47.495-38.504 86-86 86s-86-38.505-86-86c0-47.498 38.504-86 86-86z" fill="none" stroke="#fff" stroke-width="6"/><path d="M103.452 61.857c-5.398 0-9.725 1.933-13.542 5.738l-.006.006-.002.002-2.169 2.722-2.169-2.559-.007-.007h-.001c-3.817-3.806-8.144-5.902-13.542-5.902a20.112 20.112 0 0 0-14.291 5.901c-3.816 3.806-5.919 8.865-5.919 14.247 0 5.38 2.1 10.436 5.913 14.242l26.827 26.97a4.501 4.501 0 0 0 6.378 0l26.825-26.969c3.814-3.805 5.915-8.863 5.915-14.242 0-5.382-2.102-10.442-5.919-14.248a20.113 20.113 0 0 0-14.29-5.9z" fill="#fff" fill-rule="evenodd"/></svg>