<svg xmlns="http://www.w3.org/2000/svg" width="21" height="20"><defs><filter id="a"><feFlood flood-color="#C8C8C8" flood-opacity="1" result="floodOut"/><feComposite operator="atop" in="floodOut" in2="SourceGraphic" result="compOut"/><feBlend in="compOut" in2="SourceGraphic"/></filter></defs><path fill-rule="evenodd" fill="#FFF" d="M18.455 20H3.182C1.776 20 .636 18.881.636 17.5v-15c0-1.381 1.14-2.5 2.546-2.5h15.273C19.86 0 21 1.119 21 2.5v15c0 1.381-1.14 2.5-2.545 2.5zM10.818 6.125a3.948 3.948 0 0 0-3.578 2.25h-.004l-.017.043a3.66 3.66 0 0 0-.102.251c-.015.04-.032.08-.046.121a3.373 3.373 0 0 0-.075.266c-.011.041-.024.082-.033.125-.021.094-.035.19-.049.287-.005.039-.014.078-.018.117a3.805 3.805 0 0 0-.023.415c0 2.14 1.766 3.875 3.945 3.875S14.764 12.14 14.764 10c0-.14-.009-.278-.024-.415-.004-.039-.012-.078-.018-.117a3.816 3.816 0 0 0-.048-.287c-.01-.043-.023-.084-.033-.125a3.87 3.87 0 0 0-.076-.266c-.014-.041-.03-.081-.045-.121a3.67 3.67 0 0 0-.103-.251l-.017-.043h-.004a3.947 3.947 0 0 0-3.578-2.25zm7.891-2.875c0-.553-.456-1-1.018-1h-2.037c-.562 0-1.018.447-1.018 1v2c0 .552.456 1 1.018 1h2.037a1.01 1.01 0 0 0 1.018-1v-2zm0 5.125h-1.877A6.01 6.01 0 0 1 17.054 10c0 3.383-2.792 6.125-6.236 6.125S4.582 13.383 4.582 10c0-.563.077-1.108.222-1.625H2.927v8.375c0 .552.456 1 1.018 1h13.746a1.01 1.01 0 0 0 1.018-1V8.375z" filter="url(#a)"/></svg>