<svg xmlns="http://www.w3.org/2000/svg" width="14" height="21"><defs><filter id="a"><feFlood flood-color="#323232" flood-opacity="1" result="floodOut"/><feComposite operator="atop" in="floodOut" in2="SourceGraphic" result="compOut"/><feBlend in="compOut" in2="SourceGraphic"/></filter></defs><path fill-rule="evenodd" fill="#FFF" d="M5.599.965l.993 2.073c.346.723.108 1.652-.532 2.076l-1.159.767a.578.578 0 0 0-.2.707l2.012 4.2 2.082 4.344c.058.12.163.216.288.271.205.093 1.063-.013 1.883-.075l.234-.018c.819-.062 1.732.486 2.039 1.224l.638 1.534c.308.739.021 1.728-.702 2.106-5.286 2.763-7.302-2.288-7.302-2.288l-2.649-5.528L.645 6.974s-2.68-4.753 2.91-6.881c.764-.291 1.698.15 2.044.872z" filter="url(#a)"/></svg>