<svg xmlns="http://www.w3.org/2000/svg" width="80" height="18" viewBox="0 0 80 18"><path fill="#cbcccd" d="M63.8 8.7c-1.1 0-1.5.6-1.5 1.4v2.8c0 .8.4 1.4 1.5 1.4s1.5-.6 1.5-1.4v-2.8c0-.8-.4-1.4-1.5-1.4zm15.8 8.2H76l-3-5.1v5.1h-3.3V1.6L73 1v9.9l3-4.8h3.6l-3.3 5.3 3.3 5.5zm-10.9-4.3c0 2.3-.9 4.5-4.9 4.5-3.9 0-4.9-2.2-4.9-4.5v-2.2c0-2.3 1-4.5 4.9-4.5 3.9 0 4.9 2.2 4.9 4.5v2.2zm-10.7 0c0 2.3-.9 4.5-4.9 4.5-3.9 0-4.9-2.2-4.9-4.5v-2.2c0-2.3 1-4.5 4.9-4.5 3.9 0 4.9 2.2 4.9 4.5v2.2zm-10.8-.1c0 2.6-.8 4.6-5.3 4.6-1.6 0-2.6-.1-4.4-.4v-15l3.3-.7v5.3c.7-.3 1.7-.4 2.5-.4 3.3 0 3.9 1.5 3.9 3.9v2.7zm-10.8 0h-6.1v.2c0 1.3.5 1.6 2 1.6 1.3 0 2.2-.1 3.9-.4v2.7c-1.7.3-2.5.4-4.2.4-3.6 0-5-1.9-5-4.6v-2.2c0-2.4 1.1-4.3 4.7-4.3 3.7 0 4.7 1.9 4.7 4.3v2.3zM25.9 9c-1.7-.3-2.2-.4-3.1-.4-1.5 0-2 .3-2 1.6v2.4c0 1.3.5 1.6 2 1.6.8 0 1.3-.1 3.1-.4v2.7c-1.5.3-2.5.4-3.3.4-3.6 0-5-1.9-5-4.6v-2c0-2.7 1.4-4.6 5-4.6.8 0 1.8.1 3.3.4V9zm-9.5 7.9h-2.8l-.1-.7c-1.3.7-2.4.8-3.2.8-2 0-3.1-1.4-3.1-3.2 0-2.2 1.3-3 3.5-3H13v-.5c0-1.1-.1-1.5-1.9-1.5H8.4L8.7 6h3.1c3.8 0 4.7 1.2 4.7 4.3v6.6zM5 16.9H1.7V8.8H0V6.1h1.7V4.4c0-2.3.9-3.6 3.6-3.6h2.2v2.8H6.1c-1-.1-1.1.3-1.1 1.1v1.4h2.5l-.3 2.7H5v8.1zm48.1-8.2c-1.1 0-1.5.6-1.5 1.4v2.8c0 .8.4 1.4 1.5 1.4s1.5-.6 1.5-1.4v-2.8c0-.8-.4-1.4-1.5-1.4zm-42.5 5.1c0 .6.3.9.9.9.7 0 1.1-.2 1.6-.5V13h-1.5c-.7 0-1 .2-1 .8zm21-5.4c-1.1 0-1.4.6-1.4 1.4v.4H33v-.4c0-.8-.2-1.4-1.4-1.4zm10.9.3c-.7 0-1.2.2-1.7.5v5.1H42c1.6 0 1.9-.7 1.9-1.8V10c0-.7-.3-1.3-1.4-1.3z"/></svg>