<svg xmlns="http://www.w3.org/2000/svg" width="80" height="28" viewBox="0 0 80 28"><path fill="#cbcccd" class="st0" d="M27.4 6.7c-3.8 0-6.8 2.9-6.9 6.5 0 4 3.6 6.8 7.7 6.4 3.4-.4 6.2-3.4 6-6.7-.2-3.3-2.5-6.2-6.8-6.2zm1.3 11.9c-2.3.5-4.7-1.4-5.3-4.5-.7-3.5.4-5.8 2.6-6.4 2.5-.7 5.1 1.9 5.5 5.6.2 2.5-.6 4.7-2.8 5.3zm20.1-5.7c-.2-3.3-2.4-6.2-6.7-6.2-3.7 0-6.7 2.9-6.8 6.5 0 4 3.6 6.8 7.6 6.4 3.4-.4 6.1-3.4 5.9-6.7zm-5.4 5.7c-2.3.5-4.6-1.4-5.2-4.5-.7-3.5.4-5.8 2.6-6.4 2.5-.7 5 1.9 5.4 5.6.2 2.5-.6 4.7-2.8 5.3zm-31.7-4.1l4.1-.1V18c0 .5 0 .6-.8.9-1.2.3-2.5.4-3.7.3-4.1-.3-7.3-3.6-8-7.7-.7-3.9 1.1-7.5 4.2-9 1.5-.7 3.3-1.1 5.2-.5 1.2.3 2.3 1 3.3 2l-.7 1.2 1.3-.3 2-2C15.3.1 9.6-.2 5.8 1.7 2.5 3.4.1 6.7 0 10.4c-.1 3.9 2.1 7 4.4 8.5 3.8 2.6 10.3 2 14.2 0v-4.5l.9-1.1h-5.7l-2.1 1.2zm54.7 2.7c0-5-.1-10.1.1-15.1 0-.5 0-.9.2-1.2.2-.3.4-.5.9-.8h-3.7c-.8.3-1.4.9-2.1 1.3H64c-.3 5-.1 10.1-.1 15.3 0 1.6-.3 2-.9 2.6h4.7c.3-.2.7-.7 1-.9-1.7 0-2.3.2-2.3-1.2zm13.2.7c-.8.4-2 .6-2.9.6-1.9 0-3.4-1.3-4.4-2.8-.6-1-1-2.1-1.1-3.3-.2-1.9.3-4 2.4-4.5 1.4-.3 2.7.4 3.2 1.8.2.6.1.9-.5 1.2l-5 2.1 1.7.1c2-1 4.3-1.8 6.3-2.7.4-.2.5-.2.3-.6-.9-2.5-4.2-3.9-7.1-2.7-2.2.9-3.9 3.3-3.9 6 0 3.6 2.6 6.8 6.1 6.8 1.6 0 2.7-.2 3.8-.9.2-.2 1.4-1.2 1.5-1.4 0 0-.2.1-.4.3zM62.5 7c-2.3 0-4.4 0-6.7-.1-2.3 0-4.3 1-5.2 3-.4.9-.6 2.1-.3 3.2.6 2.2 2.8 3.6 5 3.3.2 0 .3-.1.2.1-.5.9-.1 2.2.8 2.8-.7-.1-1.3-.1-2.1 0-2.7.3-5.7 1.7-5.5 4.6.2 2.2 2.4 3.9 6 3.9 2.8 0 5.6-.9 6.7-3 1.2-2.1.5-4.3-1.3-5.7-.9-.6-2.3-1.4-2.2-2.6.1-.5.3-.9.9-1.2 1-.5 1.7-1.3 2-2.2.4-1 .3-2 0-2.9-.3-.9-.9-1.7-1.7-2.2h1.8l1.6-1zm-2.7 17.1c-.2 1.4-1.5 2.4-3.7 2.6-2.4.1-5.6-.8-5-3.9.3-1.7 2.5-2.5 4.4-2.6.6-.2 1.1-.1 1.6-.1.3.2.5.4.8.6 1.6 1 2.1 2.2 1.9 3.4zm-3-8.5c-1.6.4-3.4-.8-3.9-3-.6-2.5 0-4 1.5-4.5 1.7-.6 3.6 1.1 4.1 3.7.3 1.7-.2 3.4-1.7 3.8z"/></svg>