<svg xmlns="http://www.w3.org/2000/svg" width="80" height="24" viewBox="0 0 80 24"><path fill="#cbcccd" d="M43 16.1c-1.2 0-2.3-1.1-2.3-2.5s1-2.5 2.3-2.5c1.2 0 2.3 1.1 2.3 2.5-.1 1.4-1.1 2.5-2.3 2.5zm.6-7c-1.4 0-2.3.5-2.9 1.3V9.3h-2.2v11.1h2.2v-3.6c.6.7 1.4 1.3 2.6 1.3 2 0 4-1.6 4-4.4.2-3-1.8-4.6-3.7-4.6zm9 7c-1.3 0-2.4-1.1-2.4-2.5s1.1-2.5 2.4-2.5c1.3 0 2.4 1.1 2.4 2.5s-1 2.5-2.4 2.5zm.1-7c-2.6 0-4.6 2-4.6 4.5s2 4.4 4.6 4.4c2.6 0 4.6-2 4.6-4.5-.1-2.4-2-4.4-4.6-4.4zm13.5-2.2c0 .8-.6 1.4-1.4 1.4-.8 0-1.4-.6-1.4-1.4 0-.8.6-1.4 1.4-1.4.8 0 1.4.6 1.4 1.4zm3.9 2.4v-.4c0-.6.5-.9 1.1-.9.4 0 .8.1 1.1.2v-2c-.5-.1-1-.2-1.8-.2-.9 0-1.5.2-1.9.7-.5.4-.7 1.1-.7 2.1v.5h-1.1v1.9h1v6.6h2.3v-6.6h1.8l2.7 6.5c-.2.5-.6.8-1 .8-.3 0-.8-.2-1.1-.4l-.8 1.7c.6.4 1.5.6 2.3.6 1.5 0 2.3-1.3 2.5-2L80 9.3h-2.3l-2.1 5.8-2.3-5.8h-3.2zm-6.4 0h2.2v8.5h-2.2V9.3zm-5.3 6.1v-4.2h-1.1v-2h1.1V7h2.2v2.3h2.2v2h-2.2v3.9c0 .7.4.9 1 .9.4 0 .9-.1 1.2-.3v1.9c-.5.3-1.1.5-1.9.5-1.5-.2-2.5-.8-2.5-2.8zm-29.4.8l1.5-1.8c1 .8 2.1 1.4 3.3 1.4 1 0 1.6-.4 1.6-1.1 0-.6-.4-1-2.3-1.4-2.3-.6-3.7-1.2-3.7-3.5 0-2 1.6-3.4 3.9-3.4 1.6 0 3 .5 4.2 1.4l-1.3 1.9c-1-.7-2-1.1-2.9-1.1-.9 0-1.4.4-1.4 1 0 .7.5 1 2.4 1.5 2.3.6 3.5 1.4 3.5 3.4 0 2.2-1.7 3.5-4.1 3.5-1.7 0-3.4-.6-4.7-1.8zm-10.4-5.6c-.5-.3-1-.5-1.6-.8-1.1-.4-2.2-.7-3.3-.9l-2.4-.3c-.8 0-1.7-.1-2.5 0-.9.1-1.8.2-2.8.4-.3.1-.6.2-1 .3-.2.1-.4.1-.6 0-.5-.1-.8-.5-.8-1s.3-.9.7-1c.4-.2.7-.3 1-.4.9-.2 1.7-.3 2.6-.4.9-.1 1.8-.1 2.7-.1 2.2.1 4.4.4 6.6 1.1.9.3 1.7.7 2.5 1.1.3.2.5.4.5.7v.2c.1 1-.8 1.5-1.6 1.1zm-.1 3.3c-.3.4-.8.6-1.2.3-.3-.1-.5-.3-.8-.4-1.2-.6-2.4-1-3.7-1.2-1-.2-2-.3-3.1-.3-1.3 0-2.7.2-4 .6-.2.1-.4.1-.7 0-.3-.1-.6-.5-.6-.9s.2-.7.6-.8c.4-.1.8-.2 1.1-.3.9-.2 1.9-.3 2.9-.4 2.1-.1 4.1.2 6.1.8 1 .3 2 .7 2.9 1.3l.1.1c.6.2.6.8.4 1.2zM17.1 17c-.2.3-.6.4-.9.3-.1 0-.1-.1-.2-.1-1.2-.7-2.6-1.2-4-1.4-.9-.1-1.7-.2-2.6-.1-1.1 0-2.3.2-3.4.4h-.3c-.3 0-.6-.2-.7-.6-.1-.3.1-.7.4-.8.1 0 .1 0 .2-.1.9-.2 1.8-.4 2.8-.4.5 0 1-.1 1.6-.1 1.5 0 3 .2 4.5.7.8.3 1.6.6 2.3 1.1.1 0 .1.1.2.1.2.3.2.7.1 1zM11.7.4C5.2.4 0 5.6 0 12c0 6.4 5.2 11.6 11.7 11.6 6.5 0 11.7-5.2 11.7-11.6C23.4 5.6 18.2.4 11.7.4z"/></svg>