<svg width="64" height="64" viewBox="0 0 64 64" fill="none" xmlns="http://www.w3.org/2000/svg"><path d="M61.051 30.778V56.258C61.051 57.612 59.953 58.709 58.601 58.709H5.39503C4.04103 58.709 2.94403 57.612 2.94403 56.258V30.778" stroke="#7394B3" stroke-width="1.4982" stroke-miterlimit="10" stroke-linecap="round"/><path d="M28.393 33.099C19.531 32.922 10.678 32.091 1.90801 30.606C1.38201 30.517 0.997009 30.059 0.997009 29.525C0.997009 24.762 0.997009 20 0.997009 15.237C0.997009 13.883 2.09501 12.786 3.44801 12.786H60.546C61.9 12.786 62.997 13.884 62.997 15.237V29.525C62.997 30.058 62.612 30.517 62.086 30.606C53.316 32.09 44.463 32.921 35.601 33.099" stroke="#7394B3" stroke-width="1.4982" stroke-miterlimit="10" stroke-linecap="round"/><path d="M34.807 29.531H29.189C28.75 29.531 28.394 29.887 28.394 30.326V35.943C28.394 36.382 28.75 36.738 29.19 36.738H34.808C35.246 36.738 35.602 36.383 35.602 35.943V30.326C35.601 29.887 35.245 29.531 34.807 29.531Z" stroke="#7394B3" stroke-width="1.4982" stroke-miterlimit="10" stroke-linecap="round"/><path d="M30.843 33.135H33.151" stroke="#344154" stroke-width="1.4982" stroke-miterlimit="10" stroke-linecap="round"/><path d="M28.393 39.795H35.601" stroke="#7394B3" stroke-width="1.4982" stroke-miterlimit="10" stroke-linecap="round"/><path d="M45.51 12.787V7.69001C45.51 6.10601 44.226 4.82001 42.64 4.82001H21.354C19.769 4.82001 18.483 6.10601 18.483 7.69001V12.786" stroke="#7394B3" stroke-width="1.4982" stroke-miterlimit="10" stroke-linecap="round"/><path d="M22.699 12.787V8.93101C22.699 8.75601 22.848 8.61401 23.032 8.61401H40.96C41.145 8.61401 41.294 8.75601 41.294 8.93101V12.787" stroke="#7394B3" stroke-width="1.4982" stroke-miterlimit="10" stroke-linecap="round"/><path d="M5.44 49.883C5.44 51.993 5.44 54.104 5.44 56.213C23.144 56.213 40.849 56.213 58.553 56.213C58.553 54.104 58.553 51.993 58.553 49.883C40.877 51.274 23.117 51.274 5.44 49.883Z" fill="#FFC501"/></svg>