<svg width="64" height="64" viewBox="0 0 64 64" fill="none" xmlns="http://www.w3.org/2000/svg"><path d="M38.965 43.878C28.217 43.878 22.759 40.128 22.741 32.734C22.734 29.395 23.898 25.985 26.019 23.132L32.752 14.076H45.177L51.911 23.132C54.032 25.986 55.196 29.396 55.188 32.734C55.17 40.128 49.712 43.878 38.965 43.878Z" fill="#FFC501"/><path d="M52.9489 42.783C56.5889 40.07 57.6139 36.21 57.6219 32.74C57.6319 28.75 56.2439 24.882 53.8639 21.68L46.3999 11.643H38.9639H31.5269L24.0649 21.68C21.6839 24.882 20.2969 28.75 20.3069 32.74C20.3159 36.577 21.5689 40.891 26.2249 43.605" stroke="#7394B3" stroke-width="1.4602" stroke-miterlimit="10"/><path d="M46.821 8.64499H31.108C30.474 8.64499 29.954 9.16499 29.954 9.79899V10.488C29.954 11.123 30.475 11.643 31.108 11.643H46.821C47.457 11.643 47.975 11.123 47.975 10.488V9.79899C47.976 9.16499 47.457 8.64499 46.821 8.64499Z" stroke="#7394B3" stroke-width="1.4602" stroke-miterlimit="10"/><path d="M44.141 2.00899L42.693 3.45599L42.056 2.81999C40.396 1.15899 37.703 1.15899 36.043 2.81999L35.407 3.45599L33.959 2.00899C32.614 0.663994 30.435 0.663994 29.09 2.00899L27.297 3.80199L32.294 8.64499H39.05H45.807L50.803 3.80199L49.009 2.00899C47.665 0.663994 45.485 0.663994 44.141 2.00899Z" stroke="#7394B3" stroke-width="1.4602" stroke-miterlimit="10"/><path d="M32.546 51.36H35.15C37.636 51.36 40.066 50.614 42.123 49.217L44.025 47.926C44.339 47.714 44.448 47.283 44.238 46.968C43.933 46.51 43.546 46.184 43.148 45.952C42.216 45.409 41.077 45.456 40.108 45.93C36.584 47.652 33.441 46.199 33.441 46.199C32.299 45.483 31.207 44.928 30.172 44.504C25.818 42.719 20.843 43.385 17.01 46.113" stroke="#7394B3" stroke-width="1.4602" stroke-miterlimit="10"/><path d="M17.01 55.264C17.01 55.264 22.898 54.121 33.197 54.708C35.914 54.862 38.623 54.254 41.03 52.983L56.691 44.721C57.032 44.54 57.123 44.098 56.884 43.793C56.323 43.075 55.048 42.08 52.495 42.754C52.206 42.831 51.925 42.94 51.649 43.058L43.769 46.417" stroke="#7394B3" stroke-width="1.4602" stroke-miterlimit="10"/><path d="M11.058 59.036H16.852V44.09H11.058" stroke="#7394B3" stroke-width="1.4602" stroke-miterlimit="10"/><path d="M11.058 39.72H1V63H11.058V39.72Z" fill="#7394B3"/><path d="M35.636 35.659V21.499H39.956C41.543 21.499 42.782 21.823 43.676 22.469C44.57 23.116 45.016 24.106 45.016 25.439C45.016 26.799 44.546 27.806 43.607 28.459C42.667 29.113 41.417 29.439 39.857 29.439H37.617V35.659H35.636ZM37.616 27.759H39.716C41.916 27.759 43.016 26.986 43.016 25.439C43.016 23.933 41.929 23.179 39.756 23.179H37.616V27.759Z" fill="#3F4046"/><path d="M42.813 31.028H33.375V32.996H42.813V31.028Z" fill="#3F4046"/></svg>