<svg width="64" height="64" viewBox="0 0 64 64" fill="none" xmlns="http://www.w3.org/2000/svg"><path d="M28.886 40.273C35.0241 40.273 40 35.2971 40 29.159C40 23.0209 35.0241 18.045 28.886 18.045C22.7479 18.045 17.772 23.0209 17.772 29.159C17.772 35.2971 22.7479 40.273 28.886 40.273Z" fill="#FFC501"/><path d="M24.808 14.388C18.643 16.088 13.965 21.569 13.59 28.307C13.473 30.406 13.785 32.429 14.447 34.291" stroke="#7394B3" stroke-width="1.5714" stroke-linecap="round" stroke-linejoin="round"/><path d="M28.887 29.875C29.2825 29.875 29.603 29.5544 29.603 29.159C29.603 28.7636 29.2825 28.443 28.887 28.443C28.4916 28.443 28.171 28.7636 28.171 29.159C28.171 29.5544 28.4916 29.875 28.887 29.875Z" stroke="#7394B3" stroke-width="1.5714" stroke-miterlimit="10" stroke-linecap="round" stroke-linejoin="round"/><path d="M28.887 11.562V29.159L14.99 39.67" stroke="#7394B3" stroke-width="1.5714" stroke-miterlimit="10" stroke-linecap="round" stroke-linejoin="round"/><path d="M36.729 55.235C34.245 55.981 31.613 56.382 28.887 56.382C13.851 56.382 1.664 44.194 1.664 29.158C1.664 14.122 13.851 1.936 28.887 1.936C43.922 1.936 56.11 14.124 56.11 29.16C56.11 31.359 55.848 33.497 55.356 35.545" stroke="#7394B3" stroke-width="1.5714" stroke-miterlimit="10" stroke-linecap="round" stroke-linejoin="round"/><path d="M1.664 29.159H5.347" stroke="#7394B3" stroke-width="1.5714" stroke-miterlimit="10" stroke-linecap="round" stroke-linejoin="round"/><path d="M52.426 29.159H56.109" stroke="#7394B3" stroke-width="1.5714" stroke-miterlimit="10" stroke-linecap="round" stroke-linejoin="round"/><path d="M28.887 1.936V5.619" stroke="#7394B3" stroke-width="1.5714" stroke-miterlimit="10" stroke-linecap="round" stroke-linejoin="round"/><path d="M28.887 52.698V56.383" stroke="#7394B3" stroke-width="1.5714" stroke-miterlimit="10" stroke-linecap="round" stroke-linejoin="round"/><path d="M48.763 62.023C56.5281 62.023 62.823 55.7281 62.823 47.963C62.823 40.1979 56.5281 33.903 48.763 33.903C40.9979 33.903 34.703 40.1979 34.703 47.963C34.703 55.7281 40.9979 62.023 48.763 62.023Z" stroke="#7394B3" stroke-width="1.5714" stroke-miterlimit="10" stroke-linecap="round" stroke-linejoin="round"/><path d="M44.421 52.2473C43.125 52.2473 42.053 51.8273 41.205 50.9873C40.357 50.1473 39.933 49.0753 39.933 47.7713C39.933 46.4593 40.353 45.3913 41.193 44.5673C42.041 43.7353 43.117 43.3193 44.421 43.3193C45.725 43.3193 46.801 43.7353 47.649 44.5673C48.505 45.3913 48.933 46.4593 48.933 47.7713C48.933 49.0753 48.505 50.1473 47.649 50.9873C46.801 51.8273 45.725 52.2473 44.421 52.2473ZM44.421 51.1793C45.389 51.1793 46.169 50.8553 46.761 50.2073C47.353 49.5513 47.649 48.7393 47.649 47.7713C47.649 46.8113 47.353 46.0033 46.761 45.3473C46.169 44.6913 45.389 44.3633 44.421 44.3633C43.469 44.3633 42.697 44.6913 42.105 45.3473C41.513 46.0033 41.217 46.8113 41.217 47.7713C41.217 48.7393 41.513 49.5513 42.105 50.2073C42.697 50.8553 43.469 51.1793 44.421 51.1793ZM50.5486 52.0313V43.5353H51.7366V47.2793H51.7606L55.5526 43.5353H57.1966L53.0686 47.4233L57.4486 52.0313H55.7446L51.7606 47.6393H51.7366V52.0313H50.5486Z" fill="#FFC501"/></svg>