<svg width="96" height="96" viewBox="0 0 96 96" fill="none" xmlns="http://www.w3.org/2000/svg">
<path d="M0 0H96V96H0V0Z" fill="white"/>
<path d="M69.8 66.6C65.8 59.4 61.8 54.8 58.2 52.8C54.6 50.6 50.4 50.8 45.6 53.6C43.8 54.6 42 55.8 40.2 57.2C38.2 58.6 36.8 59.8 36 60.6L56.2 96H86.6L69.8 66.6Z" fill="black"/>
<path d="M84.2 31.4C81.8 32.8 79.6 34.6 77.8 36.8C76 38.8 74.8 40.6 74 42C76 43.8 77.8 45.8 79.4 48C81 50.2 82.6 52.8 84.2 55.6L96 76V30C92.6 28.4 88.8 29 84.2 31.4Z" fill="black"/>
<path d="M14 58.4C16.6 55.8 20 52.8 24.4 49.2C28.8 45.6 33.8 42.2 39.2 39.2C43.8 36.6 48 35 51.6 34.6C55.4 34 58.8 34.2 61.8 35.2C62.4 34 63.2 32.6 64.2 31C65.2 29.4 66.4 27.8 68 26.2C69.4 24.4 71 22.8 72.8 21.2C74.6 19.6 76.6 18.2 78.6 17C83.8 14 88.6 12.4 92.8 12C94 11.6 95 11.6 96 11.6V0H0V96H35.6L14 58.4Z" fill="black"/>
</svg>
