<svg xmlns="http://www.w3.org/2000/svg" width="124" height="135"><defs><filter filterUnits="userSpaceOnUse" id="a" x="0" y="0" width="124" height="135"><feOffset in="SourceAlpha" dy="5"/><feGaussianBlur result="blurOut" stdDeviation="2.236"/><feFlood flood-color="#000" result="floodOut"/><feComposite operator="atop" in="floodOut" in2="blurOut"/><feComponentTransfer><feFuncA type="linear" slope=".19"/></feComponentTransfer><feMerge><feMergeNode/><feMergeNode in="SourceGraphic"/></feMerge></filter></defs><path d="M75.838 4.991c11.531 5.901 19.841 10.546 30.618 16.531 10.43 5.195 12.551 11.569 12.527 24.682.001 11.887.036 21.074 0 34.459.044 13.371-2.616 15.57-13.216 22.493-9.908 5.765-18.666 10.805-29.929 17.13-9.881 6.41-18.219 6.148-27.234 0-11.011-5.974-18.962-10.548-29.929-17.13C8.08 96.687 4.219 91.745 4.033 79.073c.03-12.09-.098-20.749 0-32.869-.037-12.425 4.212-19.034 14.642-24.082 11.196-7.044 18.918-11.478 29.929-17.131 12.113-6.642 15.189-6.692 27.234 0z" fill-rule="evenodd" fill="#FFF" filter="url(#a)"/><path d="M62.142 82.25c-10.493 0-19-8.505-19-19 0-10.492 8.507-18.999 19-18.999s19 8.507 19 18.999c0 10.495-8.507 19-19 19zm0-35.623c-9.182 0-16.625 7.442-16.625 16.623 0 9.183 7.443 16.625 16.625 16.625s16.625-7.442 16.625-16.625c0-9.181-7.443-16.623-16.625-16.623zm.548 24.271c-.061.175-.15.34-.295.478a1.189 1.189 0 0 1-1.678-.056l-5.43-5.007a1.188 1.188 0 0 1 1.734-1.624l4.249 3.919 7.594-13.155a1.187 1.187 0 0 1 2.057 1.188z" fill="#404041" fill-rule="evenodd"/></svg>