<svg xmlns="http://www.w3.org/2000/svg" width="124" height="135"><defs><filter filterUnits="userSpaceOnUse" id="a" x="0" y="0" width="124" height="135"><feOffset in="SourceAlpha" dy="5"/><feGaussianBlur result="blurOut" stdDeviation="2.236"/><feFlood flood-color="#000" result="floodOut"/><feComposite operator="atop" in="floodOut" in2="blurOut"/><feComponentTransfer><feFuncA type="linear" slope=".19"/></feComponentTransfer><feMerge><feMergeNode/><feMergeNode in="SourceGraphic"/></feMerge></filter></defs><path d="M75.838 4.991c11.531 5.901 19.841 10.546 30.618 16.531 10.43 5.195 12.551 11.569 12.527 24.682.001 11.887.036 21.074 0 34.459.044 13.371-2.616 15.57-13.216 22.493-9.908 5.765-18.666 10.805-29.929 17.13-9.881 6.41-18.219 6.148-27.234 0-11.011-5.974-18.962-10.548-29.929-17.13C8.08 96.687 4.219 91.745 4.033 79.073c.03-12.09-.098-20.749 0-32.869-.037-12.425 4.212-19.034 14.642-24.082 11.196-7.044 18.918-11.478 29.929-17.131 12.113-6.642 15.189-6.692 27.234 0z" fill-rule="evenodd" fill="#FFF" filter="url(#a)"/><path d="M73.177 82.303H51.023c-2.719 0-4.923-2.237-4.923-4.999v-30c0-2.762 2.204-5 4.923-5h14.769c1.648-.026 2.303.036 2.462.036v-.036L78.1 52.305v24.999c0 2.762-2.204 4.999-4.923 4.999zm-4.923-37.499v5c0 1.38 1.102 2.501 2.461 2.501h4.924zm7.385 10h-4.924c-2.719 0-4.923-2.24-4.923-5 0 0-.057-2.006-.035-5H51.023c-1.359 0-2.461 1.119-2.461 2.5v30c0 1.38 1.102 2.5 2.461 2.5h22.154c1.359 0 2.462-1.12 2.462-2.5zm-6.154 17.499h-14.77a1.24 1.24 0 0 1-1.23-1.25c0-.69.551-1.249 1.23-1.249h14.77c.679 0 1.23.559 1.23 1.249a1.24 1.24 0 0 1-1.23 1.25zm0-7.499h-14.77a1.24 1.24 0 0 1-1.23-1.25c0-.69.551-1.25 1.23-1.25h14.77c.679 0 1.23.56 1.23 1.25s-.551 1.25-1.23 1.25z" fill="#404041" fill-rule="evenodd"/></svg>