<svg xmlns="http://www.w3.org/2000/svg" width="124" height="135"><defs><filter filterUnits="userSpaceOnUse" id="a" x="0" y="0" width="124" height="135"><feOffset in="SourceAlpha" dy="5"/><feGaussianBlur result="blurOut" stdDeviation="2.236"/><feFlood flood-color="#000" result="floodOut"/><feComposite operator="atop" in="floodOut" in2="blurOut"/><feComponentTransfer><feFuncA type="linear" slope=".19"/></feComponentTransfer><feMerge><feMergeNode/><feMergeNode in="SourceGraphic"/></feMerge></filter></defs><path fill-rule="evenodd" fill="#FFF" d="M75.838 4.991c11.531 5.901 19.841 10.546 30.618 16.531 10.43 5.195 12.551 11.569 12.527 24.682.001 11.887.036 21.074 0 34.459.044 13.371-2.616 15.57-13.216 22.493-9.908 5.765-18.666 10.805-29.929 17.13-9.881 6.41-18.219 6.148-27.234 0-11.011-5.974-18.962-10.548-29.929-17.13C8.08 96.687 4.219 91.745 4.033 79.073c.03-12.09-.098-20.749 0-32.869-.037-12.425 4.212-19.034 14.642-24.082 11.196-7.044 18.918-11.478 29.929-17.131 12.113-6.642 15.189-6.692 27.234 0z" filter="url(#a)"/><path d="M80.255 68.939h-7.5a1.25 1.25 0 0 1 0-2.5h7.5a1.25 1.25 0 1 1 0 2.5zm0-7.501h-10a1.249 1.249 0 1 1 0-2.5h10a1.249 1.249 0 1 1 0 2.5zm0-7.498h-10a1.252 1.252 0 0 1 0-2.501h10a1.25 1.25 0 1 1 0 2.501zm-11.25 17.498v5.001a7.5 7.5 0 0 1-7.5 7.5h-12.5a7.5 7.5 0 0 1-7.5-7.5v-5.001c0-3.282 2.124-6.043 5.062-7.059-1.601-2.159-2.562-4.925-2.562-7.939 0-6.905 5.037-12.501 11.25-12.501s11.25 5.596 11.25 12.501c0 3.014-.961 5.78-2.562 7.939 2.938 1.016 5.062 3.777 5.062 7.059zm-5-14.998c0-5.524-3.918-10-8.75-10-4.833 0-8.75 4.476-8.75 10 0 5.522 3.917 9.999 8.75 9.999 4.832 0 8.75-4.477 8.75-9.999zm2.5 15.624c0-2.658-2.017-4.872-4.72-5.46-1.842 1.465-4.092 2.335-6.53 2.335-2.438 0-4.688-.87-6.53-2.335-2.703.588-4.72 2.802-4.72 5.46v3.75c0 3.107 2.747 5.625 6.136 5.625h10.228c3.389 0 6.136-2.518 6.136-5.625zm6.25 1.875h7.5a1.25 1.25 0 1 1 0 2.5h-7.5a1.251 1.251 0 0 1 0-2.5z" fill="#404041" fill-rule="evenodd"/></svg>