<svg xmlns="http://www.w3.org/2000/svg" width="17" height="15"><defs><filter id="a"><feFlood flood-color="#B8B8B8" flood-opacity="1" result="floodOut"/><feComposite operator="atop" in="floodOut" in2="SourceGraphic" result="compOut"/><feBlend in="compOut" in2="SourceGraphic"/></filter></defs><path fill-rule="evenodd" fill="#B8B8B8" d="M14.344 3.765v2.662h-1.063V3.765h-2.656V2.677h2.656V.015h1.063v2.662H17v1.088h-2.656zM6.997 1.07c.943.536 1.495 1.406 1.495 2.543 0 .956-.575 1.709-1.316 2.293-.723.57-.861.809-.861 1.293 0 .414.775 1.118 1.181 1.407 1.184.844 1.534 1.629 1.534 2.938 0 1.633-1.534 3.457-4.373 3.457-2.49 0-4.657-1.223-4.657-2.856 0-1.658 1.983-3.258 4.472-3.258.272 0 .52-.012.778-.012-.341-.334-.61-.75-.61-1.255 0-.299.094-.601.227-.857-.136.01-.274-.013-.416-.013-2.045 0-3.415-1.517-3.415-3.335 0-1.779 1.892-3.416 3.902-3.416h4.484L8.419 1.07H6.997zm-2.05 8.24c-1.721-.019-3.263 1.058-3.263 2.351 0 1.32 1.243 2.284 2.964 2.284 2.419 0 3.263-.897 3.263-2.216 0-.159-.02-.315-.055-.467-.19-.746-.859-1.116-1.794-1.771a3.674 3.674 0 0 0-1.115-.181zM6.88 3.633C6.68 2.104 5.533.876 4.378.842c-1.155-.035-1.93 1.136-1.73 2.665.199 1.53 1.297 2.799 2.452 2.833 1.155.035 1.979-1.176 1.78-2.707z" filter="url(#a)"/></svg>