<?xml version="1.0" standalone="no"?>
<!DOCTYPE svg PUBLIC "-//W3C//DTD SVG 1.1//EN" "http://www.w3.org/Graphics/SVG/1.1/DTD/svg11.dtd" >
<svg xmlns="http://www.w3.org/2000/svg" xmlns:xlink="http://www.w3.org/1999/xlink" version="1.1">
<metadata>
Created by FontForge 20170731 at Sat Oct 31 22:44:00 2015
 By Aleksey,,,
(c) 1996-2012 Typodermic Fonts Inc. See attached license agreement. If agreement is missing visit typodermicfonts.com for more info.
</metadata>
<defs>
<font id="Foo-Regular" horiz-adv-x="1236" >
  <font-face 
    font-family="Foo"
    font-weight="400"
    font-stretch="normal"
    units-per-em="2048"
    panose-1="4 1 0 0 0 0 0 0 0 0"
    ascent="1460"
    descent="-588"
    x-height="1094"
    cap-height="1401"
    bbox="-4 -455 2099 1810"
    underline-thickness="40"
    underline-position="-332"
    unicode-range="U+000D-045F"
  />
<missing-glyph horiz-adv-x="748" 
d="M68 0v1365h544v-1365h-544zM136 68h408v1229h-408v-1229z" />
    <glyph glyph-name="copyright" unicode="&#x28;C&#x29;" horiz-adv-x="1572" 
d="M72 684q0 150 56 281t152.5 227t226.5 152.5t277 56.5q150 0 280 -56.5t227.5 -152.5t153.5 -227t56 -281q0 -147 -56 -276t-153.5 -225.5t-227.5 -153t-280 -56.5q-147 0 -277 56.5t-226.5 153t-152.5 225.5t-56 276zM266 684q0 -104 41 -198.5t111.5 -165t165 -111.5
t200.5 -41q109 0 203 41t165 111.5t111 165t40 198.5q0 109 -40 203t-111 163.5t-165 109.5t-203 40q-106 0 -200.5 -40t-165 -109.5t-111.5 -163.5t-41 -203zM471 674q0 70 25.5 131t70.5 107t108.5 73t141.5 27q66 0 96.5 -4t53.5 -13q6 -4 12 -28.5t9 -59.5t5 -77.5
t2 -81.5q0 -23 -22 -23q-12 0 -21.5 5t-48.5 5q-70 0 -108.5 -40t-38.5 -99q0 -55 37.5 -98t103.5 -43q29 0 39 5t20 5q18 0 19 -19v-27q0 -16 -4 -46q-2 -16 -46 -29.5t-98 -13.5q-68 0 -132 18.5t-113.5 60.5t-80 107.5t-30.5 157.5z" />
    <glyph glyph-name="registered" unicode="&#x28;R&#x29;" horiz-adv-x="1007" 
d="M72 963q0 88 33.5 166.5t93 138t137.5 93.5t168 34q88 0 167 -34t138 -93.5t93 -138t34 -166.5q0 -90 -34 -168t-93 -137.5t-138 -93.5t-167 -34q-90 0 -168 34t-137.5 93.5t-93 137t-33.5 168.5zM190 963q0 -66 25 -123.5t67 -99.5t99 -66.5t123 -24.5t122 24.5t98 66.5
t66.5 99.5t24.5 123.5t-24.5 122t-66.5 98t-98.5 66.5t-121.5 24.5q-66 0 -123 -24.5t-99 -66.5t-67 -98.5t-25 -121.5zM365 786v353q0 29 11 46t50 17h102q53 0 89 -30.5t36 -84.5q0 -74 -43 -96q27 -6 38 -24.5t11 -55.5v-131q0 -10 -10 -10h-78q-10 0 -10 14v113
q0 23 -12 32t-31 9h-16q-31 0 -37 25v-177q0 -12 -14 -12h-74q-12 0 -12 12zM465 997q6 27 37 27h14q20 0 30.5 13.5t10.5 35.5q0 45 -51 45h-41v-121z" />
    <glyph glyph-name=".notdef" horiz-adv-x="748" 
d="M68 0v1365h544v-1365h-544zM136 68h408v1229h-408v-1229z" />
    <glyph glyph-name="glyph1" horiz-adv-x="2048" 
 />
    <glyph glyph-name="glyph1" horiz-adv-x="2048" 
 />
    <glyph glyph-name="uni000D" unicode="&#xd;" horiz-adv-x="532" 
 />
    <glyph glyph-name="uni0017" horiz-adv-x="532" 
 />
    <glyph glyph-name="space" unicode=" " horiz-adv-x="532" 
 />
    <glyph glyph-name="exclam" unicode="!" horiz-adv-x="763" 
d="M72 1341q0 14 18 19q76 4 152.5 6t152.5 2q72 0 140.5 -2t138.5 -6q18 -1 18 -17q-12 -176 -21 -319t-14.5 -261t-7.5 -213t-2 -175q0 -16 -18 -17q-66 -4 -127 -4h-127h-126q-63 0 -126 4q-18 0 -19 17q0 147 -5 261t-11 221.5t-11 222t-5 261.5zM90 127q0 18 31 33
q76 35 151.5 71.5t145.5 81.5q8 4 21.5 10.5t21.5 6.5q18 0 47 -42t55.5 -95.5t46 -101.5t19.5 -58q0 -12 -17.5 -26.5t-27.5 -18.5q-80 -47 -160 -83t-166 -69q-16 -6 -22 -6q-16 0 -41 36t-48.5 85t-40 98t-16.5 78z" />
    <glyph glyph-name="quotedbl" unicode="&#x22;" horiz-adv-x="1228" 
d="M72 1364q0 16 33.5 18t111.5 2h58q38 0 74 -3t62.5 -8t26.5 -15q-4 -59 -11 -135t-15.5 -156t-13.5 -155.5t-5 -135.5q0 -14 -13 -17t-30 -3q-59 0 -115.5 1t-111.5 7q-18 2 -19 20q0 59 -5 138t-11 160t-11 156t-5 126zM789 1364q0 16 33.5 18t111.5 2h58q38 0 74 -3
t62.5 -8t26.5 -15q-4 -59 -11 -135t-15.5 -156t-13.5 -155.5t-5 -135.5q0 -14 -13 -17t-30 -3q-59 0 -115.5 1t-111.5 7q-18 2 -19 20q0 59 -5 138t-11 160t-11 156t-5 126z" />
    <glyph glyph-name="numbersign" unicode="#" horiz-adv-x="995" 
d="M25 918q0 18 14 18h119q-2 143 -3 238.5t-1 177.5q0 14 6 14h241q6 0 7 -14l-5 -416h162q0 129 -4 226.5t-4 189.5q0 14 10 14h240q8 0 8 -14q-2 -104 -3 -169t-2 -108t-1 -72v-67h143q16 0 17 -16v-13l-43 -196q-2 -16 -15 -17h-104v-24v-38q0 -22 -1 -39.5t-1 -23.5
h113q16 0 16 -12q0 -14 -4 -16l-39 -199q-6 -14 -17 -14h-71v-314q0 -16 -8 -16h-207q-4 0 -7 39t-4.5 93t-1.5 110v88h-178v-110q0 -58 -1 -107.5t-3 -81t-4 -31.5h-211q-2 0 -4 39t-3 93t-2 109.5t-1 88.5h-53q-8 0 -13 16l-22 205q0 20 14 20h70v23v40q0 21 -1 38.5
t-1 23.5h-96q-12 0 -17 17zM401 569h170l-2 125h-168v-125z" />
    <glyph glyph-name="dollar" unicode="$" horiz-adv-x="798" 
d="M57 844q0 129 51.5 223t143.5 145l-64 48q-10 6 -10 14q0 6 8 14q35 35 66 72t57 78q6 6 10 6q47 -20 87 -51t75 -66q4 -4 7.5 -6t3.5 -6q0 -8 -5 -12l-26 -43q39 4 66.5 5t52.5 1q61 0 82.5 -6.5t33.5 -16.5q23 -100 35 -204.5t17 -211.5q0 -20 -23 -20q-12 2 -19.5 3
t-15.5 1q-66 0 -92.5 -25.5t-26.5 -64.5q0 -29 23 -57q49 -66 74.5 -128.5t25.5 -148.5q0 -74 -29.5 -136.5t-95.5 -103.5q55 -31 66.5 -39t11.5 -12q0 -10 -15.5 -37.5t-37 -57.5t-44 -52.5t-36.5 -22.5q-2 0 -10 4q-63 41 -97 65.5t-50.5 37t-19.5 16.5t-3 6q0 8 10 21
q-16 -2 -30 -2h-19q-59 0 -115 12q-10 37 -16 74t-6 78q0 12 2 20t12 8h27q10 0 36.5 4t54 14.5t49 28t21.5 41.5q0 27 -26.5 65t-81.5 81q-104 82 -149.5 168t-45.5 176z" />
    <glyph glyph-name="percent" unicode="%" horiz-adv-x="1587" 
d="M65 1065q0 74 20.5 137.5t60.5 109.5t97.5 72.5t129.5 26.5q74 0 129 -26.5t93 -72.5t57.5 -107.5t19.5 -131.5q0 -74 -19.5 -144.5t-57.5 -125.5t-94.5 -89t-129.5 -34q-139 0 -222.5 103.5t-83.5 281.5zM98 -16q0 8 7 18q131 164 276 354.5t287.5 384t273.5 378
t234 337.5q12 23 34 23q8 0 34 -7.5t59.5 -21.5t71.5 -36.5t75 -51.5q6 -6 6 -14q0 -27 -33 -70q-92 -121 -192 -252t-202.5 -261t-202 -255t-186.5 -232.5t-158.5 -192.5t-118.5 -136q-31 -35 -49.5 -48.5t-34.5 -13.5q-12 0 -42 11.5t-60.5 27t-54.5 31.5t-24 27zM299 983
q0 -57 19.5 -94t48.5 -37t47 37t18 94q0 53 -14.5 73.5t-46.5 20.5q-41 0 -56.5 -21.5t-15.5 -72.5zM915 340q0 74 20.5 137.5t60.5 109.5t97.5 72.5t129.5 26.5q74 0 129 -26.5t93 -72.5t57.5 -107.5t19.5 -131.5q0 -74 -19.5 -144.5t-57.5 -125.5t-94.5 -89t-129.5 -34
q-139 0 -222.5 103.5t-83.5 281.5zM1149 258q0 -57 19.5 -94t48.5 -37t47 37t18 94q0 53 -14.5 73.5t-46.5 20.5q-41 0 -56.5 -21.5t-15.5 -72.5z" />
    <glyph glyph-name="ampersand" unicode="&#x26;" horiz-adv-x="1126" 
d="M49 817q0 156 56.5 266.5t151.5 181t217 103.5t255 33q37 0 82 -3t85 -11.5t66.5 -21.5t26.5 -34q0 -18 -5 -73.5t-13 -127t-20.5 -151.5t-29 -146.5t-34 -109.5t-37.5 -43q-10 0 -47 5t-98 5q-74 0 -131.5 -25.5t-57.5 -80.5q0 -51 60.5 -85t158.5 -38v94q0 4 11.5 7
t28 4t31.5 1h25q12 0 35 -1t45.5 -2t39 -4t16.5 -9l-2 -105q72 4 92 8.5t24 4.5q12 0 19.5 -24.5t7.5 -94.5q0 -10 -27.5 -14t-58.5 -4q-20 0 -35.5 1t-25.5 1q-2 -70 -2.5 -115t-4.5 -90q33 2 49.5 4t24.5 3t11 2t8 1q12 0 23 -18.5t19.5 -45t13.5 -54t5 -46.5
q0 -10 -34 -14t-78 -7t-86 -3h-60q-150 0 -275.5 11t-217 42t-142.5 85t-51 140q0 72 37 114t112 66q-117 53 -190.5 162t-73.5 256zM598 225q0 -41 43 -70.5t109 -31.5q-4 47 -6.5 94t-4.5 96h-12q-25 -2 -48.5 -4t-40.5 -11t-28.5 -25.5t-11.5 -47.5z" />
    <glyph glyph-name="quotesingle" unicode="'" horiz-adv-x="512" 
d="M72 1364q0 16 33.5 18t111.5 2h58q38 0 74 -3t62.5 -8t26.5 -15q-4 -59 -11 -135t-15.5 -156t-13.5 -155.5t-5 -135.5q0 -14 -13 -17t-30 -3q-59 0 -115.5 1t-111.5 7q-18 2 -19 20q0 59 -5 138t-11 160t-11 156t-5 126z" />
    <glyph glyph-name="parenleft" unicode="(" horiz-adv-x="729" 
d="M205 571q0 123 15.5 251t53 249t100 226.5t156.5 179.5q8 8 19 8q6 0 27.5 -13.5t45 -32t41 -39t17.5 -34.5q0 -10 -8 -16q-104 -129 -153.5 -328t-49.5 -459q0 -115 11.5 -214t39 -191t72.5 -184.5t113 -190.5q6 -6 6 -16q0 -4 -3.5 -12.5t-9.5 -12.5
q-31 -39 -72.5 -69.5t-76.5 -30.5q-10 0 -25 14q-82 76 -142 182.5t-99 229t-58.5 252t-19.5 251.5z" />
    <glyph glyph-name="parenright" unicode=")" horiz-adv-x="735" 
d="M18 -233q0 4 2.5 8t4.5 8q68 98 113.5 190.5t72.5 184.5t38 191.5t11 213.5q0 260 -49 459t-154 328q-6 6 -6 16q0 12 16.5 31.5t38 39t43 34t31.5 14.5t19 -8q94 -74 157.5 -179.5t101.5 -226.5t53 -249t15 -251t-19.5 -252t-59 -251.5t-99 -229t-141.5 -182.5
q-8 -6 -13.5 -10t-13.5 -4q-12 0 -38.5 15t-54.5 36.5t-48.5 42t-20.5 31.5z" />
    <glyph glyph-name="asterisk" unicode="*" horiz-adv-x="1050" 
d="M72 907q0 14 34 19l318 28l84 357q6 20 18 20t23 -22l119 -346l276 28q35 0 35 -18q0 -14 -16 -27l-209 -176l131 -348q4 -12 4 -16q0 -18 -15 -19q-14 0 -26 12l-285 219l-221 -229q-14 -10 -20 -10q-16 0 -17 24l57 328l-266 150q-25 14 -24 26z" />
    <glyph glyph-name="plus" unicode="+" horiz-adv-x="1030" 
d="M72 725q0 14 12 14h313q-6 57 -7 115.5t-1 122.5q0 41 1 71.5t9 30.5h256q8 0 9 -12q0 -168 -13 -328h291q14 0 14 -12q0 -6 -2 -8l-36 -162q-4 -12 -15 -12h-252v-262q0 -35 -3 -52.5t-19 -17.5h-191q-10 0 -17 12.5t-10 49t-4 101t-1 169.5h-300q-10 0 -14 14z" />
    <glyph glyph-name="comma" unicode="," horiz-adv-x="632" 
d="M72 145q0 8 14 19.5t18 15.5q33 27 75 55.5t87 53t91 40t87 15.5q20 -4 41 -45t38.5 -92t27.5 -99.5t10 -66.5q0 -6 -5 -16.5t-9 -16.5q-47 -74 -107.5 -141.5t-126.5 -132.5q-10 -10 -22 -16.5t-23 -6.5q-8 0 -19 6.5t-22.5 16.5t-18.5 21.5t-7 21.5q0 2 6 12
q47 47 68.5 73.5t21.5 43.5q0 16 -21 16q-23 0 -46 -18.5t-33 -18.5t-31 34t-42.5 79t-36.5 87t-15 60z" />
    <glyph glyph-name="hyphen" unicode="-" horiz-adv-x="651" 
d="M25 694q0 16 18 17q74 4 146.5 6t144.5 2q68 0 135.5 -2t134.5 -6q21 -1 21 -15q0 -12 -5.5 -41.5t-14.5 -61.5t-22.5 -57.5t-27.5 -29.5q-55 4 -108.5 6t-106.5 2q-68 0 -135.5 -2t-134.5 -6q-12 0 -20.5 20.5t-13.5 50t-8 62.5t-3 55z" />
    <glyph glyph-name="period" unicode="." horiz-adv-x="681" 
d="M72 127q0 18 30 33q76 35 152 71.5t145 81.5q8 4 22.5 10.5t20.5 6.5q18 0 47 -42t55.5 -95.5t46 -101.5t19.5 -58q0 -12 -17.5 -26.5t-27.5 -18.5q-80 -47 -159.5 -83t-165.5 -69q-16 -6 -23 -6q-16 0 -40.5 36t-47.5 85t-40 98t-17 78z" />
    <glyph glyph-name="slash" unicode="/" horiz-adv-x="1134" 
d="M8 -164q98 188 204.5 407.5t209 440.5t195 430t161.5 379q10 27 35 35t96 8q16 0 43 -1t55.5 -4t56.5 -6t46 -7q14 -2 14 -25q0 -25 -18 -57q-66 -137 -140.5 -288t-149.5 -301.5t-148.5 -294.5t-139 -268t-121 -224.5t-92.5 -161.5q-18 -33 -31.5 -50.5t-26.5 -25.5
t-28.5 -10t-38.5 -2q-57 0 -93 1t-55 4t-26.5 8t-7.5 13z" />
    <glyph glyph-name="zero" unicode="0" horiz-adv-x="1343" 
d="M66 723q0 150 42 275.5t121.5 218t193.5 144.5t259 52t257 -54t186.5 -146.5t113.5 -215.5t39 -260q0 -150 -38 -291t-113.5 -251.5t-187.5 -177t-261 -66.5q-139 0 -252 54t-192.5 154.5t-123.5 244t-44 319.5zM535 557q0 -115 38 -188.5t95 -73.5q59 0 96 74.5
t37 187.5q0 104 -30 146t-95 42q-82 0 -111.5 -41.5t-29.5 -146.5z" />
    <glyph glyph-name="one" unicode="1" horiz-adv-x="800" 
d="M90 1327q0 16 7 25.5t36 13.5q33 4 89.5 6t113.5 2q90 0 177 -3t167 -13q20 -4 25.5 -7.5t5.5 -17.5v-39q0 -22 -1 -59t-3 -95.5t-4.5 -148.5t-6.5 -218t-8 -306q-4 -164 -6 -285t-2 -190q0 -27 -11.5 -31t-25.5 -4q-41 -2 -81 -2h-81q-76 0 -157.5 4t-141.5 8
q-23 2 -31 15.5t-12 48.5q-18 293 -33.5 623.5t-15.5 672.5z" />
    <glyph glyph-name="two" unicode="2" horiz-adv-x="1003" 
d="M66 209q0 82 36.5 170t133.5 149q43 27 69.5 50.5t41.5 47t21.5 47t6.5 52.5q0 70 -53.5 109.5t-176.5 39.5q-23 0 -32 -2t-21 -2t-18 21.5t-6 38.5q10 256 65 481q4 14 20.5 16.5t49.5 2.5q764 0 764 -580q0 -53 -12.5 -110.5t-44 -113t-84 -107.5t-132.5 -97
q-117 -66 -174 -110t-57 -91q0 -18 6 -37q86 -6 160 -6t131 5t86 5q16 0 16 -14q0 -25 -4 -54.5t-9 -57t-10 -50t-10 -35.5q-4 -10 -23.5 -17t-58 -11t-99 -6t-148.5 -2q-74 0 -158 3t-158 3q-12 0 -26.5 3t-20.5 13q-35 68 -53 127.5t-18 118.5z" />
    <glyph glyph-name="three" unicode="3" horiz-adv-x="1026" 
d="M20 1290q0 27 25 49.5t67 38t97 23.5t119 8q135 0 251.5 -35t203.5 -108.5t137.5 -188t50.5 -274.5q0 -86 -17.5 -152.5t-47 -114t-70.5 -80t-88 -50.5q78 -23 118.5 -81.5t40.5 -125.5q0 -135 -141 -202t-401 -67q-92 0 -118 4.5t-26 18.5q0 20 2 50t7.5 57.5t13.5 47
t18 19.5q12 0 21.5 -4t44.5 -4q94 0 134 33.5t40 68.5q0 23 -7.5 41.5t-29 31.5t-63.5 20.5t-109 7.5q-20 0 -23.5 27.5t-3.5 74.5q0 14 1 23.5t12 9.5q14 0 33.5 -1t54.5 -1q92 0 126.5 34.5t34.5 90.5q0 49 -38.5 83.5t-139.5 34.5q-35 0 -55.5 -3t-32.5 -6t-18 -6t-13 -3
q-14 0 -35.5 38t-45 96t-47 130t-42 139.5t-30 124t-11.5 82.5z" />
    <glyph glyph-name="four" unicode="4" horiz-adv-x="1288" 
d="M90 1298q0 16 11.5 24.5t48 12.5t105.5 5t183 1q47 0 95.5 -1t97.5 -3q18 0 18 -16q0 -27 -2 -85t-6 -136t-9 -168t-10.5 -179t-11.5 -170t-10 -141q49 0 94 4.5t90 12.5q-4 109 -6 219t-2 223q0 104 2 210t6 222q2 16 53.5 21.5t180.5 5.5q57 0 93 -1t55.5 -4t25.5 -7.5
t6 -10.5q0 -127 -12 -300t-26.5 -362.5t-27 -375.5t-12.5 -338q0 -8 -25.5 -13t-64.5 -7t-86 -2h-90q-23 0 -35 24.5t-20 68.5t-10.5 105.5t-2.5 132.5q-78 -6 -144.5 -11t-129.5 -8t-130 -5t-144 -2q-33 0 -45 47q-8 37 -18.5 111.5t-22 170t-22.5 201t-20.5 205.5
t-14.5 184t-5 135z" />
    <glyph glyph-name="five" unicode="5" horiz-adv-x="1058" 
d="M74 1352q0 20 36.5 35.5t119.5 25.5t219.5 14.5t334.5 4.5q61 0 85 -5t28 -28q23 -117 28 -246t9 -262v-4q0 -16 -25 -17q-113 0 -225.5 -6t-241.5 -20q-2 -12 -2 -25v-26v-33q0 -17 2 -35q35 4 68 6t63 2q205 0 320 -83t115 -238q0 -139 -59.5 -227.5t-161 -137.5
t-236.5 -67.5t-285 -18.5q-12 0 -21 4t-14 19q-10 47 -20 92t-14 90q0 14 16 18q94 8 158.5 23.5t102.5 37t54.5 48t16.5 59.5q0 20 -5 39t-20.5 32t-45.5 20.5t-81 7.5q-41 0 -77.5 -4.5t-84.5 -18.5q-10 -4 -20 -6t-21 -2q-14 0 -14 18q-23 113 -42 237t-32.5 245.5
t-20.5 233.5t-7 198z" />
    <glyph glyph-name="six" unicode="6" horiz-adv-x="1112" 
d="M57 586q0 201 57.5 360.5t159 272t240.5 172t303 59.5q88 0 124 -2t36 -18q0 -123 -4 -233t-11.5 -192.5t-19.5 -132t-29 -49.5q-16 0 -32.5 3t-63.5 3q-37 0 -83 -12t-87 -39.5t-71.5 -70.5t-38.5 -105q27 33 59.5 51.5t65 27.5t62.5 11t52 2q55 0 105.5 -19.5
t87.5 -59.5t59.5 -102t22.5 -146q0 -92 -30 -171t-84 -138.5t-132 -93.5t-176 -34q-117 0 -220.5 45t-182.5 129t-124 206t-45 276zM555 389q0 -47 13.5 -76.5t45.5 -29.5q29 0 49.5 13t35 34.5t20.5 45t6 46.5q0 35 -10 45t-21 10q-10 0 -26.5 -2t-36 -11t-39 -26.5
t-37.5 -48.5z" />
    <glyph glyph-name="seven" unicode="7" horiz-adv-x="1099" 
d="M49 1214v67q0 32 4 65q2 10 43 19t149.5 16.5t298 11.5t488.5 4q17 -1 17 -19q-4 -139 -10.5 -243.5t-12.5 -178t-13 -121t-14 -71.5q-158 -199 -303 -400.5t-268 -420.5q-6 -6 -16 -9q-29 2 -76 8.5t-93 15.5t-80 20.5t-34 21.5q0 8 4 14q106 186 219 371.5t242 368.5
q-139 -12 -281 -13q-55 0 -111.5 2t-107.5 7q-10 0 -18 23.5t-14.5 77.5t-9.5 143t-3 220z" />
    <glyph glyph-name="eight" unicode="8" horiz-adv-x="1089" 
d="M47 995q0 94 32 172t94.5 133.5t155.5 86t214 30.5q119 0 212 -30.5t157.5 -83t98 -124t33.5 -151.5q0 -102 -15 -173t-44 -120t-67.5 -81.5t-83.5 -59.5q96 -41 135 -108.5t39 -172.5q0 -70 -29 -138.5t-86 -122.5t-145.5 -88t-204.5 -34q-102 0 -186.5 36t-143.5 92.5
t-92 124t-33 130.5q0 100 31 166t121 101q-88 63 -140.5 164.5t-52.5 250.5zM489 324q1 -134 64 -134q29 0 44 36t15 96q0 55 -15 76.5t-44 21.5q-63 0 -64 -96zM489 711q0 -63 16.5 -105.5t51.5 -42.5t48 44t13 104q0 53 -13 82.5t-48 29.5q-41 0 -54.5 -32.5t-13.5 -79.5z
" />
    <glyph glyph-name="nine" unicode="9" horiz-adv-x="1091" 
d="M59 893q0 158 40 263.5t107.5 167.5t156 88t184.5 26q254 0 372.5 -183.5t118.5 -552.5q0 -164 -38.5 -307t-113.5 -250.5t-186.5 -170t-259.5 -62.5q-72 0 -116.5 4t-70.5 10t-36 14.5t-10 16.5q0 63 3 129t8 117t12.5 83.5t15.5 32.5q14 0 34.5 -7t81.5 -7
q109 0 186 57.5t95 178.5q-45 -51 -100.5 -70.5t-134.5 -19.5q-80 0 -144.5 32.5t-109.5 91t-70 139.5t-25 179zM438 731q0 -49 19.5 -74.5t38.5 -25.5q35 0 62.5 29t35.5 90q-2 14 -7 30.5t-14.5 31.5t-25 25.5t-35.5 10.5q-27 0 -50.5 -32t-23.5 -85z" />
    <glyph glyph-name="colon" unicode=":" horiz-adv-x="700" 
d="M82 127q0 10 6 17.5t25 15.5q74 35 149.5 71.5t145.5 81.5q10 4 23.5 10.5t19.5 6.5q18 0 46.5 -42t55.5 -95.5t46 -101.5t19 -58q0 -12 -17 -26.5t-28 -18.5q-80 -47 -159.5 -83t-163.5 -69q-18 -6 -25 -6q-16 0 -39.5 36t-47 85t-40 98t-16.5 78zM82 758q0 10 6 18
t25 17q74 33 149.5 70.5t145.5 80.5q10 6 23.5 12.5t19.5 6.5q18 0 46.5 -42t55.5 -95.5t46 -101.5t19 -60q0 -10 -17 -24.5t-28 -21.5q-80 -47 -159.5 -81.5t-163.5 -69.5q-10 -2 -15.5 -3t-9.5 -1q-16 0 -39.5 36t-47 84t-40 97t-16.5 78z" />
    <glyph glyph-name="semicolon" unicode=";" horiz-adv-x="698" 
d="M80 758q0 10 6 18t25 17q74 33 149.5 70.5t145.5 80.5q10 6 23.5 12.5t21.5 6.5q18 0 45.5 -42t55.5 -95.5t47 -101.5t19 -60q0 -10 -18 -24.5t-29 -21.5q-80 -47 -159.5 -81.5t-163.5 -69.5q-20 -4 -25 -4q-16 0 -39.5 36t-47 84t-40 97t-16.5 78zM84 145q0 8 13.5 19.5
t17.5 15.5q33 27 74.5 55.5t87 53t91.5 40t87 15.5q20 -4 41.5 -45t38 -92t26.5 -99.5t10 -66.5q0 -6 -5 -16.5t-9 -16.5q-47 -74 -107.5 -141.5t-125.5 -132.5q-23 -23 -43 -23q-18 0 -44 22.5t-26 43.5q0 4 8 12q47 47 67.5 73.5t20.5 43.5q0 16 -20 16q-23 0 -46.5 -18.5
t-33.5 -18.5t-30.5 34t-41 79t-36 87t-15.5 60z" />
    <glyph glyph-name="less" unicode="&#x3c;" horiz-adv-x="1009" 
d="M72 739q0 14 10 21l760 422q12 4 18 4q18 0 21 -15l57 -176q0 -12 -14 -18l-596 -311l587 -308q8 -2 9 -14q0 -8 -4 -12l-103 -99q-8 -8 -14 -8q-4 0 -12 6l-680 361q-10 6 -15 18z" />
    <glyph glyph-name="equal" unicode="=" horiz-adv-x="1030" 
d="M72 924q0 16 12 16h858q14 0 14 -14q0 -6 -2 -8l-36 -179q-2 -14 -15 -14h-797q-10 0 -14 16zM111 537q0 12 10 12h786q12 0 13 -10q0 -8 -2 -11l-35 -141q-4 -12 -13 -12h-729q-12 0 -12 14z" />
    <glyph glyph-name="greater" unicode="&#x3e;" horiz-adv-x="1009" 
d="M72 995l57 176q0 14 21 15q2 0 18 -4l760 -422q10 -6 10 -21l-25 -129q-4 -12 -14 -18l-680 -361q-10 -6 -12 -6q-4 0 -17 8l-100 99q-6 6 -6 12q0 10 10 14l586 308l-596 311q-12 8 -12 18z" />
    <glyph glyph-name="question" unicode="?" horiz-adv-x="978" 
d="M63 918q0 117 10.5 242.5t55.5 250.5q4 12 20.5 15.5t47.5 3.5q160 0 295 -25t233 -85t153.5 -160.5t55.5 -250.5q0 -135 -57.5 -222t-165.5 -159q-90 -59 -116 -106t-26 -80q0 -16 7.5 -28.5t14.5 -20.5t14 -15.5t7 -15.5q0 -10 -6 -16t-24 -15q-121 -53 -189.5 -75.5
t-109.5 -22.5q-12 0 -20.5 4t-10.5 8q-63 57 -92 123t-29 152q0 72 28.5 128t65.5 99q33 37 45.5 63.5t12.5 49.5q0 63 -41 88.5t-101 25.5q-16 0 -31.5 -2t-25.5 -2t-15.5 7.5t-5.5 40.5zM205 0q0 10 6 17.5t25 17.5q74 33 149.5 70.5t144.5 80.5q10 4 23.5 11.5t19.5 7.5
q18 0 47 -43t55.5 -96.5t46 -101.5t19.5 -58q0 -18 -42 -46t-101 -56.5t-121.5 -54t-103.5 -40.5q-18 -6 -25 -6q-16 0 -39.5 36t-47 85t-40 98t-16.5 78z" />
    <glyph glyph-name="at" unicode="@" horiz-adv-x="1368" 
d="M53 670q0 182 53.5 308t142.5 204t205.5 112.5t241.5 34.5q152 0 267.5 -28.5t193.5 -95t118 -175t40 -270.5q0 -78 -13.5 -163t-47 -154.5t-91 -114.5t-143.5 -45q-137 0 -193 67q-29 -35 -67.5 -51t-93.5 -16q-35 0 -77 17t-78 55t-60.5 98.5t-24.5 144.5
q0 141 60.5 218t170.5 77q41 0 69 -7t50 -24q0 37 23 37q59 0 107 -9t48 -22q-6 -51 -7 -96t-1 -86q0 -47 2 -87t9.5 -69.5t22.5 -47t42 -17.5q47 0 64.5 48t17.5 157q0 111 -39 181.5t-100.5 109t-137 53t-147.5 14.5t-141.5 -18.5t-123 -65.5t-86 -131t-32.5 -215
q0 -102 22.5 -191.5t66.5 -159t110.5 -116.5t152.5 -65q8 -2 11.5 -8.5t3.5 -12.5q0 -66 -6.5 -108.5t-39.5 -45.5q-143 20 -248.5 85t-176 166.5t-105.5 235.5t-35 292zM621 604q0 -57 26.5 -97t59.5 -40t51 40t18 99q0 39 -16.5 61.5t-52.5 22.5q-47 0 -66.5 -25.5
t-19.5 -60.5z" />
    <glyph glyph-name="A" unicode="A" horiz-adv-x="1271" 
d="M10 -14q0 8 4 20q82 338 169 669t192 660q4 10 14 16.5t37 9.5t73 4t122 1q106 0 174.5 -2t108.5 -6t55.5 -11.5t17.5 -15.5q80 -348 148.5 -686t134.5 -682v-6q0 -14 -17 -14q-117 0 -232.5 2t-232.5 12q-10 2 -16 7t-8 28l-13 133q-29 -27 -69.5 -48.5t-50.5 -21.5
q-18 0 -36 29t-24 49l-18 -119q-4 -16 -10.5 -26.5t-28 -15.5t-66.5 -7t-125 -2q-166 0 -234.5 4t-68.5 19zM559 328q57 41 81 55t40 14q12 0 26.5 -10t45.5 -51q-20 98 -41 194.5t-49 194.5q-35 -98 -58.5 -196.5t-44.5 -200.5z" />
    <glyph glyph-name="B" unicode="B" horiz-adv-x="1280" 
d="M57 1243q0 55 8.5 81t18.5 34q47 35 147.5 49t268.5 14q117 0 229.5 -22.5t216.5 -81.5q131 -78 203 -210t72 -314q0 -121 -42 -223.5t-149 -166.5q72 -23 122 -73.5t50 -141.5q0 -88 -45 -137t-110.5 -72.5t-140.5 -28.5t-136 -5q-84 -2 -163 -4t-165 -2q-94 0 -204 6
q-59 2 -79 32.5t-22 83.5q-4 125 -12 284t-19.5 320.5t-23.5 313t-25 264.5zM621 161q0 -24 2 -46q10 -2 20.5 -3t26.5 -1q18 0 41.5 6t45 19.5t37 35t15.5 51.5q0 37 -20.5 57.5t-49 32t-59.5 13.5t-53 2q-6 -59 -6 -119v-48zM627 408q8 -2 26 -2q31 0 61.5 8t57.5 26.5
t44.5 48t17.5 72.5q0 68 -34 116t-106 48q-14 0 -28.5 -2t-28.5 -8q-6 -76 -8 -153t-2 -154z" />
    <glyph glyph-name="C" unicode="C" horiz-adv-x="1234" 
d="M72 688q0 152 53 284t148.5 230t229.5 155.5t294 57.5q70 0 119 -3t84.5 -7t61 -11.5t48.5 -15.5q14 -6 26.5 -58t19.5 -131t11 -176.5t4 -195.5q0 -16 -18 -16q-16 0 -52 9t-120 9q-74 0 -131 -22.5t-97 -62.5t-60.5 -94t-20.5 -118q0 -59 20.5 -114.5t58 -96.5
t93 -65.5t125.5 -24.5q37 0 59.5 4t37.5 8.5t23.5 8.5t16.5 4q10 0 17 -9.5t7 -25.5q0 -10 -1 -55t-7 -115q0 -16 -26.5 -31.5t-68.5 -28t-96 -19.5t-112 -7q-141 0 -275 40t-239.5 128t-169 227t-63.5 338z" />
    <glyph glyph-name="D" unicode="D" horiz-adv-x="1257" 
d="M84 934q0 98 1 200q1 103 7 201q2 29 11.5 39t25.5 15q37 6 102.5 9t180.5 3q180 0 325.5 -50.5t246.5 -141.5t156.5 -218t55.5 -282q0 -203 -66.5 -347.5t-177 -238.5t-252 -138t-290.5 -44q-37 0 -85.5 6t-92.5 18t-76.5 27.5t-38.5 34.5q-14 223 -23.5 446t-9.5 461z
M560 299q0 -41 1 -82q31 0 70 17.5t73.5 49t58 78t23.5 101.5q0 98 -55 159.5t-162 65.5q-6 -80 -8 -156.5t-1 -150.5v-82z" />
    <glyph glyph-name="E" unicode="E" horiz-adv-x="1124" 
d="M80 1292q0 18 28.5 31.5t103.5 23t205 14.5t335 5h295q16 0 16 -16q0 -113 -6 -219.5t-15.5 -190.5t-21.5 -135t-23 -51q-20 0 -96 6t-237 6q-4 -35 -4.5 -74t-0.5 -74q82 0 166 8.5t131 8.5q35 0 47.5 -7t12.5 -22q-8 -47 -19.5 -88t-27.5 -88q-10 -22 -173 -22h-14h-60
q-32 0 -67 2q-4 -29 -6 -73t-2 -85q76 -6 158 -6q43 0 87 3t87 3q16 0 16 -29q0 -72 -2 -123t-8 -104q-2 -8 -20.5 -15.5t-66.5 -13.5t-130 -9t-211 -3q-117 0 -191.5 1t-117.5 6t-60.5 17.5t-19.5 34.5q-12 78 -23.5 198t-20.5 255t-17.5 274.5t-14.5 255t-9 196.5t-3 99z
" />
    <glyph glyph-name="F" unicode="F" horiz-adv-x="1103" 
d="M84 1317q2 14 55.5 23.5t143.5 15.5t211.5 8t261.5 2h295q16 0 16 -18q-14 -276 -27.5 -434t-40.5 -158q-66 0 -137 5t-155 7q-4 -33 -5.5 -65.5t-1.5 -65.5q170 0 244 -6t74 -23q-6 -113 -47 -209q-4 -10 -37 -15t-86 -5q-35 0 -73 2t-81 8q-2 -23 -3 -47.5t-1 -48.5
q0 -74 4 -148.5t8 -140.5q0 -16 -42 -24.5t-103 -12.5t-128 -5t-112 -1q-57 0 -98 2t-43 14q-12 88 -23.5 218.5t-21.5 274.5t-19.5 290.5t-15.5 266.5t-9 199t-3 91z" />
    <glyph glyph-name="G" unicode="G" horiz-adv-x="1318" 
d="M61 717q0 133 47.5 260t141.5 225t231 157.5t320 59.5q102 0 165.5 -6t110.5 -16q10 -2 20.5 -40t17.5 -95.5t12.5 -126t8.5 -133t5 -116.5t2 -77q0 -18 -19 -18q-6 0 -23.5 3t-43 7t-55 7t-60.5 3q-86 0 -141.5 -31.5t-88 -78t-45 -98.5t-12.5 -95q0 -39 10.5 -79
t34 -75t60.5 -63.5t90 -42.5q4 63 6 109t2 87q0 59 -5 83t-5 44q0 10 21.5 16.5t55 9.5t76.5 4t86 1h156q23 0 27 -9t4 -28q0 -18 -3 -84.5t-8.5 -147.5t-12.5 -164t-13 -136q-2 -12 -31.5 -24.5t-81 -23t-117 -17.5t-139.5 -7q-168 0 -315 43t-256 134t-172.5 234.5
t-63.5 344.5z" />
    <glyph glyph-name="H" unicode="H" horiz-adv-x="1501" 
d="M90 1339q0 14 24.5 21.5t59.5 11.5t73 5t66 1q16 0 47 -1t66 -1t66.5 -1t50.5 -1q53 0 82.5 2t56.5 4q18 0 18 -18q0 -80 -1 -179.5t-4 -204t-8 -207.5t-13 -193q41 41 63.5 56t32.5 15q8 0 21.5 -20.5t39.5 -75.5v809q0 12 25 19.5t60.5 10.5t72.5 4t62 1q20 0 79.5 -1
t122 -5.5t110.5 -10.5t48 -18v-309q0 -141 -2 -265t-8 -247t-18.5 -257t-32.5 -296q-2 -14 -19 -15q-41 0 -98 1t-119.5 2t-127 4.5t-116.5 7.5q-16 0 -16 18q0 -2 -2 19.5t-4 55.5t-5 76t-5 80.5t-4.5 68.5t-2.5 40q-66 -72 -87 -89t-23 -17q-6 0 -14.5 14t-16.5 33l-16 37
q-8 18 -10 24q-2 -86 -7.5 -159.5t-15.5 -170.5q-4 -16 -41 -20t-78 -4q-137 0 -215 1t-116.5 4t-48 8t-9.5 13l-31 791q-8 199 -10 325t-2 203z" />
    <glyph glyph-name="I" unicode="I" horiz-adv-x="800" 
d="M96 1327q0 16 6.5 25.5t36.5 13.5q31 4 88.5 6t114.5 2q90 0 177 -3t167 -13q18 -4 24.5 -7.5t6.5 -17.5q0 -18 -1 -39.5t-2 -58.5t-3 -95.5t-4.5 -148.5t-5.5 -218t-7 -306q-4 -164 -6 -285t-2 -190q0 -27 -12 -31t-25 -4q-41 -2 -82 -2h-82q-74 0 -155.5 4t-141.5 8
q-23 2 -32 15.5t-11 48.5q-20 293 -34.5 623.5t-14.5 672.5z" />
    <glyph glyph-name="J" unicode="J" horiz-adv-x="1120" 
d="M0 135q0 8 22.5 35t53 55.5t60.5 50t44 21.5q10 0 13 -6q27 -53 54 -73.5t68 -20.5q66 0 107 78.5t41 228.5q0 162 -3 279.5t-7 210.5t-7.5 171t-3.5 158q0 23 7.5 33t31.5 10q180 0 294 -2t177.5 -6t86 -10.5t22.5 -16.5q0 -252 -9.5 -443.5t-25.5 -330.5t-39.5 -231.5
t-50.5 -143.5q-74 -135 -201 -200.5t-284 -65.5q-174 0 -275.5 41t-155.5 127q-8 10 -14 22.5t-6 28.5z" />
    <glyph glyph-name="K" unicode="K" horiz-adv-x="1378" 
d="M63 1348q0 12 29 19t94.5 10t172 4t259.5 1q18 0 19 -18q0 -23 -1 -42t-1 -38q0 -129 5 -260t15 -254q59 137 120 288.5t110 311.5q2 12 18 12q27 0 72 -2t97 -5t104.5 -8t95.5 -11t70.5 -13.5t27.5 -15.5q0 -16 -8 -39q-33 -96 -65.5 -178t-71.5 -155.5t-84 -142.5
t-101 -140q84 -160 157 -326t130 -356q0 -23 -54 -37t-130 -22.5t-156 -11.5t-131 -3q-14 0 -18 10q-35 119 -80 240t-99 231q-2 -41 -2 -77v-78q0 -121 7 -244q0 -12 -9.5 -20.5t-35 -11.5t-73.5 -4t-128 -1h-141q-60 0 -101 4q-16 2 -25.5 15.5t-15.5 53.5t-11 111.5
t-11 188.5q-10 174 -19.5 321.5t-15.5 272.5t-10.5 228.5t-4.5 191.5z" />
    <glyph glyph-name="L" unicode="L" horiz-adv-x="1013" 
d="M82 1317q0 10 36 19.5t92 16.5t126 12t136.5 9t122.5 6t87 2q18 0 18 -16q-8 -213 -11 -412.5t-3 -394.5v-149q0 -74 2 -148q18 -2 38 -2h40q98 0 147.5 6t71.5 6q19 0 19 -18q-4 -145 -19 -258q-2 -14 -105.5 -27.5t-320.5 -13.5h-122q-66 0 -124.5 2t-97.5 7t-39 13
q-12 88 -24.5 219.5t-23.5 276.5t-19.5 291.5t-14.5 265.5t-9 198t-3 89z" />
    <glyph glyph-name="M" unicode="M" horiz-adv-x="1538" 
d="M98 813q0 139 2 275.5t11 271.5q0 10 14 16t34.5 9.5t45 4.5t47.5 1q33 0 69.5 -2.5t96.5 -8.5q23 -4 34 -11t21 -23q55 -113 120.5 -224.5t137.5 -214.5q72 98 137.5 213t116.5 232q6 23 37 28q49 6 106.5 10.5t110.5 4.5q117 0 162 -7.5t45 -27.5q6 -125 8 -249t2 -249
q0 -209 -5 -421t-11 -418q-2 -35 -22.5 -41.5t-61.5 -6.5q-109 0 -175.5 1t-108.5 3.5t-67.5 6.5t-52.5 8q-27 6 -32 14t-5 39q0 117 2.5 196t6.5 152q-35 -109 -79 -210t-93 -187q-4 -8 -8.5 -12t-12.5 -6.5t-20.5 -3.5t-34.5 -1q-39 0 -50.5 4.5t-23.5 22.5
q-63 90 -116.5 189.5t-96.5 216.5q4 -43 6 -111t2 -188q0 -70 -6 -93.5t-16 -25.5q-16 -6 -60.5 -9.5t-146.5 -3.5q-35 0 -45 9.5t-10 31.5q-6 193 -10.5 393.5t-4.5 401.5z" />
    <glyph glyph-name="N" unicode="N" horiz-adv-x="1269" 
d="M90 1071v234q0 37 14.5 47t55.5 14q84 4 138 6t87 2q49 0 72.5 -7t40.5 -24q49 -47 97 -104t92 -118.5t82 -122t69 -113.5q0 104 -3.5 210.5t-3.5 209.5q0 29 2.5 41t10.5 18q4 2 9 4t18.5 3t37.5 1h68q66 0 103.5 -1t56 -3t23.5 -7t7 -11q2 -10 4.5 -24.5t3.5 -46.5
t1 -89v-154q0 -123 2 -246.5t2 -263.5q0 -199 -1 -322.5t-5 -154.5q-4 -47 -8.5 -62.5t-12.5 -21.5q-6 -4 -13 -6t-25.5 -5t-52.5 -4t-91 -1q-80 0 -127 2t-75 11t-45 28.5t-40 56.5q-51 82 -125 182.5t-149 192.5q2 -76 4 -134.5t5 -105.5t5 -86t2 -78q0 -20 -4 -33.5
t-18.5 -20.5t-43 -10t-77.5 -3q-47 0 -78 1t-49.5 3t-27.5 7t-15 11q-12 10 -14.5 44t-2.5 71v110q0 74 -1 172.5t-2 215t-2 239.5t-1 246z" />
    <glyph glyph-name="O" unicode="O" horiz-adv-x="1343" 
d="M66 723q0 150 42 275.5t121.5 218t193.5 144.5t259 52t257 -54t186.5 -146.5t113.5 -215.5t39 -260q0 -150 -38 -291t-113.5 -251.5t-187.5 -177t-261 -66.5q-139 0 -252 54t-192.5 154.5t-123.5 244t-44 319.5zM535 557q0 -115 38 -188.5t95 -73.5q59 0 96 74.5
t37 187.5q0 104 -30 146t-95 42q-82 0 -111.5 -41.5t-29.5 -146.5z" />
    <glyph glyph-name="P" unicode="P" horiz-adv-x="1382" 
d="M63 1319q0 20 41 38.5t109 33t157 21.5t187 7q180 0 324.5 -52t246 -145.5t155.5 -223t54 -283.5q0 -139 -51 -238.5t-138 -165t-204 -100.5t-248 -43v-170q0 -12 -20.5 -20.5t-54 -11.5t-74.5 -4t-82 -1h-113h-74q-30 0 -49.5 1t-38.5 3q-8 2 -21 79t-27.5 199
t-29 273.5t-24.5 302t-17.5 283.5t-7.5 217zM696 381q104 0 165 54t61 136q0 80 -53.5 116t-114.5 36q-33 0 -58 -8v-334z" />
    <glyph glyph-name="Q" unicode="Q" horiz-adv-x="1351" 
d="M66 723q0 150 42 275.5t121.5 218t193.5 144.5t259 52q162 0 274.5 -60.5t184 -156.5t104.5 -217t33 -240q0 -166 -50 -322.5t-151 -273.5q45 6 85 18.5t81 28.5q8 4 17 5q10 -1 18 -9q41 -59 70.5 -122.5t52.5 -135.5q2 -4 2 -12q0 -14 -14 -22q-98 -45 -203 -76
t-217 -51q-10 0 -24.5 3t-16.5 13q-6 51 -25.5 98t-52.5 96q-73 -28 -166 -28h-6q-139 0 -252 54t-192.5 155.5t-123.5 245t-44 319.5zM535 557q0 -115 38 -188.5t95 -73.5q59 0 96 74.5t37 187.5q0 104 -30 146t-95 42q-82 0 -111.5 -41.5t-29.5 -146.5z" />
    <glyph glyph-name="R" unicode="R" horiz-adv-x="1441" 
d="M90 1319q0 20 38 37.5t101.5 30t147.5 18.5t176 6q190 0 342 -48t256 -130t160.5 -189.5t56.5 -226.5q0 -193 -77 -314.5t-212 -174.5q55 -59 116.5 -134t117.5 -163q4 -6 6 -11.5t2 -11.5q0 -14 -16 -16q-80 -37 -154 -64.5t-166 -50.5q-12 -4 -27 -4q-20 0 -32 21
q-70 129 -201 239v-135q0 -12 -20.5 -20.5t-54.5 -11.5t-74.5 -4t-81.5 -1h-154q-57 0 -102 4q-23 2 -36.5 52.5t-25.5 170t-26.5 317t-36.5 494.5q-4 39 -7.5 87.5t-7.5 94.5t-6 82.5t-2 55.5zM725 381q104 8 163.5 62.5t59.5 144.5q0 68 -51 100.5t-117 32.5q-31 0 -55 -6
v-334z" />
    <glyph glyph-name="S" unicode="S" horiz-adv-x="1003" 
d="M72 942q0 102 36.5 191.5t117.5 156t212 104.5t320 38q47 0 75.5 -5.5t32.5 -21.5q14 -66 26.5 -137.5t22 -142t13.5 -133t4 -105.5q0 -16 -25 -17q-8 0 -17 2t-26 2q-84 0 -118.5 -33.5t-34.5 -82.5q0 -23 6 -44.5t28 -49.5q59 -76 94 -151t35 -155q0 -106 -43 -182
t-118.5 -125t-181 -71.5t-228.5 -22.5q-37 0 -53.5 4t-22.5 27q-10 37 -17 84t-7 96q0 16 26.5 15t63.5 3q76 8 120 35t44 76q0 47 -32 87t-108 99q-123 98 -184 208t-61 251z" />
    <glyph glyph-name="T" unicode="T" horiz-adv-x="1175" 
d="M37 1104q0 72 1 134t5 134q0 18 18 19q90 4 181 4h182q350 0 694 -19q19 0 19 -18q4 -70 5 -129.5t1 -126.5q0 -80 -2 -160l-4 -160q0 -18 -19 -18h-129q-69 0 -131 -2q-4 -70 -10 -162t-15.5 -195.5t-19.5 -212t-22 -208.5q0 -29 -150 -29q-76 0 -133 3t-111 7
q-10 2 -14 11.5t-6 39.5q-6 199 -20.5 387.5t-30.5 362.5q-66 4 -132 4h-133q-18 0 -18 18q-6 156 -6 316z" />
    <glyph glyph-name="U" unicode="U" horiz-adv-x="1243" 
d="M72 1274q0 35 9 50t38 19q84 14 147.5 17.5t122.5 3.5h103q53 0 131 -2q53 -2 72.5 -11.5t19.5 -60.5q0 -223 -6.5 -458.5t-6.5 -458.5q0 -35 13.5 -63.5t58.5 -28.5q31 0 47.5 14t23.5 37.5t9 50.5t2 51q0 209 -4 427t-4 454q0 39 23.5 49t109.5 10q57 0 94 -2t58.5 -5
t31 -8t13.5 -13q4 -10 4 -29q0 -70 -4 -179.5t-9.5 -228t-9.5 -233.5t-4 -195q0 -117 -21.5 -214t-81 -166.5t-163 -108.5t-266.5 -39q-289 0 -416 131t-127 395q0 106 -1 224t-3 227.5t-3 200t-1 143.5z" />
    <glyph glyph-name="V" unicode="V" horiz-adv-x="1083" 
d="M16 1348q0 12 7.5 19t27 10t54 4t88.5 1h104h93q36 0 59.5 -1t37 -3t25.5 -4q27 -8 29 -14q6 -31 16 -80t24.5 -105.5t33 -119t40.5 -121.5q14 43 32 96t33 111.5t29.5 116t24.5 108.5q2 8 34 14t72 8.5t79.5 3.5t58.5 1h20q29 -1 29 -15q0 -6 -2 -19t-4 -24
q-53 -311 -139 -651t-191 -670q-4 -16 -54 -25t-183 -9q-39 0 -75 5t-44 25q-109 319 -195 641t-157 647q-2 10 -4.5 24.5t-2.5 25.5z" />
    <glyph glyph-name="W" unicode="W" horiz-adv-x="1781" 
d="M16 1333q0 23 17 29q12 4 70.5 6t123.5 2h88q94 0 136.5 -3t66.5 -7q20 -6 23 -12q10 -59 32.5 -146.5t81.5 -216.5q14 41 29.5 89t30 94t25 89t16.5 74q4 33 63 35q45 4 103.5 5t111.5 1q61 0 117.5 -1t91.5 -5q29 -4 38 -7t9 -11q12 -63 38 -149.5t79 -213.5
q37 98 59.5 198.5t36.5 176.5q0 10 10.5 15t20.5 7q25 2 80 5.5t98 3.5h35q18 -1 18 -15q0 -4 -1 -17t-1 -24q-45 -344 -116.5 -674.5t-163.5 -658.5q0 -16 -52.5 -25.5t-187.5 -9.5q-35 0 -72.5 5t-44.5 26q-51 178 -102 351t-86 347q-37 -174 -90 -346t-117 -348
q0 -16 -52 -25.5t-185 -9.5q-37 0 -75 5t-44 26q-109 324 -200 650.5t-157 668.5q0 4 -1 7t-1 9z" />
    <glyph glyph-name="X" unicode="X" 
d="M8 1317q0 25 33 31q86 10 196.5 14t213.5 4q20 0 37.5 -1t21.5 -11q20 -90 55 -176t76 -172q41 82 74 169t57 179q2 8 17.5 10t35.5 2h49q117 0 186.5 -2t106.5 -7t49.5 -12.5t12.5 -17.5v-4q0 -2 -1 -4t-1 -4q-72 -182 -160 -348t-188 -322q92 -156 163.5 -321.5
t133.5 -343.5q0 -12 -48.5 -22.5t-111 -18t-126 -11.5t-93.5 -4h-56q-14 0 -30.5 4t-20.5 25q-18 63 -41.5 137t-46.5 123q-25 -55 -46 -129t-38 -137q-6 -20 -22 -21q-23 0 -64 1t-90 4t-100.5 6.5t-92 9.5t-67.5 14t-27 19q61 180 134 346t165 319q-102 154 -184 313.5
t-154 325.5q-8 14 -8 33z" />
    <glyph glyph-name="Y" unicode="Y" horiz-adv-x="1220" 
d="M6 1317q0 29 25 33q33 2 87 6t117.5 7t128 5t115.5 2q12 0 24.5 -2t16.5 -8q25 -92 59.5 -178t71.5 -170q35 80 67 161.5t62 172.5q2 8 8.5 13t19.5 8t36.5 4t62.5 1q25 0 65 -1t83 -4t81.5 -8t61.5 -11q16 -6 16 -27q0 -16 -4 -23q-78 -170 -162.5 -330.5t-177.5 -320.5
q6 -78 8.5 -158.5t2.5 -158.5q0 -88 -2 -174t-9 -172q0 -18 -18 -19q-61 -4 -120.5 -6t-121.5 -2q-61 0 -121.5 2t-119.5 6q-18 2 -19 19q4 86 6 172t2 172q0 78 -2 159.5t-6 159.5q-96 154 -188 312.5t-152 330.5q-2 8 -3 14.5t-1 12.5z" />
    <glyph glyph-name="Z" unicode="Z" horiz-adv-x="1177" 
d="M66 1059q0 59 2 133t8 135q4 23 12 29t35 10q55 8 164.5 14t247 12t287 7.5t284.5 1.5q18 -1 18 -19q0 -92 -5 -190t-13 -185t-18.5 -153t-18.5 -90q-156 -117 -300 -242t-273 -270q31 0 61.5 -1t60.5 -1q184 0 286 11t130 11q14 0 17.5 -21.5t3.5 -43.5q0 -47 -4 -105.5
t-9 -105.5q0 -10 -27.5 -17.5t-70.5 -10.5t-96 -4t-109 -1q-39 0 -118.5 2t-167.5 5t-168 5t-117 2q-16 0 -19.5 24t-3.5 77v153q0 29 3.5 46.5t15.5 35.5q96 131 195.5 238.5t199.5 202.5q-41 4 -81 5t-103 1q-70 0 -138.5 -2t-138.5 -4q-16 0 -20 12t-6 27q-4 66 -5 132
t-1 134z" />
    <glyph glyph-name="bracketleft" unicode="[" horiz-adv-x="677" 
d="M166 666q0 233 4 467.5t20 459.5q2 12 13.5 20.5t40 12.5t77 6t121.5 2q43 0 86 -2t88 -6q12 -2 21.5 -10t9.5 -23q0 -41 -3 -84t-7 -88q-2 -12 -9 -21t-22 -9q-16 2 -31.5 3t-31.5 1q-14 0 -29.5 -1t-32.5 -3q-12 -182 -16 -360.5t-4 -362.5q0 -211 5 -427t15 -448
q16 -2 34 -2h36q18 0 36.5 1t35.5 1q23 0 26.5 -11t3.5 -34q0 -25 -1 -56.5t-5 -61t-12.5 -51t-22.5 -23.5q-49 -6 -97 -8.5t-95 -2.5q-121 0 -175.5 16.5t-54.5 76.5q-6 231 -15 493t-9 535z" />
    <glyph glyph-name="backslash" unicode="\" horiz-adv-x="1134" 
d="M6 1493q0 23 14 25q18 4 46 7t57 6t55.5 4t42.5 1q72 0 96.5 -8t34.5 -35q70 -170 162 -379t194.5 -430t209 -440t204.5 -408q0 -8 -7 -13t-27.5 -8t-56.5 -4t-93 -1q-23 0 -38 2t-27.5 10t-25.5 25.5t-32 50.5q-37 61 -92 161.5t-120.5 224.5t-139.5 268t-149.5 294.5
t-149.5 300t-141 289.5q-16 37 -17 57z" />
    <glyph glyph-name="bracketright" unicode="]" horiz-adv-x="673" 
d="M18 -252q0 23 4.5 34t26.5 11q16 0 34.5 -1t37.5 -1h35q18 0 34 2q10 231 15.5 447.5t5.5 427.5q0 184 -4 362t-17 361q-16 2 -31.5 3t-29.5 1q-16 0 -31.5 -1t-31.5 -3q-14 0 -21.5 9t-9.5 21q-4 45 -7 88t-3 84q0 14 9 22.5t21 10.5q45 4 88 6t86 2q74 0 122 -2t77 -6
t40 -12t13 -21q16 -225 20.5 -459.5t4.5 -467.5q0 -272 -9.5 -534.5t-15.5 -493.5q0 -59 -54 -76t-175 -17q-47 0 -95.5 2.5t-97.5 8.5q-14 2 -22 23.5t-12.5 51t-5.5 61.5t-1 56z" />
    <glyph glyph-name="asciicircum" unicode="^" horiz-adv-x="776" 
d="M51 893q0 2 4 14q45 117 102.5 227.5t116.5 194.5q8 10 26.5 17.5t40 11.5t43.5 6t38 2q14 0 20 -8q78 -104 146.5 -226t130.5 -260q6 -12 6 -18q0 -16 -21.5 -29.5t-51 -25t-62.5 -17.5t-58 -6q-10 0 -18 12q-37 88 -78 169t-88 153q-90 -147 -164 -328q-4 -10 -14 -10
q2 0 -16.5 11.5t-41 27.5t-42 37.5t-19.5 44.5z" />
    <glyph glyph-name="underscore" unicode="_" horiz-adv-x="966" 
d="M8 -123q0 16 10 17q47 4 167 6t288 2h160q76 0 138.5 -1t106.5 -3t66 -4q12 -1 12 -13t-3 -41.5t-9 -61.5t-14 -57.5t-19 -31.5q-35 4 -155.5 7t-278.5 3t-278.5 -3t-161.5 -7q-8 0 -13.5 21.5t-8.5 51t-5 61.5t-2 54z" />
    <glyph glyph-name="grave" unicode="`" horiz-adv-x="616" 
d="M72 1303q0 104 6 158.5t43 54.5q20 0 33.5 -8.5t56.5 -28.5q76 -35 152.5 -66t148.5 -53q31 -10 31 -35q0 -27 -2 -54.5t-8.5 -50t-15.5 -37t-21 -14.5q-18 0 -39 5q-98 16 -187.5 39.5t-173.5 60.5q-10 4 -17 11t-7 18z" />
    <glyph glyph-name="a" unicode="a" horiz-adv-x="1052" 
d="M20 10v11q0 6 3 16q59 258 128.5 513t147.5 509q4 12 14.5 18t33 9.5t61 4.5t100.5 1q86 0 142.5 -2.5t88 -7.5t45 -12t17.5 -17q61 -270 115.5 -533.5t101.5 -531.5q0 -33 -31 -33q-92 0 -177 1t-177 11q-12 4 -20.5 10.5t-12.5 30.5q-4 18 -5 32.5t-3 41.5
q-25 -16 -51.5 -27.5t-32.5 -11.5q-10 0 -24.5 7t-20.5 18l-8 -43q-2 -18 -6.5 -28.5t-21.5 -16t-55 -6.5t-106 -1q-80 0 -128 1t-74.5 5.5t-35 11.5t-8.5 19zM467 276q47 29 62.5 35t33.5 6q12 0 35 -10q-10 63 -24.5 116.5t-36.5 133.5q-20 -66 -37 -136.5t-33 -144.5z
" />
    <glyph glyph-name="b" unicode="b" horiz-adv-x="1060" 
d="M53 979q0 49 9.5 72.5t21.5 31.5q37 29 117 41.5t213 12.5q115 0 219 -30t183 -92.5t126 -157.5t47 -226q0 -90 -27.5 -167t-99.5 -130q49 -23 81 -64t32 -108q0 -74 -37 -115t-92 -61.5t-119.5 -24.5t-120.5 -4q-55 -2 -117.5 -3t-119.5 -1h-72q-37 0 -88 4
q-57 4 -74.5 30.5t-19.5 78.5q0 66 -5.5 151.5t-12.5 180t-15 188.5t-14.5 174t-10.5 138t-4 81zM524 123q3 -2 21 -2q12 0 26.5 3t28.5 11t23.5 21.5t9.5 33.5t-10.5 33t-25.5 19t-34.5 9t-36.5 3q0 -18 -1 -36.5t-1 -37.5v-57zM528 350q45 0 85 22t42 81q0 45 -22.5 76.5
t-69.5 31.5h-14q-8 0 -14 -2q-4 -47 -5.5 -104.5t-1.5 -104.5z" />
    <glyph glyph-name="c" unicode="c" horiz-adv-x="1024" 
d="M66 551q0 121 43 226.5t120.5 184t184 123.5t235.5 45q55 0 93 -2t66 -6t47 -9t38 -13q14 -6 25.5 -48t18.5 -105.5t10 -141.5t3 -156q0 -31 -30 -31q-12 0 -39 7.5t-95 7.5q-106 0 -163.5 -60.5t-57.5 -152.5q0 -43 14.5 -81t41 -67.5t66.5 -47t89 -17.5q27 0 44.5 3
t28.5 6t18 6t16 3q12 0 24.5 -12t12.5 -31q0 -10 -1 -52t-6 -83q-2 -16 -23.5 -30.5t-57 -25.5t-79.5 -18.5t-91 -7.5q-115 0 -221.5 32t-190.5 102.5t-134 182t-50 269.5z" />
    <glyph glyph-name="d" unicode="d" horiz-adv-x="1042" 
d="M74 739q0 78 2 159t6 157q0 25 13.5 38t44 19t80.5 7t124 1q143 0 259 -40t197 -112.5t125 -175t44 -225.5q0 -162 -53.5 -277.5t-140.5 -190t-199.5 -109.5t-231.5 -35q-31 0 -71 5t-76.5 15.5t-64.5 24.5t-34 31q-10 172 -17 348t-7 360zM475 258q0 -27 2 -53
q20 2 46 16.5t46.5 36t34.5 51t14 66.5q0 139 -137 155q-6 -109 -6 -217v-55z" />
    <glyph glyph-name="e" unicode="e" horiz-adv-x="935" 
d="M70 1018q0 18 22.5 31.5t83 23.5t163.5 15.5t267 5.5h230q30 0 30 -31q0 -90 -7 -176t-17.5 -153.5t-21.5 -108.5t-21 -41t-27.5 1t-46.5 3t-70 3t-100 1q-2 -16 -2 -43v-43q59 2 97 4t62.5 4t40 3t33.5 1q43 0 43 -43q-4 -31 -16 -72t-22 -57q-20 -27 -160 -27h-84
q-2 -18 -3 -42.5t-1 -47.5q29 -4 55 -4h51q33 0 64.5 3t70.5 3q20 0 25.5 -12t5.5 -29q0 -57 -2 -99t-8 -83q-2 -8 -17.5 -16t-54.5 -14.5t-105.5 -9.5t-170.5 -3q-96 0 -156.5 1t-95.5 6t-50.5 17.5t-17.5 35.5q-8 59 -16 152t-16.5 198.5t-14.5 214t-10 199t-7 153
t-3 76.5z" />
    <glyph glyph-name="f" unicode="f" horiz-adv-x="919" 
d="M72 1038q2 14 45 25.5t114.5 17.5t169 9.5t207.5 3.5h232q30 0 30 -33q-10 -223 -24.5 -349t-44.5 -126q-53 0 -104.5 3t-108.5 5q0 -16 -1 -36.5t-1 -37.5q127 -2 186 -11t59 -28q-4 -47 -12 -84t-26 -78q-4 -16 -35 -20t-78 -4h-48q-26 0 -54 2q0 -74 2 -114t4 -72
q2 -23 3 -46.5t1 -41.5t-36 -28.5t-86 -17t-103.5 -7.5t-90.5 -1q-51 0 -86.5 4t-40.5 25q-10 70 -19 172t-17.5 215t-14.5 225.5t-11 204.5t-8 153.5t-3 69.5z" />
    <glyph glyph-name="g" unicode="g" horiz-adv-x="1091" 
d="M55 573q0 106 38 207t113 179.5t185.5 127t255.5 48.5q80 0 130 -6.5t87 -12.5q10 -2 19.5 -32.5t16.5 -76.5t12.5 -101.5t8.5 -108t5 -94t2 -60.5q0 -31 -31 -31q-23 0 -53.5 8.5t-87.5 8.5q-61 0 -101.5 -22.5t-63 -56.5t-31.5 -72t-9 -68q0 -49 25.5 -100.5
t93.5 -73.5q4 39 4 69v55q0 49 -4 69t-4 32t17 20t47 13.5t65.5 6.5t72.5 1h64q41 0 57 -2q31 -4 36 -12.5t5 -32.5q0 -14 -2 -65.5t-6 -116t-9 -129t-12 -105.5q0 -10 -25.5 -22.5t-66.5 -22.5t-96 -17.5t-115 -7.5q-133 0 -250.5 34t-204.5 107.5t-137.5 188.5t-50.5 274z
" />
    <glyph glyph-name="h" unicode="h" 
d="M80 1057q0 16 20.5 25.5t50 13.5t62.5 5t57 1q98 0 174 1t111 1q33 0 33 -33q0 -125 -2 -273.5t-17 -287.5q23 16 36 21.5t20 5.5q10 0 28 -23v557q0 16 21.5 25.5t52.5 13.5t62.5 5t52.5 1q18 0 66 -1t98.5 -6t90.5 -14.5t40 -23.5v-240q0 -111 -1 -201.5t-5.5 -184
t-12.5 -199t-24 -244.5q-4 -25 -31 -25q-61 0 -152.5 2.5t-171.5 8.5q-14 2 -23 5t-14 17q-4 16 -9 45t-11 63t-11 67.5t-9 60.5q-41 -41 -56.5 -50.5t-19.5 -9.5q-16 0 -29 25q-4 -45 -6 -88t-8 -96q-4 -23 -39 -27t-72 -4q-113 0 -176 1t-95 5t-39 11t-7 20l-25 612
q-4 147 -7 249.5t-3 162.5z" />
    <glyph glyph-name="i" unicode="i" horiz-adv-x="677" 
d="M80 1047q0 16 7 28t42 17q23 4 68 6t90 2q72 0 140.5 -3t129.5 -10q23 -4 31 -11t8 -27q0 -8 -5 -172t-13 -498q-4 -119 -5.5 -216t-2.5 -151q0 -29 -15.5 -37t-28.5 -8q-29 -2 -65 -2h-62q-59 0 -122.5 3t-110.5 7q-23 2 -34 15.5t-15 48.5q-16 227 -26.5 484t-10.5 524
z" />
    <glyph glyph-name="j" unicode="j" horiz-adv-x="931" 
d="M8 117q0 8 19.5 32.5t46 51t52.5 46t38 19.5q8 0 15 -2t11 -12q29 -63 78 -64q43 0 71 55.5t28 164.5q0 125 -3.5 215t-6.5 161.5t-5 132t-2 125.5q0 25 8.5 38.5t38.5 13.5q145 0 236.5 -2t141.5 -8.5t68.5 -14.5t18.5 -20q0 -197 -7 -346.5t-20.5 -259t-32 -181.5
t-38.5 -112q-59 -106 -160.5 -161t-230.5 -55q-139 0 -222 33t-128 103q-10 16 -12.5 26t-2.5 21z" />
    <glyph glyph-name="k" unicode="k" horiz-adv-x="1140" 
d="M59 1061q0 16 23.5 25.5t77 13.5t138.5 5t210 1q33 0 33 -33q0 -8 -1 -19.5t-1 -41.5v-89q0 -40 1 -77t3 -76t4 -88q39 90 78 193.5t71 207.5q8 23 31 23q33 0 97.5 -5t127 -12.5t109.5 -18.5t47 -23q0 -21 -8 -39q-27 -76 -52.5 -138.5t-54 -118t-61.5 -107.5t-76 -107
q63 -123 118.5 -250t100.5 -273q0 -25 -44 -41t-105.5 -24t-127 -12.5t-106.5 -4.5q-27 0 -33 23q-20 84 -46.5 155.5t-57.5 141.5v-47q0 -47 1 -94.5t3 -94.5q0 -16 -7 -25t-29.5 -14.5t-62.5 -6.5t-108 -1q-61 0 -110 1t-80 3q-16 2 -26.5 14.5t-16.5 44t-10.5 90
t-8.5 152.5q-6 152 -13 254.5t-13 186.5t-10.5 162.5t-4.5 183.5z" />
    <glyph glyph-name="l" unicode="l" horiz-adv-x="847" 
d="M70 1036q0 16 61.5 28.5t143 22t161.5 14.5t117 5q33 0 33 -31q-12 -330 -13 -624v-107q0 -49 2 -106q80 0 118 1t61 5q10 2 17 2h17q31 0 31 -31q-2 -55 -5 -107.5t-9 -95.5q-4 -16 -88 -31.5t-258 -15.5h-98q-54 0 -101 3t-80 9.5t-35 18.5q-10 72 -20 174t-18.5 215
t-15.5 226.5t-12 204.5t-7 151.5t-2 68.5z" />
    <glyph glyph-name="m" unicode="m" horiz-adv-x="1267" 
d="M84 647q0 109 2 213.5t10 208.5q0 14 13.5 22.5t32 13.5t41 6t40.5 1q23 0 55.5 -2t75.5 -6q43 -6 54 -29q39 -88 87 -170t99 -155q53 74 99 153.5t81 167.5q4 10 14.5 19.5t28.5 13.5q39 4 84 8t86 4q102 0 141 -10t39 -37q6 -190 7 -385q0 -162 -2.5 -325.5
t-10.5 -323.5q-2 -41 -22.5 -48t-61.5 -7q-76 0 -126 1t-86 3t-59.5 5t-43.5 7t-31.5 13t-11.5 44v27v45q0 25 1 47.5t1 30.5q-23 -51 -47.5 -101.5t-46.5 -93.5q-8 -16 -20.5 -22t-55.5 -6q-35 0 -46 4t-26 24q-35 53 -66.5 106.5t-60.5 118.5q2 -29 2 -57v-76
q0 -59 -7 -81.5t-23 -26.5t-52 -7t-114 -3q-35 0 -47.5 13t-12.5 36q-6 147 -10 306t-4 310z" />
    <glyph glyph-name="n" unicode="n" horiz-adv-x="1050" 
d="M80 754v274q0 41 12 51.5t53 12.5q68 4 111 6t68 2q45 0 64.5 -7.5t35.5 -23.5q66 -63 126 -144t107 -155q0 59 -3 126t-3 132q0 29 5.5 41t13.5 18l9 5q5 2 16.5 4t32.5 2h56q55 0 86 -1t47.5 -4t21.5 -9.5t9 -14.5q2 -8 3 -19.5t2 -38t1 -71.5v-121v-710v-61
q0 -23 -2 -36.5t-7 -20.5t-13 -14q-6 -4 -12.5 -7t-21.5 -5t-43 -3t-77 -1q-68 0 -104.5 1t-58 6t-32 15.5t-22.5 30.5q-47 76 -97 145.5t-104 137.5q4 -90 9.5 -149.5t5.5 -116.5q0 -20 -4 -33.5t-17.5 -22t-39 -11.5t-68.5 -3q-76 0 -102.5 5t-41.5 16q-16 12 -18 42.5
t-2 59.5v144q0 106 -1 242t-1 284z" />
    <glyph glyph-name="o" unicode="o" horiz-adv-x="1110" 
d="M59 575q0 119 34 220.5t98.5 175t156.5 115.5t207 42q117 0 206 -43t149.5 -116.5t91 -172t30.5 -208.5q0 -119 -30.5 -231.5t-90 -200.5t-150.5 -141.5t-210 -53.5q-111 0 -202 43t-155.5 123t-99.5 193.5t-35 254.5zM459 449q0 -80 24.5 -133.5t59.5 -53.5
q39 0 62.5 54.5t23.5 132.5q0 72 -19.5 99t-60.5 27q-53 0 -71.5 -27.5t-18.5 -98.5z" />
    <glyph glyph-name="p" unicode="p" horiz-adv-x="1140" 
d="M57 1038q0 20 33 38t88 31t128 20.5t151 7.5q143 0 258.5 -42t197.5 -117t125 -178.5t43 -226.5q0 -111 -40 -189.5t-107.5 -130.5t-157.5 -81t-190 -39v-115q0 -16 -17.5 -25t-46 -14.5t-64.5 -6.5t-71 -1h-86h-59q-23 0 -39.5 1t-30.5 3q-8 10 -20.5 75t-24.5 162
t-24.5 215t-22.5 232.5t-16.5 215t-6.5 165.5zM586 330q63 6 100 42t37 89q0 51 -36 74.5t-77 23.5h-13q-7 0 -11 -2v-227z" />
    <glyph glyph-name="q" unicode="q" horiz-adv-x="1116" 
d="M61 575q0 119 34 220.5t98.5 175t155.5 115.5t208 42q129 0 220 -48t147.5 -124.5t83 -173t26.5 -194.5q0 -121 -30.5 -231.5t-98.5 -202.5q55 14 69.5 23t26.5 9q16 0 22.5 -7t23.5 -34q23 -37 42 -79.5t39 -92.5q4 -8 5 -22q0 -20 -25 -33q-78 -35 -160 -58.5
t-168 -39.5q-16 0 -32.5 5t-20.5 21q-4 37 -14.5 69t-32.5 65q-29 -8 -60.5 -13.5t-66.5 -5.5q-111 0 -202 44t-155.5 124t-99.5 193.5t-35 252.5zM459 449q0 -80 24.5 -133.5t61.5 -53.5q39 0 61.5 54.5t22.5 132.5q0 72 -18.5 99t-59.5 27q-53 0 -72.5 -27.5t-19.5 -98.5z
" />
    <glyph glyph-name="r" unicode="r" horiz-adv-x="1187" 
d="M80 1038q0 20 30.5 37t82 29t119 18t143.5 6q152 0 272.5 -35.5t205.5 -100t130 -153t45 -190.5q0 -143 -58.5 -240.5t-156.5 -142.5q39 -45 81 -97t87 -124q4 -8 5 -12t1 -8q0 -18 -20 -31q-59 -25 -123 -47.5t-123 -38.5q-4 -2 -15.5 -4t-15.5 -2q-27 0 -43 24
q-41 82 -121 156v-66q0 -16 -18.5 -25t-47 -14.5t-63.5 -6.5t-69 -1h-117q-45 0 -80 4q-12 2 -22.5 11.5t-18.5 37t-15.5 81t-15.5 143.5t-18 222t-23 320q-2 31 -5 69t-6 74t-5 64.5t-2 42.5zM606 332q66 10 101.5 46t35.5 95q0 41 -32.5 62.5t-77.5 21.5h-27v-225z" />
    <glyph glyph-name="s" unicode="s" horiz-adv-x="839" 
d="M63 748q0 82 30 154.5t94.5 125.5t169 84t255.5 31q41 0 69 -6t32 -29q12 -49 21 -105.5t15.5 -111.5t10.5 -103.5t4 -82.5q0 -29 -29 -29q-16 0 -24.5 1t-16.5 1q-55 0 -78.5 -21.5t-23.5 -52.5q0 -29 24 -61q43 -61 73 -122t30 -126q0 -86 -34 -148.5t-95.5 -102.5
t-146.5 -58.5t-185 -18.5q-35 0 -52.5 6.5t-21.5 28.5q-8 29 -14 66.5t-6 76.5q0 33 29 33q6 0 20 -1t31 -1q16 0 35.5 2t37 10.5t29.5 21.5t12 38q0 33 -21.5 59.5t-76.5 69.5q-98 78 -147.5 166t-49.5 205z" />
    <glyph glyph-name="t" unicode="t" horiz-adv-x="978" 
d="M45 872q0 55 1 104.5t5 102.5q0 14 9.5 23.5t21.5 9.5q63 4 138 4h142q135 0 271.5 -2t265.5 -12q27 -2 31 -31q4 -53 5 -100t1 -101q0 -123 -6 -247q-2 -14 -8.5 -23.5t-22.5 -9.5h-184q-2 -53 -7.5 -123t-11.5 -147.5t-15 -158.5t-17 -157q-4 -23 -39 -31t-95 -8
q-61 0 -106 2t-86 6q-14 4 -20.5 13.5t-8.5 40.5q-10 154 -18 294t-23 273q-45 4 -91 4h-95q-31 0 -31 31q-4 59 -5 121.5t-1 121.5z" />
    <glyph glyph-name="u" unicode="u" horiz-adv-x="1030" 
d="M66 1004q0 37 10 51t39 20q84 12 149.5 14.5t128.5 2.5h61q38 0 89 -5q31 -4 43 -14t12 -57q0 -174 -5 -355.5t-5 -355.5q0 -16 7 -34.5t30 -18.5q33 0 40 33.5t7 68.5q0 160 -3 331t-3 349q0 43 20.5 54.5t99.5 11.5q47 0 78 -1t49.5 -5t27.5 -10.5t13 -16.5q2 -6 2 -15
v-16q0 -55 -3 -139t-6 -176t-6 -180t-3 -150q0 -96 -17.5 -174t-65.5 -135t-131 -88t-214 -31q-233 0 -336.5 105.5t-103.5 320.5q0 82 -1 170t-1 171t-1 153.5t-1 120.5z" />
    <glyph glyph-name="v" unicode="v" horiz-adv-x="903" 
d="M20 1061q0 16 6.5 25.5t24 13.5t48 5t77.5 1h80h73q29 0 47.5 -1t29 -2t18.5 -3q16 -4 24.5 -8.5t12.5 -18.5q8 -43 25.5 -123t45.5 -159q23 66 42.5 145.5t33.5 148.5q4 10 15.5 15.5t37 8.5t66.5 4t102 1q16 0 27.5 -4t11.5 -20q0 -10 -2 -21.5t-4 -21.5
q-41 -240 -108.5 -506.5t-145.5 -517.5q-6 -14 -50 -26.5t-152 -12.5q-31 0 -64 8t-43 31q-86 252 -153.5 499.5t-116.5 476.5q-8 41 -9 62z" />
    <glyph glyph-name="w" unicode="w" horiz-adv-x="1462" 
d="M23 1061q0 27 28 37q14 4 59.5 6t96.5 2h67q74 0 106 -1t54 -7q29 -10 31 -23q6 -41 21.5 -99t48.5 -140q20 59 37.5 121.5t23.5 103.5q4 20 18.5 29.5t49.5 13.5q23 2 73 2h94h91q45 0 73 -4q29 -4 38 -9.5t14 -17.5q8 -45 23 -103.5t46 -135.5q23 66 37 131t23 118
q2 16 14 20.5t24 8.5q20 4 62.5 6t77.5 2h28h2q29 0 29 -30q0 -14 -1 -29.5t-3 -32.5q-41 -256 -93 -509t-120 -498q-6 -23 -51 -32t-152 -9q-33 0 -66.5 6t-41.5 30q-27 80 -46.5 143.5t-33.5 117t-26.5 102.5t-22.5 102q-55 -229 -142 -458q-4 -10 -16 -18.5t-34.5 -13.5
t-60.5 -8t-93 -3q-31 0 -64 6t-43 28q-82 248 -153.5 504t-118.5 498q-4 16 -6 25.5t-2 17.5z" />
    <glyph glyph-name="x" unicode="x" horiz-adv-x="1026" 
d="M14 1036q0 16 8.5 27.5t30.5 13.5q68 10 155 13.5t167 3.5q20 0 38.5 -3.5t22.5 -17.5q29 -119 86 -237q25 53 46.5 115.5t37.5 119.5q4 14 20.5 17.5t39.5 3.5q111 0 175 -3.5t99 -9.5t45 -15.5t10 -21.5q0 -10 -8 -26q-53 -133 -118.5 -256t-141.5 -242
q68 -117 123 -246t104 -270q0 -14 -31.5 -25.5t-78.5 -19.5t-101.5 -12t-99.5 -4h-41q-18 0 -35.5 6t-23.5 30q-12 61 -23.5 94t-25.5 66q-14 -37 -25.5 -81t-22.5 -85q-4 -16 -16 -22t-22 -6q-27 0 -85.5 3t-119 10t-105.5 18.5t-45 27.5q47 141 103.5 270t124.5 246
q-76 113 -139.5 231.5t-118.5 245.5q-4 10 -6.5 20.5t-2.5 20.5z" />
    <glyph glyph-name="y" unicode="y" horiz-adv-x="1013" 
d="M12 1044q0 23 8.5 30t28.5 11q25 2 67 5.5t91 6.5t99 5t91 2q16 0 31.5 -5t20.5 -22q16 -63 36.5 -118.5t42.5 -108.5q27 55 46.5 107.5t41.5 115.5q4 16 25 24.5t86 8.5q20 0 51 -2t65 -5t64.5 -7.5t48.5 -8.5q29 -8 29 -36q0 -8 -5 -21.5t-11 -30.5
q-59 -129 -122 -245.5t-128 -229.5q4 -59 5 -123.5t1 -124.5q0 -68 -1 -135t-5 -133q-2 -27 -31 -31q-92 -6 -190 -6q-49 0 -100.5 1t-92.5 5q-12 2 -18 6.5t-6 26.5q2 66 3 132.5t1 131.5v126q0 65 -4 126q-72 115 -139.5 235t-118.5 242q-4 10 -7.5 20.5t-3.5 24.5z" />
    <glyph glyph-name="z" unicode="z" horiz-adv-x="978" 
d="M59 838q0 47 2 104t7 105q4 29 12 34.5t37 10.5q43 8 128 13t191.5 8t224 5t222.5 2h2q28 0 28 -30q0 -74 -4 -152t-11 -147.5t-15.5 -122t-14.5 -72.5q-117 -86 -223 -176t-199 -191q16 -2 28 -2h30q76 0 129 3t90 6.5t61.5 6.5t42.5 3q23 0 28 -21.5t5 -46.5
q0 -39 -2 -80t-8 -86q0 -12 -22.5 -20t-58.5 -12.5t-81 -5.5t-90 -1q-111 0 -220.5 2t-221.5 7q-25 2 -31 22.5t-6 73.5v117q0 27 5 42t15 31q66 94 137.5 172t143.5 148h-105q-86 0 -133 -2t-82 -2q-23 0 -27.5 14t-6.5 31q-4 53 -5.5 105t-1.5 104z" />
    <glyph glyph-name="braceleft" unicode="{" horiz-adv-x="708" 
d="M127 641q0 33 33 33q59 0 85.5 30.5t26.5 104.5v49q0 41 -1 99.5t-2 126t-2 126t-1 101.5v53q0 72 12.5 125t46 88t95 52.5t160.5 17.5h79q20 0 25.5 -15.5t5.5 -25.5q0 -100 -13 -141.5t-30 -41.5q-35 0 -69.5 -7t-34.5 -27q0 -27 1 -79.5t2 -119t3 -139t3 -139t2 -119
t1 -78.5q0 -53 -31.5 -93t-83.5 -65q47 -25 81 -66.5t34 -93.5q0 -39 -2 -119.5t-4 -169t-4 -168t-2 -116.5q0 -23 18.5 -30t52.5 -7h37q12 0 21.5 -9t9.5 -24q0 -23 -1 -55.5t-6 -62t-14.5 -51t-25.5 -21.5h-55q-98 0 -160 16.5t-95.5 52t-46 89t-12.5 126.5v46
q0 36 1 84.5t2 103.5t2 103t1 82v42q0 72 -17 102.5t-77 30.5q-29 0 -40 54.5t-11 144.5z" />
    <glyph glyph-name="bar" unicode="|" horiz-adv-x="593" 
d="M143 1419q0 16 23 21q41 4 104.5 8t122.5 4q23 0 40.5 -3t17.5 -17q0 -197 -7.5 -395.5t-15.5 -398.5t-15 -401.5t-7 -406.5v-158q0 -18 -17 -18q-111 0 -162 4t-51 25q0 215 -5 427t-11 427t-11.5 434t-5.5 448z" />
    <glyph glyph-name="braceright" unicode="}" horiz-adv-x="708" 
d="M18 1606q0 10 5.5 25.5t25.5 15.5h80q98 0 159.5 -17.5t95.5 -52.5t46 -88t12 -125q0 -10 -1 -53t-1 -101.5t-2 -126t-2 -126t-1 -99.5t-1 -49q0 -74 27.5 -104.5t87.5 -30.5q33 0 33 -33q0 -90 -12.5 -144.5t-41.5 -54.5q-59 0 -76.5 -30.5t-17.5 -102.5q0 -8 1 -42
t1 -82t2 -103t2 -103.5t1 -84t1 -46.5q0 -74 -12 -127t-46 -88.5t-95.5 -52t-159.5 -16.5h-57q-16 0 -25.5 21.5t-14.5 51t-6 62.5t-1 55q0 14 9 23.5t21 9.5h39q35 0 52.5 7t17.5 30q0 37 -2 116.5t-3 168t-3 169t-2 119.5q0 51 32.5 93t79.5 67q-49 25 -80.5 65t-31.5 93
q0 27 1 79t2 118.5t2 139t2 139t2 119t1 79.5q0 20 -34 27t-69 7q-16 0 -29.5 41t-13.5 142z" />
    <glyph glyph-name="asciitilde" unicode="~" horiz-adv-x="1046" 
d="M72 541q0 33 1 66.5t11 62.5q43 39 98.5 67.5t143.5 28.5q61 0 114.5 -10.5t98.5 -22.5t84 -22.5t71 -10.5q63 0 119.5 18.5t99.5 63.5q6 4 12.5 7.5t14.5 3.5q10 0 21.5 -7.5t11.5 -17.5q0 -88 -15 -158q-59 -49 -124.5 -70.5t-151.5 -21.5q-53 0 -100 10.5t-91.5 21.5
t-83 21.5t-75.5 10.5q-59 0 -105.5 -20.5t-93.5 -65.5q-12 -8 -24 -9q-23 0 -30 15.5t-7 38.5z" />
    <glyph glyph-name="uni0400" unicode="&#x400;" horiz-adv-x="1124" 
d="M80 1292q0 18 28.5 31.5t103.5 23t205 14.5t335 5h295q16 0 16 -16q0 -113 -6 -219.5t-15.5 -190.5t-21.5 -135t-23 -51q-20 0 -96 6t-237 6q-4 -35 -4.5 -74t-0.5 -74q82 0 166 8.5t131 8.5q35 0 47.5 -7t12.5 -22q-8 -47 -19.5 -88t-27.5 -88q-10 -23 -187 -22h-60
q-32 0 -67 2q-4 -29 -6 -73t-2 -85q76 -6 158 -6q43 0 87 3t87 3q16 0 16 -29q0 -72 -2 -123t-8 -104q-2 -8 -20.5 -15.5t-66.5 -13.5t-130 -9t-211 -3q-117 0 -191.5 1t-117.5 6t-60.5 17.5t-19.5 34.5q-12 78 -23.5 198t-20.5 255t-17.5 274.5t-14.5 255t-9 196.5t-3 99z
M265 1575q0 104 6 158.5t43 54.5q20 0 33.5 -8.5t56.5 -28.5q76 -35 152.5 -66t148.5 -53q31 -10 31 -35q0 -27 -2 -54.5t-8.5 -50t-15.5 -37t-21 -14.5q-18 0 -39 5q-98 16 -187.5 39.5t-173.5 60.5q-10 4 -17 11t-7 18z" />
    <glyph glyph-name="afii10023" unicode="&#x401;" horiz-adv-x="1124" 
d="M80 1292q0 18 28.5 31.5t103.5 23t205 14.5t335 5h295q16 0 16 -16q0 -113 -6 -219.5t-15.5 -190.5t-21.5 -135t-23 -51q-20 0 -96 6t-237 6q-4 -35 -4.5 -74t-0.5 -74q82 0 166 8.5t131 8.5q35 0 47.5 -7t12.5 -22q-8 -47 -19.5 -88t-27.5 -88q-10 -23 -187 -22h-60
q-32 0 -67 2q-4 -29 -6 -73t-2 -85q76 -6 158 -6q43 0 87 3t87 3q16 0 16 -29q0 -72 -2 -123t-8 -104q-2 -8 -20.5 -15.5t-66.5 -13.5t-130 -9t-211 -3q-117 0 -191.5 1t-117.5 6t-60.5 17.5t-19.5 34.5q-12 78 -23.5 198t-20.5 255t-17.5 274.5t-14.5 255t-9 196.5t-3 99z
M199 1769q0 29 30.5 35t100.5 6q55 0 87 -1t48 -8t20 -22.5t4 -46.5q0 -53 -3 -113.5t-9 -95.5q-4 -18 -22.5 -23t-73.5 -5q-31 0 -62.5 1t-58.5 6t-43 12t-16 20q0 33 2 66.5t2 68.5q0 25 -3 50t-3 50zM633 1769q0 29 29.5 35t99.5 6q55 0 88 -1t49 -8t20.5 -22.5
t4.5 -46.5q0 -53 -3 -113.5t-10 -95.5q-4 -18 -23.5 -23t-72.5 -5q-31 0 -63.5 1t-58 6t-42 12t-16.5 20q0 33 2 66.5t2 68.5q0 25 -3 50t-3 50z" />
    <glyph glyph-name="afii10051" unicode="&#x402;" horiz-adv-x="1402" 
d="M37 1104q0 72 1 134t5 134q0 18 18 19q45 2 81 3t70 1h69h81q176 0 357.5 -4.5t355.5 -14.5q18 0 19 -18q4 -70 5 -129.5t1 -126.5q0 -80 -2 -160l-4 -160q0 -18 -19 -18h-139q-78 0 -139 -2l-11 -158q29 4 63 6t73 2q104 0 185 -12t136 -51t85 -108.5t30 -182.5
q0 -94 -32 -158.5t-84 -104.5t-117.5 -57.5t-133.5 -17.5q-39 0 -75.5 7t-64.5 19.5t-45.5 28t-17.5 31.5q-4 68 -5 112t-1 54q0 35 17 35q10 0 18 -8.5t31 -8.5q16 0 25.5 27t9.5 100q0 53 -22.5 69.5t-45.5 16.5t-34 -9t-13 -21q-14 -84 -19.5 -188.5t-19.5 -198.5
q-4 -23 -42 -27t-107 -4q-76 0 -133.5 3t-110.5 7q-10 2 -14.5 11.5t-6.5 39.5q-6 199 -20 387.5t-31 362.5q-33 2 -56.5 3t-45.5 1h-44h-57q-18 0 -18 18q-6 156 -6 316z" />
    <glyph glyph-name="afii10052" unicode="&#x403;" horiz-adv-x="1034" 
d="M59 920q0 123 5.5 232.5t17.5 186.5q0 8 54 16.5t129 14.5t157 9t137 3q217 0 320.5 -13t105.5 -28q4 -29 7 -103.5t5 -159.5t4.5 -163.5t2.5 -113.5q0 -18 -19 -19q-23 0 -72 6.5t-147 6.5h-40q-19 0 -38 -2q-6 -238 -6 -461q0 -178 6 -352q0 -16 -18 -17q-31 0 -81 1
t-107.5 2t-117 4t-109.5 7.5t-84 9.5t-40 13q-12 14 -24.5 103.5t-23.5 220.5t-17.5 287.5t-6.5 308.5zM340 1597q0 23 32 35q72 23 149 53.5t153 65.5q20 10 33.5 17t22.5 11t16 6.5t18 2.5q35 0 41 -54.5t6 -158.5q0 -20 -23 -29q-86 -37 -174 -60.5t-186 -39.5
q-10 -2 -21.5 -3.5t-19.5 -1.5q-12 0 -21.5 14.5t-15.5 37t-8 50t-2 54.5z" />
    <glyph glyph-name="afii10053" unicode="&#x404;" horiz-adv-x="1234" 
d="M72 688q0 152 53 284t148.5 230t229.5 155.5t294 57.5q70 0 119 -3t84.5 -7t61 -11.5t48.5 -15.5q14 -6 26.5 -58t19.5 -131t11 -176.5t4 -195.5q0 -16 -18 -16q-16 0 -52 9t-120 9q-117 0 -192.5 -55t-104.5 -146q41 0 87 3.5t90 6.5t81 5t59 2q35 0 47.5 -7t12.5 -22
q-8 -47 -19.5 -88t-27.5 -88q-10 -23 -187 -22h-135q29 -80 100.5 -133.5t176.5 -53.5q37 0 59.5 4t37.5 8.5t23.5 8.5t16.5 4q10 0 17 -9.5t7 -25.5q0 -10 -1 -55t-7 -115q0 -16 -26.5 -31.5t-68.5 -28t-96 -19.5t-112 -7q-141 0 -275 40t-239.5 128t-169 227t-63.5 338z
" />
    <glyph glyph-name="afii10054" unicode="&#x405;" horiz-adv-x="1003" 
d="M72 942q0 102 36.5 191.5t117.5 156t212 104.5t320 38q47 0 75.5 -5.5t32.5 -21.5q14 -66 26.5 -137.5t22 -142t13.5 -133t4 -105.5q0 -16 -25 -17q-8 0 -17 2t-26 2q-84 0 -118.5 -33.5t-34.5 -82.5q0 -23 6 -44.5t28 -49.5q59 -76 94 -151t35 -155q0 -106 -43 -182
t-118.5 -125t-181 -71.5t-228.5 -22.5q-37 0 -53.5 4t-22.5 27q-10 37 -17 84t-7 96q0 16 26.5 15t63.5 3q76 8 120 35t44 76q0 47 -32 87t-108 99q-123 98 -184 208t-61 251z" />
    <glyph glyph-name="afii10055" unicode="&#x406;" horiz-adv-x="800" 
d="M96 1327q0 16 6.5 25.5t36.5 13.5q31 4 88.5 6t114.5 2q90 0 177 -3t167 -13q18 -4 24.5 -7.5t6.5 -17.5q0 -18 -1 -39.5t-2 -58.5t-3 -95.5t-4 -148.5t-5.5 -218t-7.5 -306q-4 -164 -6 -285t-2 -190q0 -27 -12 -31t-25 -4q-41 -2 -82 -2h-82q-74 0 -155.5 4t-141.5 8
q-23 2 -32 15.5t-11 48.5q-20 293 -34.5 623.5t-14.5 672.5z" />
    <glyph glyph-name="afii10056" unicode="&#x407;" horiz-adv-x="800" 
d="M41 1769q0 29 30.5 35t100.5 6q55 0 87 -1t48 -8t20 -22.5t4 -46.5q0 -53 -3 -113.5t-9 -95.5q-4 -18 -22.5 -23t-73.5 -5q-31 0 -62.5 1t-58.5 6t-43 12t-16 20q0 33 2 66.5t2 68.5q0 25 -3 50t-3 50zM96 1327q0 16 6.5 25.5t36.5 13.5q31 4 88.5 6t114.5 2q90 0 177 -3
t167 -13q18 -4 24.5 -7.5t6.5 -17.5q0 -18 -1 -39.5t-2 -58.5t-3 -95.5t-4 -148.5t-5.5 -218t-7.5 -306q-4 -164 -6 -285t-2 -190q0 -27 -12 -31t-25 -4q-41 -2 -82 -2h-82q-74 0 -155.5 4t-141.5 8q-23 2 -32 15.5t-11 48.5q-20 293 -34.5 623.5t-14.5 672.5zM475 1769
q0 29 29.5 35t99.5 6q55 0 88 -1t49 -8t20.5 -22.5t4.5 -46.5q0 -53 -3 -113.5t-10 -95.5q-4 -18 -23.5 -23t-72.5 -5q-31 0 -63.5 1t-58 6t-42 12t-16.5 20q0 33 2 66.5t2 68.5q0 25 -3 50t-3 50z" />
    <glyph glyph-name="afii10057" unicode="&#x408;" horiz-adv-x="1120" 
d="M0 135q0 8 22.5 35t53 55.5t60.5 50t44 21.5q10 0 13 -6q27 -53 54 -73.5t68 -20.5q66 0 107 78.5t41 228.5q0 162 -3 279.5t-7 210.5t-7.5 171t-3.5 158q0 23 7.5 33t31.5 10q180 0 294 -2t177.5 -6t86 -10.5t22.5 -16.5q0 -252 -9.5 -443.5t-25.5 -330.5t-39.5 -231.5
t-50.5 -143.5q-74 -135 -201 -200.5t-284 -65.5q-174 0 -275.5 41t-155.5 127q-8 10 -14 22.5t-6 28.5z" />
    <glyph glyph-name="afii10058" unicode="&#x409;" horiz-adv-x="2154" 
d="M8 -12q0 20 9.5 49t25.5 67q18 51 31.5 75t42.5 24q10 0 24.5 -5t24.5 -5q47 0 78.5 87t31.5 224q0 162 -3 279.5t-6 210.5t-6 171t-3 158q0 23 6 33t29 10q127 2 272 4q123 2 283 3t332 1q18 0 73.5 -2t112.5 -9t103.5 -20.5t46.5 -33.5l6 -160q154 0 263 -35
t179 -105.5t101.5 -179t31.5 -258.5q0 -154 -62.5 -268.5t-170 -192t-252 -116.5t-307.5 -39q-66 0 -137.5 4t-123.5 8q-47 4 -58 22.5t-11 71.5q0 57 -1 139.5t-1 178.5t-1 200.5t-1 206.5q-23 2 -46.5 3.5t-45.5 1.5q-23 0 -45.5 -1.5t-45.5 -3.5q-12 -233 -36.5 -384.5
t-57.5 -219.5q-66 -135 -178.5 -200.5t-249.5 -65.5q-133 0 -195.5 26.5t-62.5 45.5zM1532 279q23 -8 51 -9q27 0 53.5 8.5t47 27t34 47t13.5 69.5q0 82 -53.5 136t-145.5 54v-333z" />
    <glyph glyph-name="afii10059" unicode="&#x40a;" horiz-adv-x="2066" 
d="M90 1339q0 14 24.5 21.5t59.5 11.5t73 5t66 1q16 0 47 -1t66 -1t66.5 -1t50.5 -1q53 0 82.5 2t56.5 4q18 0 18 -18q0 -80 -1 -179.5t-4 -204t-8 -207.5t-13 -193q41 41 63.5 56t32.5 15q8 0 21.5 -20.5t39.5 -75.5v809q0 12 25 19.5t60.5 10.5t72.5 4t62 1
q109 0 180.5 -5.5t114.5 -14.5t61 -21.5t18 -24.5v-164q121 -10 228.5 -42.5t187.5 -96t127 -159t47 -230.5q0 -147 -50 -272t-143 -215.5t-226.5 -140.5t-299.5 -50q-98 0 -199.5 7t-187.5 16q-31 4 -48 23.5t-19 49.5q-6 129 -8.5 201t-2.5 88q-66 -72 -87 -89t-23 -17
q-6 0 -14.5 14t-16.5 33l-16 37q-8 18 -10 24q-2 -86 -7.5 -159.5t-15.5 -170.5q-4 -16 -41 -20t-78 -4q-137 0 -215 1t-116.5 4t-48 8t-9.5 13l-31 791q-8 199 -10 325t-2 203zM1380 260q29 -2 57 -2h40q29 0 56.5 8t50 26.5t35.5 46.5t13 67q0 72 -59.5 120.5t-169.5 59.5
q-4 -78 -9 -158t-14 -168z" />
    <glyph glyph-name="afii10060" unicode="&#x40b;" horiz-adv-x="1402" 
d="M37 1104q0 72 1 134t5 134q0 18 18 19q45 2 81 3t70 1h69h81q176 0 357.5 -4.5t355.5 -14.5q19 0 19 -18q4 -70 5 -129.5t1 -126.5q0 -80 -2 -160l-4 -160q0 -18 -19 -18h-139q-78 0 -139 -2l-11 -158q29 4 63 6t73 2q217 0 313 -60t96 -183q0 -47 1 -97.5t1 -97.5t1 -88
t1 -68q0 -23 -9 -29.5t-36 -11.5q-72 -8 -119 -9t-100 -1h-76q-18 0 -40.5 1t-42 6.5t-34 13.5t-14.5 22q0 98 3 181t3 182q0 10 -16 20t-39 10t-34 -9t-13 -21q-14 -84 -19.5 -188.5t-19.5 -198.5q-4 -23 -42 -27t-107 -4q-76 0 -133.5 3t-110.5 7q-10 2 -14.5 11.5
t-6.5 39.5q-6 199 -20 387.5t-31 362.5q-33 2 -56.5 3t-45.5 1h-44h-57q-18 0 -18 18q-6 156 -6 316z" />
    <glyph glyph-name="afii10061" unicode="&#x40c;" horiz-adv-x="1378" 
d="M63 1348q0 12 29 19t94.5 10t172 4t259.5 1q18 0 19 -18q0 -23 -1 -42t-1 -38q0 -129 5 -260t15 -254q59 137 120 288.5t110 311.5q2 12 18 12q27 0 72 -2t97 -5t104.5 -8t95.5 -11t70.5 -13.5t27.5 -15.5q0 -16 -8 -39q-33 -96 -65.5 -178t-71.5 -155.5t-84 -142.5
t-101 -140q84 -160 157 -326t130 -356q0 -23 -54 -37t-130 -22.5t-156 -11.5t-131 -3q-14 0 -18 10q-35 119 -80 240t-99 231q-2 -41 -2 -77v-78q0 -121 7 -244q0 -12 -9.5 -20.5t-35 -11.5t-73.5 -4t-128 -1h-141q-60 0 -101 4q-16 2 -25.5 15.5t-15.5 53.5t-11 111.5
t-11 188.5q-10 174 -19.5 321.5t-15.5 272.5t-10.5 228.5t-4.5 191.5zM535 1597q0 23 32 35q72 23 149 53.5t153 65.5q20 10 33.5 17t22.5 11t16 6.5t18 2.5q35 0 41 -54.5t6 -158.5q0 -20 -23 -29q-86 -37 -174 -60.5t-186 -39.5q-10 -2 -21.5 -3.5t-19.5 -1.5
q-12 0 -21.5 14.5t-15.5 37t-8 50t-2 54.5z" />
    <glyph glyph-name="uni040D" unicode="&#x40d;" horiz-adv-x="1269" 
d="M90 526q0 139 2 263t2 247v153q0 58 1 90t2 46.5t5 24.5q2 6 7.5 11t24 7t56 3t103.5 1h67q25 0 38.5 -1t18.5 -3t9 -4q8 -6 10 -18.5t2 -40.5q0 -102 -3 -209t-3 -211q31 53 69 113.5t82 122t92 118.5t97 104q16 16 40 23.5t73 7.5q33 0 87 -2t138 -6q41 -4 55.5 -14.5
t14.5 -46.5v-234q0 -123 -1 -246t-2 -239.5t-2 -215t-1 -172.5v-110q0 -37 -2.5 -70.5t-14.5 -44.5q-6 -6 -15 -11t-27.5 -7t-49.5 -3t-78 -1q-49 0 -77.5 3t-43 10t-18.5 20.5t-4 33.5q0 39 2 78t5 86t5 105.5t4 134.5q-76 -92 -149.5 -192.5t-124.5 -182.5
q-23 -37 -40.5 -56.5t-45 -28.5t-74.5 -11t-127 -2q-59 0 -92 1t-51.5 4t-25.5 5t-13 6q-8 6 -12.5 21.5t-8.5 62.5q-4 31 -5 155t-1 322zM400 1575q0 104 6 158.5t43 54.5q20 0 33.5 -8.5t56.5 -28.5q76 -35 152.5 -66t148.5 -53q31 -10 31 -35q0 -27 -2 -54.5t-8.5 -50
t-15.5 -37t-21 -14.5q-18 0 -39 5q-98 16 -187.5 39.5t-173.5 60.5q-10 4 -17 11t-7 18z" />
    <glyph glyph-name="afii10062" unicode="&#x40e;" 
d="M8 1317q0 25 33 31q86 10 196.5 14t213.5 4q20 0 37.5 -1t21.5 -11q20 -90 55 -176t76 -172q41 82 74 169t57 179q2 8 17.5 10t35.5 2h49q117 0 186.5 -2t106.5 -7t49.5 -12.5t12.5 -17.5v-4q0 -2 -1 -4t-1 -4q-86 -217 -195.5 -417t-226.5 -396q-80 -135 -153.5 -270.5
t-133.5 -284.5q-8 -20 -22 -21q-23 0 -64 1t-90 4t-100.5 6.5t-92 9.5t-67.5 14t-27 19q61 180 134 346t165 319q-102 154 -184 313.5t-154 325.5q-8 14 -8 33zM322 1759q0 14 19.5 24.5t48 14.5t60 6t54.5 2q10 0 20.5 -9t12.5 -22q4 -41 21.5 -77.5t58.5 -36.5t58 28.5
t21 71.5q2 10 12.5 17.5t20.5 11.5q31 6 60.5 10t64.5 4q16 0 38 -4t22 -27q0 -74 -26 -131t-67 -96t-95 -58.5t-109 -19.5t-108.5 17.5t-94.5 53.5t-66.5 91t-25.5 129z" />
    <glyph glyph-name="afii10145" unicode="&#x40f;" horiz-adv-x="1501" 
d="M117 639q0 182 5 362q5 181 30 369q2 14 18 14q39 0 100.5 -1t128 -2t133 -4t119.5 -7q16 0 17 -18q0 2 2 -47.5t4 -134.5t5 -197.5t5 -238.5t4 -258t2 -253h76q35 0 70 2q2 61 4 148.5t5 188t6 208t7 210.5t9 196.5t14 162.5q4 16 40.5 20.5t77.5 4.5q137 0 218 -1
t122 -4t53.5 -8t12.5 -14q4 -227 5 -399t1 -305q0 -164 -2 -269.5t-3 -173t-3 -106.5t-2 -66q0 -16 -31 -26t-82 -17.5t-117.5 -10.5t-136.5 -5q-4 -111 -4 -194v-138q0 -27 -12 -31t-25 -4q-41 -2 -82 -2h-82q-74 0 -155.5 4.5t-141.5 8.5q-23 2 -31.5 15t-11.5 48l-20 293
q-66 2 -126 4t-105 7t-72 11.5t-27 14.5q-16 221 -19 375.5t-3 267.5z" />
    <glyph glyph-name="afii10017" unicode="&#x410;" horiz-adv-x="1271" 
d="M10 -14q0 8 4 20q82 338 169 669t192 660q4 10 14 16.5t37 9.5t73 4t122 1q106 0 174.5 -2t108.5 -6t55.5 -11.5t17.5 -15.5q80 -348 148.5 -686t134.5 -682v-6q0 -14 -17 -14q-117 0 -232.5 2t-232.5 12q-10 2 -16 7t-8 28l-13 133q-29 -27 -69.5 -48.5t-50.5 -21.5
q-18 0 -36 29t-24 49l-18 -119q-4 -16 -10.5 -26.5t-28 -15.5t-66.5 -7t-125 -2q-166 0 -234.5 4t-68.5 19zM559 328q57 41 81 55t40 14q12 0 26.5 -10t45.5 -51q-20 98 -41 194.5t-49 194.5q-35 -98 -58.5 -196.5t-44.5 -200.5z" />
    <glyph glyph-name="afii10018" unicode="&#x411;" horiz-adv-x="1345" 
d="M98 569v105q0 63 1 138t2 153.5t3 150.5t4.5 131.5t4.5 93.5q2 10 6 27.5t39 22.5q63 6 136 9t150 3q164 0 331 -8.5t300 -14.5q18 0 19 -16q4 -57 5 -106.5t1 -106.5q0 -66 -2 -133.5t-4 -132.5q0 -14 -19 -15h-83h-109q-56 0 -108 -1t-83 -1q-2 -14 -3 -28.5t-1 -30.5
q121 -6 228.5 -29.5t188.5 -68.5t128 -112t47 -161q0 -104 -40 -192t-126 -150.5t-223 -98.5t-332 -36q-90 0 -173 5t-146.5 14.5t-100.5 21.5t-37 27q0 43 -1 104.5t-1 134t-1 150.5t-1 151zM674 176q12 -4 31.5 -5t33.5 -1q57 0 106.5 24.5t49.5 77.5q0 55 -55.5 92
t-151.5 37z" />
    <glyph glyph-name="afii10019" unicode="&#x412;" horiz-adv-x="1280" 
d="M57 1243q0 55 8.5 81t18.5 34q47 35 147.5 49t268.5 14q117 0 229.5 -22.5t216.5 -81.5q131 -78 203 -210t72 -314q0 -121 -42 -223.5t-149 -166.5q72 -23 122 -73.5t50 -141.5q0 -88 -45 -137t-110.5 -72.5t-140.5 -28.5t-136 -5q-84 -2 -163 -4t-165 -2q-94 0 -204 6
q-59 2 -79 32.5t-22 83.5q-4 125 -12 284t-19.5 320.5t-23.5 313t-25 264.5zM621 161q0 -24 2 -46q10 -2 20.5 -3t26.5 -1q18 0 41.5 6t45 19.5t37 35t15.5 51.5q0 37 -20.5 57.5t-49 32t-59.5 13.5t-53 2q-6 -59 -6 -119v-48zM627 408q8 -2 26 -2q31 0 61.5 8t57.5 26.5
t44.5 48t17.5 72.5q0 68 -34 116t-106 48q-14 0 -28.5 -2t-28.5 -8q-6 -76 -8 -153t-2 -154z" />
    <glyph glyph-name="afii10020" unicode="&#x413;" horiz-adv-x="1034" 
d="M59 920q0 123 5.5 232.5t17.5 186.5q0 8 54 16.5t129 14.5t157 9t137 3q217 0 320.5 -13t105.5 -28q4 -29 7 -103.5t5 -159.5t4.5 -163.5t2.5 -113.5q0 -18 -19 -19q-23 0 -72 6.5t-147 6.5h-40q-19 0 -38 -2q-6 -238 -6 -461q0 -178 6 -352q0 -16 -18 -17q-31 0 -81 1
t-107.5 2t-117 4t-109.5 7.5t-84 9.5t-40 13q-12 14 -24.5 103.5t-23.5 220.5t-17.5 287.5t-6.5 308.5z" />
    <glyph glyph-name="afii10021" unicode="&#x414;" horiz-adv-x="1757" 
d="M-4 184q0 6 23.5 10.5t63.5 7.5t91 5t109 4q35 31 56 108.5t21 184.5q0 162 -3 279.5t-6 210.5t-6 171t-3 158q0 23 7 33t30 10q135 2 291 4q133 2 303 3t354 1q84 0 166 -3t158 -13q16 -4 22 -7t6 -18q-6 -276 -14 -553.5t-12 -576.5q72 -4 71 -8v-144q0 -66 -2 -122
t-8 -112.5t-17 -117.5t-30 -137q-4 -6 -18 -6q-145 0 -234.5 2t-138.5 6t-65.5 9t-16.5 11q0 -2 -8 88t-8 258h-621q-4 -86 -12 -171t-29 -183q-4 -8 -39 -9t-74 -1h-203q-73 0 -110 2t-45 4t-8 6l-29 363q-8 92 -10 150.5t-2 92.5zM821 213h149q74 0 160 -2
q-10 137 -16 283.5t-10 291.5q-25 2 -49.5 3.5t-48.5 1.5q-23 0 -47.5 -1.5t-49.5 -3.5q-12 -211 -35.5 -354t-52.5 -219z" />
    <glyph glyph-name="afii10022" unicode="&#x415;" horiz-adv-x="1124" 
d="M80 1292q0 18 28.5 31.5t103.5 23t205 14.5t335 5h295q16 0 16 -16q0 -113 -6 -219.5t-15.5 -190.5t-21.5 -135t-23 -51q-20 0 -96 6t-237 6q-4 -35 -4.5 -74t-0.5 -74q82 0 166 8.5t131 8.5q35 0 47.5 -7t12.5 -22q-8 -47 -19.5 -88t-27.5 -88q-10 -23 -187 -22h-60
q-32 0 -67 2q-4 -29 -6 -73t-2 -85q76 -6 158 -6q43 0 87 3t87 3q16 0 16 -29q0 -72 -2 -123t-8 -104q-2 -8 -20.5 -15.5t-66.5 -13.5t-130 -9t-211 -3q-117 0 -191.5 1t-117.5 6t-60.5 17.5t-19.5 34.5q-12 78 -23.5 198t-20.5 255t-17.5 274.5t-14.5 255t-9 196.5t-3 99z
" />
    <glyph glyph-name="afii10024" unicode="&#x416;" horiz-adv-x="1945" 
d="M43 1337q0 12 56.5 21.5t130 17.5t147.5 12.5t112 4.5q12 0 17 -13q39 -135 84 -268t90 -254q-6 233 -6 469q0 16 5 25.5t34 13.5t79 6t101 2q80 0 157.5 -3t149.5 -13q16 -4 21.5 -7t5.5 -18l-15 -526q55 129 110.5 271.5t102.5 291.5q2 12 19 12q27 0 72 -2t97 -5
t104 -8t95 -11t71 -13.5t28 -15.5q0 -16 -8 -39q-33 -96 -66 -178t-72 -155.5t-84 -142.5t-100 -140q84 -160 160 -330t133 -360q0 -23 -54.5 -37.5t-130 -22.5t-155.5 -11t-131 -3q-14 0 -19 10q-35 117 -81 237.5t-99 231.5q-4 -135 -4 -236v-159q0 -27 -11 -31t-22 -4
q-37 -2 -74 -2h-73q-66 0 -138.5 4t-125.5 8q-18 2 -27.5 15.5t-11.5 48.5l-19 346q-47 -109 -91 -223.5t-77 -227.5q-2 -10 -16 -10q-49 0 -125 3t-147.5 11.5t-122.5 22.5t-51 37q57 190 128.5 356t153.5 326q-53 72 -95 142.5t-78 145t-66.5 158.5t-59.5 180q-8 23 -8 39
z" />
    <glyph glyph-name="afii10025" unicode="&#x417;" horiz-adv-x="1026" 
d="M20 1290q0 27 25 49.5t67 38t97 23.5t119 8q135 0 251.5 -35t203.5 -108.5t137.5 -188t50.5 -274.5q0 -86 -17.5 -152.5t-47 -114t-70.5 -80t-88 -50.5q78 -23 118.5 -81.5t40.5 -125.5q0 -135 -141 -202t-401 -67q-92 0 -118 4.5t-26 18.5q0 20 2 50t7.5 57.5t13.5 47
t18 19.5q12 0 21.5 -4t44.5 -4q94 0 134 33.5t40 68.5q0 23 -7.5 41.5t-29 31.5t-63.5 20.5t-109 7.5q-20 0 -23.5 27.5t-3.5 74.5q0 14 1 23.5t12 9.5q14 0 33.5 -1t54.5 -1q92 0 126.5 34.5t34.5 90.5q0 49 -38.5 83.5t-139.5 34.5q-35 0 -55.5 -3t-32.5 -6t-18 -6t-13 -3
q-14 0 -35.5 38t-45 96t-47 130t-42 139.5t-30 124t-11.5 82.5z" />
    <glyph glyph-name="afii10026" unicode="&#x418;" horiz-adv-x="1269" 
d="M90 526q0 139 2 263t2 247v153q0 58 1 90t2 46.5t5 24.5q2 6 7.5 11t24 7t56 3t103.5 1h67q25 0 38.5 -1t18.5 -3t9 -4q8 -6 10 -18.5t2 -40.5q0 -102 -3 -209t-3 -211q31 53 69 113.5t82 122t92 118.5t97 104q16 16 40 23.5t73 7.5q33 0 87 -2t138 -6q41 -4 55.5 -14.5
t14.5 -46.5v-234q0 -123 -1 -246t-2 -239.5t-2 -215t-1 -172.5v-110q0 -37 -2.5 -70.5t-14.5 -44.5q-6 -6 -15 -11t-27.5 -7t-49.5 -3t-78 -1q-49 0 -77.5 3t-43 10t-18.5 20.5t-4 33.5q0 39 2 78t5 86t5 105.5t4 134.5q-76 -92 -149.5 -192.5t-124.5 -182.5
q-23 -37 -40.5 -56.5t-45 -28.5t-74.5 -11t-127 -2q-59 0 -92 1t-51.5 4t-25.5 5t-13 6q-8 6 -12.5 21.5t-8.5 62.5q-4 31 -5 155t-1 322z" />
    <glyph glyph-name="afii10027" unicode="&#x419;" horiz-adv-x="1269" 
d="M90 526q0 139 2 263t2 247v153q0 58 1 90t2 46.5t5 24.5q2 6 7.5 11t24 7t56 3t103.5 1h67q25 0 38.5 -1t18.5 -3t9 -4q8 -6 10 -18.5t2 -40.5q0 -102 -3 -209t-3 -211q31 53 69 113.5t82 122t92 118.5t97 104q16 16 40 23.5t73 7.5q33 0 87 -2t138 -6q41 -4 55.5 -14.5
t14.5 -46.5v-234q0 -123 -1 -246t-2 -239.5t-2 -215t-1 -172.5v-110q0 -37 -2.5 -70.5t-14.5 -44.5q-6 -6 -15 -11t-27.5 -7t-49.5 -3t-78 -1q-49 0 -77.5 3t-43 10t-18.5 20.5t-4 33.5q0 39 2 78t5 86t5 105.5t4 134.5q-76 -92 -149.5 -192.5t-124.5 -182.5
q-23 -37 -40.5 -56.5t-45 -28.5t-74.5 -11t-127 -2q-59 0 -92 1t-51.5 4t-25.5 5t-13 6q-8 6 -12.5 21.5t-8.5 62.5q-4 31 -5 155t-1 322zM371 1759q0 14 19.5 24.5t48 14.5t60 6t54.5 2q10 0 20.5 -9t12.5 -22q4 -41 21.5 -77.5t58.5 -36.5t58 28.5t21 71.5q2 10 12.5 17.5
t20.5 11.5q31 6 60.5 10t64.5 4q16 0 38 -4t22 -27q0 -74 -26 -131t-67 -96t-95 -58.5t-109 -19.5t-108.5 17.5t-94.5 53.5t-66.5 91t-25.5 129z" />
    <glyph glyph-name="afii10028" unicode="&#x41a;" horiz-adv-x="1378" 
d="M63 1348q0 12 29 19t94.5 10t172 4t259.5 1q18 0 19 -18q0 -23 -1 -42t-1 -38q0 -129 5 -260t15 -254q59 137 120 288.5t110 311.5q2 12 18 12q27 0 72 -2t97 -5t104.5 -8t95.5 -11t70.5 -13.5t27.5 -15.5q0 -16 -8 -39q-33 -96 -65.5 -178t-71.5 -155.5t-84 -142.5
t-101 -140q84 -160 157 -326t130 -356q0 -23 -54 -37t-130 -22.5t-156 -11.5t-131 -3q-14 0 -18 10q-35 119 -80 240t-99 231q-2 -41 -2 -77v-78q0 -121 7 -244q0 -12 -9.5 -20.5t-35 -11.5t-73.5 -4t-128 -1h-141q-60 0 -101 4q-16 2 -25.5 15.5t-15.5 53.5t-11 111.5
t-11 188.5q-10 174 -19.5 321.5t-15.5 272.5t-10.5 228.5t-4.5 191.5z" />
    <glyph glyph-name="afii10029" unicode="&#x41b;" horiz-adv-x="1796" 
d="M8 -12q0 20 11.5 49t27.5 67q23 51 39 75t45 24q10 0 26.5 -5t28.5 -5q55 0 91 87t36 224q0 162 -3 279.5t-7 210.5t-7 171t-3 158q0 23 7 33t32 10q145 2 309 4q141 2 321.5 3t374.5 1q90 0 177.5 -3t166.5 -13q18 -4 24.5 -7.5t6.5 -17.5q0 -18 -1 -39.5t-2 -58.5
t-3 -95.5t-4 -148.5t-5 -218t-7 -306q-4 -164 -6.5 -285t-2.5 -190q0 -27 -12 -31t-24 -4q-41 -2 -82 -2h-82q-74 0 -156 4t-141 8q-29 2 -35 15.5t-8 48.5q-12 170 -22.5 365.5t-16.5 389.5q-27 2 -52.5 3.5t-52.5 1.5q-25 0 -50 -1.5t-52 -3.5q-16 -233 -44 -384.5
t-65 -219.5q-74 -135 -201.5 -200.5t-283.5 -65.5q-152 0 -222.5 26.5t-70.5 45.5z" />
    <glyph glyph-name="afii10030" unicode="&#x41c;" horiz-adv-x="1538" 
d="M98 813q0 139 2 275.5t11 271.5q0 10 14 16t34.5 9.5t45 4.5t47.5 1q33 0 69.5 -2.5t96.5 -8.5q23 -4 34 -11t21 -23q55 -113 120.5 -224.5t137.5 -214.5q72 98 137.5 213t116.5 232q6 23 37 28q49 6 106.5 10.5t110.5 4.5q117 0 162 -7.5t45 -27.5q6 -125 8 -249t2 -249
q0 -209 -5 -421t-11 -418q-2 -35 -22.5 -41.5t-61.5 -6.5q-109 0 -175.5 1t-108.5 3.5t-67.5 6.5t-52.5 8q-27 6 -32 14t-5 39q0 117 2.5 196t6.5 152q-35 -109 -79 -210t-93 -187q-4 -8 -8.5 -12t-12.5 -6.5t-20.5 -3.5t-34.5 -1q-39 0 -50.5 4.5t-23.5 22.5
q-63 90 -116.5 189.5t-96.5 216.5q4 -43 6 -111t2 -188q0 -70 -6 -93.5t-16 -25.5q-16 -6 -60.5 -9.5t-146.5 -3.5q-35 0 -45 9.5t-10 31.5q-6 193 -10.5 393.5t-4.5 401.5z" />
    <glyph glyph-name="afii10031" unicode="&#x41d;" horiz-adv-x="1501" 
d="M90 1339q0 14 24.5 21.5t59.5 11.5t73 5t66 1q16 0 47 -1t66 -1t66.5 -1t50.5 -1q53 0 82.5 2t56.5 4q18 0 18 -18q0 -80 -1 -179.5t-4 -204t-8 -207.5t-13 -193q41 41 63.5 56t32.5 15q8 0 21.5 -20.5t39.5 -75.5v809q0 12 25 19.5t60.5 10.5t72.5 4t62 1q20 0 79.5 -1
t122 -5.5t110.5 -10.5t48 -18v-309q0 -141 -2 -265t-8 -247t-18.5 -257t-32.5 -296q-2 -14 -19 -15q-41 0 -98 1t-119.5 2t-127 4.5t-116.5 7.5q-16 0 -16 18q0 -2 -2 19.5t-4 55.5t-5 76t-5 80.5t-4.5 68.5t-2.5 40q-66 -72 -87 -89t-23 -17q-6 0 -14.5 14t-16.5 33l-16 37
q-8 18 -10 24q-2 -86 -7.5 -159.5t-15.5 -170.5q-4 -16 -41 -20t-78 -4q-137 0 -215 1t-116.5 4t-48 8t-9.5 13l-31 791q-8 199 -10 325t-2 203z" />
    <glyph glyph-name="afii10032" unicode="&#x41e;" horiz-adv-x="1343" 
d="M66 723q0 150 42 275.5t121.5 218t193.5 144.5t259 52t257 -54t186.5 -146.5t113.5 -215.5t39 -260q0 -150 -38 -291t-113.5 -251.5t-187.5 -177t-261 -66.5q-139 0 -252 54t-192.5 154.5t-123.5 244t-44 319.5zM535 557q0 -115 38 -188.5t95 -73.5q59 0 96 74.5
t37 187.5q0 104 -30 146t-95 42q-82 0 -111.5 -41.5t-29.5 -146.5z" />
    <glyph glyph-name="afii10033" unicode="&#x41f;" horiz-adv-x="1501" 
d="M90 1339q0 20 54.5 32.5t135 19t178 8.5t183.5 2h142q81 0 166 -1t168 -3t148.5 -6.5t105.5 -11.5t40 -17v-309q0 -141 -2 -265t-8 -247t-18.5 -257t-32.5 -296q-2 -14 -19 -15q-41 0 -98 1t-119.5 2t-127 4.5t-116.5 7.5q-16 0 -16 18q0 -4 -3 50.5t-8 155.5t-8.5 247.5
t-3.5 328.5h-75q-35 0 -70 -2q-6 -184 -14 -370.5t-31 -397.5q-4 -16 -41 -20t-78 -4q-137 0 -215 1t-116.5 4t-48 8t-9.5 13l-31 791q-8 199 -10 325t-2 203z" />
    <glyph glyph-name="afii10034" unicode="&#x420;" horiz-adv-x="1382" 
d="M63 1319q0 20 41 38.5t109 33t157 21.5t187 7q180 0 324.5 -52t246 -145.5t155.5 -223t54 -283.5q0 -139 -51 -238.5t-138 -165t-204 -100.5t-248 -43v-170q0 -12 -20.5 -20.5t-54 -11.5t-74.5 -4t-82 -1h-113h-74q-30 0 -49.5 1t-38.5 3q-8 2 -21 79t-27.5 199
t-29 273.5t-24.5 302t-17.5 283.5t-7.5 217zM696 381q104 0 165 54t61 136q0 80 -53.5 116t-114.5 36q-33 0 -58 -8v-334z" />
    <glyph glyph-name="afii10035" unicode="&#x421;" horiz-adv-x="1234" 
d="M72 688q0 152 53 284t148.5 230t229.5 155.5t294 57.5q70 0 119 -3t84.5 -7t61 -11.5t48.5 -15.5q14 -6 26.5 -58t19.5 -131t11 -176.5t4 -195.5q0 -16 -18 -16q-16 0 -52 9t-120 9q-74 0 -131 -22.5t-97 -62.5t-60.5 -94t-20.5 -118q0 -59 20.5 -114.5t58 -96.5
t93 -65.5t125.5 -24.5q37 0 59.5 4t37.5 8.5t23.5 8.5t16.5 4q10 0 17 -9.5t7 -25.5q0 -10 -1 -55t-7 -115q0 -16 -26.5 -31.5t-68.5 -28t-96 -19.5t-112 -7q-141 0 -275 40t-239.5 128t-169 227t-63.5 338z" />
    <glyph glyph-name="afii10036" unicode="&#x422;" horiz-adv-x="1175" 
d="M37 1104q0 72 1 134t5 134q0 18 18 19q90 4 181 4h182q350 0 694 -19q19 0 19 -18q4 -70 5 -129.5t1 -126.5q0 -80 -2 -160l-4 -160q0 -18 -19 -18h-129q-69 0 -131 -2q-4 -70 -10 -162t-15.5 -195.5t-19.5 -212t-22 -208.5q0 -29 -150 -29q-76 0 -133 3t-111 7
q-10 2 -14 11.5t-6 39.5q-6 199 -20.5 387.5t-30.5 362.5q-66 4 -132 4h-133q-18 0 -18 18q-6 156 -6 316z" />
    <glyph glyph-name="afii10037" unicode="&#x423;" 
d="M8 1317q0 25 33 31q86 10 196.5 14t213.5 4q20 0 37.5 -1t21.5 -11q20 -90 55 -176t76 -172q41 82 74 169t57 179q2 8 17.5 10t35.5 2h49q117 0 186.5 -2t106.5 -7t49.5 -12.5t12.5 -17.5v-4q0 -2 -1 -4t-1 -4q-86 -217 -195.5 -417t-226.5 -396q-80 -135 -153.5 -270.5
t-133.5 -284.5q-8 -20 -22 -21q-23 0 -64 1t-90 4t-100.5 6.5t-92 9.5t-67.5 14t-27 19q61 180 134 346t165 319q-102 154 -184 313.5t-154 325.5q-8 14 -8 33z" />
    <glyph glyph-name="afii10038" unicode="&#x424;" horiz-adv-x="1509" 
d="M49 711q0 92 34 171t103.5 141t173 103t244.5 58v143q0 33 26.5 40t67.5 7q49 0 99.5 -3t95.5 -13q10 -4 13 -7.5t3 -17.5q-2 -23 -2 -54.5t-2 -90.5q147 -14 254 -56t174.5 -104.5t99 -141.5t31.5 -165q0 -96 -31.5 -187.5t-100 -165t-177 -126t-262.5 -66.5v-184
q0 -27 -6 -31t-13 -4q-20 -2 -40 -2h-39q-35 0 -76 4t-70 8q-12 2 -15 15.5t-5 48.5l-6 145q-283 29 -428.5 171t-145.5 364zM471 688q0 -88 39 -154.5t104 -101.5q-4 111 -5 221.5t-3 227.5q-76 -18 -105.5 -64.5t-29.5 -128.5zM897 453q53 39 82 99t29 136q0 145 -107 186
q0 -80 -1 -179t-3 -228v-14z" />
    <glyph glyph-name="afii10039" unicode="&#x425;" 
d="M8 1317q0 25 33 31q86 10 196.5 14t213.5 4q20 0 37.5 -1t21.5 -11q20 -90 55 -176t76 -172q41 82 74 169t57 179q2 8 17.5 10t35.5 2h49q117 0 186.5 -2t106.5 -7t49.5 -12.5t12.5 -17.5v-4q0 -2 -1 -4t-1 -4q-72 -182 -160 -348t-188 -322q92 -156 163.5 -321.5
t133.5 -343.5q0 -12 -48.5 -22.5t-111 -18t-126 -11.5t-93.5 -4h-56q-14 0 -30.5 4t-20.5 25q-18 63 -41.5 137t-46.5 123q-25 -55 -46 -129t-38 -137q-6 -20 -22 -21q-23 0 -64 1t-90 4t-100.5 6.5t-92 9.5t-67.5 14t-27 19q61 180 134 346t165 319q-102 154 -184 313.5
t-154 325.5q-8 14 -8 33z" />
    <glyph glyph-name="afii10040" unicode="&#x426;" horiz-adv-x="1523" 
d="M117 639q0 182 5 362.5t30 368.5q2 14 18 14q39 0 100.5 -1t128 -2t133 -4t119.5 -7q16 0 17 -18q0 2 2 -47.5t4 -134.5t5 -197.5t5 -238.5t4 -258t2 -253h76q35 0 70 2q2 61 4 148.5t5 188t6 208t7 210.5t9 196.5t14 162.5q4 16 40.5 20.5t77.5 4.5q137 0 218 -1t122 -4
t53.5 -8t12.5 -14q4 -227 5 -399t1 -305q0 -164 -2 -262.5t-3 -156.5t-3 -89t-2 -57l59 -2q31 -2 37 -26t6 -48q0 -123 -2 -215t-2 -150q0 -27 -12 -31t-25 -4q-41 -2 -82 -2h-82q-74 0 -155.5 4.5t-141.5 8.5q-31 2 -35.5 15t-7.5 48l-20 293q-45 0 -121 2t-165 4t-180 5
t-165 7.5t-121 8.5t-47 10q-16 221 -19 375.5t-3 267.5z" />
    <glyph glyph-name="afii10041" unicode="&#x427;" horiz-adv-x="1243" 
d="M61 1098q0 76 2.5 142.5t6.5 109.5q0 4 6 9t27.5 8t61.5 5t107 2q86 0 110 -5t24 -26q0 -121 -4.5 -233.5t-4.5 -218.5q0 -12 2 -27.5t9.5 -29t24 -21.5t46.5 -8q45 0 58.5 18.5t13.5 36.5q0 115 -6 234.5t-6 236.5q0 29 52 36t146 7q106 0 212 -3t202 -13
q18 -4 24.5 -10t6.5 -37q0 -143 -5.5 -309t-10.5 -331t-10 -316.5t-5 -266.5q0 -49 -1 -75.5t-4 -39t-10.5 -14.5t-21.5 -2q-41 0 -82 -1t-82 -1q-74 0 -155.5 4t-141.5 8q-33 2 -40 15.5t-9 48.5q-6 104 -11 220t-9 238q-98 -25 -174 -24q-92 0 -153.5 29.5t-99.5 76.5
t-57.5 105.5t-25.5 118.5q-6 59 -9.5 140t-3.5 163z" />
    <glyph glyph-name="afii10042" unicode="&#x428;" horiz-adv-x="2093" 
d="M117 639v86q0 63 1 145t4 173.5t8 167t14.5 124.5t21.5 49q37 0 92 -1t116.5 -2t123 -4t108.5 -7q16 0 17 -18q0 2 1 -47.5t4 -134.5t5 -197.5t5 -238.5t4 -258t1 -253h184q-14 256 -23 533.5t-9 562.5q0 35 51 41t129 6q82 0 163 -3t152 -13q16 -4 21.5 -7.5t5.5 -17.5
q0 -18 -1 -39.5t-2 -57.5t-2 -93.5t-3 -146.5t-5.5 -216t-5.5 -303q-6 -139 -6 -246h108q50 0 58 2q2 61 4 148.5t5 188t5.5 208t6.5 210.5t9 196.5t11 162.5q4 16 38 20.5t73 4.5q125 0 198.5 -1t112.5 -4t49 -8t10 -14q2 -301 4.5 -513t3.5 -353t1 -220v-116v-36
q0 -13 -2 -31l-7 -68q0 -27 -11 -31t-21 -4q-90 -2 -164 -4t-136.5 -3t-114.5 -1h-99q-86 0 -215 2t-273.5 5t-289 7t-259 9.5t-187.5 8.5t-73 7q-14 221 -17 375.5t-3 267.5z" />
    <glyph glyph-name="afii10043" unicode="&#x429;" horiz-adv-x="2093" 
d="M117 639v86q0 63 1 145t4 173.5t8 167t14.5 124.5t21.5 49q37 0 92 -1t116.5 -2t123 -4t108.5 -7q16 0 17 -18q0 2 1 -47.5t4 -134.5t5 -197.5t5 -238.5t4 -258t1 -253h184q-14 256 -23 533.5t-9 562.5q0 35 51 41t129 6q82 0 163 -3t152 -13q16 -4 21.5 -7.5t5.5 -17.5
q0 -18 -1 -39.5t-2 -57.5t-2 -93.5t-3 -146.5t-5.5 -216t-5.5 -303q-6 -139 -6 -246h108q50 0 58 2q2 61 4 148.5t5 188t5.5 208t6.5 210.5t9 196.5t11 162.5q4 16 38 20.5t73 4.5q125 0 198.5 -1t112.5 -4t49 -8t10 -14q4 -227 5.5 -399t1.5 -305q0 -164 -2.5 -262.5
t-3.5 -156.5t-3 -89t-2 -57l56 -2q29 -2 34 -26t5 -48q0 -123 -2.5 -215t-2.5 -150q0 -27 -11 -31t-21 -4q-39 -2 -76 -2h-76q-68 0 -143.5 4.5t-128.5 8.5q-29 2 -33 15t-6 48l-19 293q-31 2 -104.5 2t-177.5 2h-8q-35 -2 -70 -2h-70q-41 0 -87 1t-89 5q-145 2 -289.5 5
t-260 7.5t-187.5 8.5t-72 8q-14 221 -17 375.5t-3 267.5z" />
    <glyph glyph-name="afii10044" unicode="&#x42a;" horiz-adv-x="1581" 
d="M37 1118q0 72 1 134.5t5 133.5q0 18 18 19q59 4 122 7t135.5 4t157.5 2t188 1q41 0 81.5 -1t74.5 -4t54.5 -11t20.5 -21v-170q131 -10 248 -43.5t204 -99t138 -165t51 -238.5q0 -154 -54.5 -284t-155.5 -223t-245.5 -145.5t-324.5 -52.5q-98 0 -187.5 7t-157 21.5
t-108.5 32t-41 39.5q0 57 -1 139.5t-1 177.5t-1 198.5t-1 205.5q-49 2 -98 2h-99q-18 0 -18 19q-6 156 -6 315zM895 279q25 -8 57 -9q61 0 114.5 36t53.5 116q0 82 -60.5 136t-164.5 54v-333z" />
    <glyph glyph-name="afii10045" unicode="&#x42b;" horiz-adv-x="2183" 
d="M59 858q0 111 1 209t3.5 173t7.5 120t11 45q18 2 54 4t86 4t112.5 4t130.5 2q41 0 82 -1t74.5 -4t54 -11t20.5 -21v-170q131 -10 248 -43.5t204 -99t138 -165t51 -238.5q0 -154 -54 -284t-155.5 -223t-246 -145.5t-324.5 -52.5q-98 0 -187 7t-157 21.5t-109 32t-41 39.5
q0 63 -1 154.5t-1 197t-1 220.5t-1 225zM696 279q25 -8 58 -9q61 0 114.5 36t53.5 116q0 82 -60.5 136t-165.5 54v-333zM1478 1327q0 16 6.5 25.5t36.5 13.5q31 4 88.5 6t114.5 2q90 0 177 -3t167 -13q18 -4 24.5 -7.5t6.5 -17.5q0 -18 -1 -39.5t-2 -58.5t-3 -95.5
t-4 -148.5t-5.5 -218t-7.5 -306q-4 -164 -6 -285t-2 -190q0 -27 -12 -31t-25 -4q-41 -2 -82 -2h-82q-74 0 -155.5 4t-141.5 8q-23 2 -32 15.5t-11 48.5q-20 293 -34.5 623.5t-14.5 672.5z" />
    <glyph glyph-name="afii10046" unicode="&#x42c;" horiz-adv-x="1382" 
d="M59 858q0 111 1 209t3.5 173t7.5 120t11 45q18 2 54 4t86 4t112.5 4t130.5 2q41 0 82 -1t74.5 -4t54 -11t20.5 -21v-170q131 -10 248 -43.5t204 -99t138 -165t51 -238.5q0 -154 -54 -284t-155.5 -223t-246 -145.5t-324.5 -52.5q-98 0 -187 7t-157 21.5t-109 32t-41 39.5
q0 63 -1 154.5t-1 197t-1 220.5t-1 225zM696 279q25 -8 58 -9q61 0 114.5 36t53.5 116q0 82 -60.5 136t-165.5 54v-333z" />
    <glyph glyph-name="afii10047" unicode="&#x42d;" horiz-adv-x="1234" 
d="M72 817q0 98 4 195.5t11 176.5t18.5 131t27.5 58q23 8 48.5 15.5t61.5 11.5t85 7t118 3q160 0 294 -57.5t229.5 -155.5t148.5 -230t53 -284q0 -199 -63.5 -338t-168.5 -227t-239.5 -128t-275.5 -40q-57 0 -111.5 7t-96.5 19.5t-68.5 28t-26.5 31.5q-6 70 -7 115t-1 55
q0 16 7 25.5t17 9.5q14 0 40 -12.5t97 -12.5q104 0 176 53.5t101 133.5h-135q-176 0 -187 22q-16 47 -27.5 88t-19.5 88q0 14 12.5 21.5t47.5 7.5q20 0 58 -2t82 -5t90 -6.5t87 -3.5q-29 90 -104.5 145.5t-192.5 55.5q-84 0 -120 -9t-52 -9q-18 0 -18 16z" />
    <glyph glyph-name="afii10048" unicode="&#x42e;" horiz-adv-x="2091" 
d="M96 1327q0 16 6.5 25.5t34.5 13.5q29 4 84 6t111 2q86 0 169 -3t161 -13q16 -4 22 -7t6 -18q0 -25 -2 -54.5t-3 -90t-4 -161.5t-5 -267q35 2 70 2h73h15q6 141 48 261t117.5 206t183 135t240.5 49q139 0 246 -54t179.5 -146.5t109.5 -215.5t37 -260q0 -150 -37 -291
t-108.5 -251.5t-179 -177t-251.5 -66.5q-117 0 -214 42t-170.5 121t-123 190.5t-67.5 252.5h-19h-79q-37 0 -74 -2q-2 -23 -2 -45v-43q-4 -164 -6 -285t-2 -190q0 -27 -12.5 -31t-22.5 -4q-41 -2 -79 -2h-79q-72 0 -150.5 4t-134.5 8q-20 2 -29.5 15.5t-11.5 48.5
q-18 293 -32.5 623.5t-14.5 672.5zM1282 557q0 -115 37 -188.5t92 -73.5q57 0 92 74.5t35 187.5q0 104 -28.5 146t-92.5 42q-78 0 -106.5 -41.5t-28.5 -146.5z" />
    <glyph glyph-name="afii10049" unicode="&#x42f;" horiz-adv-x="1441" 
d="M90 817q0 119 56.5 226.5t161 189.5t256 130t341.5 48q92 0 175 -6t144.5 -18.5t97.5 -30t36 -37.5q0 -18 -2 -55t-4 -83t-4 -94.5t-2 -87.5q-8 -274 -12.5 -468.5t-10.5 -319.5t-17.5 -184.5t-31.5 -61.5q-29 -4 -70 -4h-92q-41 0 -105.5 -1t-125 2t-104.5 10.5
t-44 25.5v135q-131 -111 -201 -239q-12 -20 -32 -21q-14 0 -27 4q-92 23 -166 50.5t-153 64.5q-16 2 -17 16q0 6 2 11.5t6 11.5q55 88 117 162.5t117 134.5q-135 53 -212 174.5t-77 314.5zM510 588q0 -90 59.5 -144.5t163.5 -62.5v334q-25 6 -55 6q-66 0 -117 -32.5
t-51 -100.5z" />
    <glyph glyph-name="afii10065" unicode="&#x430;" horiz-adv-x="1052" 
d="M20 10v11q0 6 3 16q59 258 128.5 513t147.5 509q4 12 14.5 18t33 9.5t61 4.5t100.5 1q86 0 142.5 -2.5t88 -7.5t45 -12t17.5 -17q61 -270 115.5 -533.5t101.5 -531.5q0 -33 -31 -33q-92 0 -177 1t-177 11q-12 4 -20.5 10.5t-12.5 30.5q-4 18 -5 32.5t-3 41.5
q-25 -16 -51.5 -27.5t-32.5 -11.5q-10 0 -24.5 7t-20.5 18l-8 -43q-2 -18 -6.5 -28.5t-21.5 -16t-55 -6.5t-106 -1q-80 0 -128 1t-74.5 5.5t-35 11.5t-8.5 19zM467 276q47 29 62.5 35t33.5 6q12 0 35 -10q-10 63 -24.5 116.5t-36.5 133.5q-20 -66 -37 -136.5t-33 -144.5z
" />
    <glyph glyph-name="afii10066" unicode="&#x431;" horiz-adv-x="1077" 
d="M78 455q0 49 1 137t2 181t3 176t6 124q2 8 5 21.5t32 17.5q49 4 108.5 7t120.5 3q129 0 263.5 -7t240.5 -11q14 0 14 -12q4 -47 5.5 -86t1.5 -84q0 -53 -2 -106.5t-5 -106.5q0 -12 -14 -13h-67h-86q-45 0 -87 -1t-67 -1q0 -10 -1 -22.5t-1 -24.5q96 -4 182 -23.5
t150.5 -54t102.5 -89t38 -130.5q0 -84 -31.5 -153.5t-100.5 -120.5t-179.5 -79t-266.5 -28q-72 0 -138 4t-116.5 11.5t-80 16.5t-29.5 22q0 35 -1 84t-1 107t-1 119.5t-1 121.5zM539 141q10 -4 26.5 -5t26.5 -1q45 0 85 19.5t40 62.5q0 45 -45 75t-121 30z" />
    <glyph glyph-name="afii10067" unicode="&#x432;" horiz-adv-x="1060" 
d="M53 979q0 49 9.5 72.5t21.5 31.5q37 29 117 41.5t213 12.5q115 0 219 -30t183 -92.5t126 -157.5t47 -226q0 -90 -27.5 -167t-99.5 -130q49 -23 81 -64t32 -108q0 -74 -37 -115t-92 -61.5t-119.5 -24.5t-120.5 -4q-55 -2 -117.5 -3t-119.5 -1h-72q-37 0 -88 4
q-57 4 -74.5 30.5t-19.5 78.5q0 66 -5.5 151.5t-12.5 180t-15 188.5t-14.5 174t-10.5 138t-4 81zM524 123q3 -2 21 -2q12 0 26.5 3t28.5 11t23.5 21.5t9.5 33.5t-10.5 33t-25.5 19t-34.5 9t-36.5 3q0 -18 -1 -36.5t-1 -37.5v-57zM528 350q45 0 85 22t42 81q0 45 -22.5 76.5
t-69.5 31.5h-14q-8 0 -14 -2q-4 -47 -5.5 -104.5t-1.5 -104.5z" />
    <glyph glyph-name="afii10068" unicode="&#x433;" horiz-adv-x="827" 
d="M47 735q0 98 4 185.5t15 150.5q0 6 43 13.5t103 11.5t124.5 7t109.5 3q174 0 257 -11.5t85 -21.5q2 -23 5.5 -83t4.5 -127.5t3 -130t2 -91.5q0 -14 -15 -14q-23 0 -74.5 4t-162.5 4q-6 -190 -6 -369q0 -141 6 -282q0 -12 -14 -13q-37 0 -106 1t-138.5 4.5t-124.5 8.5
t-64 15q-10 12 -20 83t-18.5 175t-13.5 230t-5 247z" />
    <glyph glyph-name="afii10069" unicode="&#x434;" horiz-adv-x="1404" 
d="M-4 147q0 4 18.5 8.5t50 6.5t73.5 4t87 2q29 25 46.5 87t17.5 148q0 129 -2 224.5t-5 169t-5.5 135t-2.5 127.5q0 16 5.5 25.5t23.5 9.5q109 0 234 2q106 2 241 3t283 1q68 0 134.5 -3t125.5 -12q23 -2 22 -18q-4 -221 -11 -443.5t-9 -461.5q57 -4 57 -6v-115
q0 -53 -2 -98t-6 -90.5t-14 -94.5t-25 -108q-4 -6 -14 -6q-117 0 -187.5 2t-110.5 5t-53.5 7t-13.5 10q0 -2 -6 70t-6 207h-496q-4 -68 -10 -137.5t-22 -147.5q-4 -6 -32 -7t-58 -1h-164q-60 0 -88.5 2t-35.5 3t-7 5l-23 291q-6 72 -8 119t-2 75zM657 170h120q61 0 128 -2
q-8 111 -13 227.5t-9 233.5q-20 2 -39 3t-39 1q-18 0 -38 -1t-40 -3q-10 -168 -28.5 -284t-41.5 -175z" />
    <glyph glyph-name="afii10070" unicode="&#x435;" horiz-adv-x="935" 
d="M70 1018q0 18 22.5 31.5t83 23.5t163.5 15.5t267 5.5h230q30 0 30 -31q0 -90 -7 -176t-17.5 -153.5t-21.5 -108.5t-21 -41t-27.5 1t-46.5 3t-70 3t-100 1q-2 -16 -2 -43v-43q59 2 97 4t62.5 4t40 3t33.5 1q43 0 43 -43q-4 -31 -16 -72t-22 -57q-20 -27 -160 -27h-84
q-2 -18 -3 -42.5t-1 -47.5q29 -4 55 -4h51q33 0 64.5 3t70.5 3q20 0 25.5 -12t5.5 -29q0 -57 -2 -99t-8 -83q-2 -8 -17.5 -16t-54.5 -14.5t-105.5 -9.5t-170.5 -3q-96 0 -156.5 1t-95.5 6t-50.5 17.5t-17.5 35.5q-8 59 -16 152t-16.5 198.5t-14.5 214t-10 199t-7 153
t-3 76.5z" />
    <glyph glyph-name="afii10072" unicode="&#x436;" horiz-adv-x="1556" 
d="M35 1069q0 8 45 16.5t103.5 14.5t117.5 10t90 4q10 0 15 -10q31 -109 66.5 -214.5t72.5 -203.5q-6 186 -6 375q0 31 51 35t125 4q63 0 124.5 -3t121.5 -12q20 -2 20 -18l-10 -422q43 104 87 218t83 233q4 10 14 10q33 0 95.5 -4t124 -10.5t107.5 -14.5t46 -16
q0 -4 -1 -12.5t-5 -18.5q-25 -78 -51.5 -143.5t-57.5 -123.5t-66.5 -113.5t-80.5 -112.5q66 -127 126 -263.5t107 -287.5q0 -18 -44 -29.5t-104.5 -19t-124 -9.5t-104.5 -2q-12 0 -14 8q-29 92 -65.5 189.5t-79.5 185.5q-2 -106 -2 -187v-128q0 -23 -8.5 -26t-18.5 -3
q-29 -2 -58 -2h-61q-51 0 -110.5 3t-100.5 7q-14 2 -21.5 12.5t-9.5 39.5l-14 276q-39 -86 -73.5 -177t-61.5 -183q-2 -8 -12 -9q-39 0 -100.5 2.5t-119 9.5t-98.5 18t-41 30q47 152 104.5 285t123.5 260q-43 57 -77 113.5t-62.5 116.5t-53.5 127t-47 144q-6 20 -6 31z" />
    <glyph glyph-name="afii10073" unicode="&#x437;" horiz-adv-x="821" 
d="M16 1032q0 23 19.5 40.5t53.5 29.5t78 18t95 6q106 0 200.5 -27.5t164 -87t109.5 -150.5t40 -218q0 -139 -51 -214t-127 -105q61 -16 94 -63.5t33 -100.5q0 -111 -112.5 -163t-321.5 -52q-74 0 -94.5 3t-20.5 15q0 16 2 40t6 46.5t10.5 37.5t14.5 15q10 0 17 -4t36 -4
q78 0 108.5 28t30.5 54q0 18 -5 33.5t-23.5 26t-51 16.5t-88.5 6q-16 0 -18 21.5t-2 60.5q0 25 10 25q111 0 155 18t44 80q0 41 -31 68.5t-110 27.5q-55 0 -70.5 -7t-26.5 -7q-12 0 -28.5 29.5t-36 76.5t-38 104.5t-32.5 112t-23.5 98.5t-9.5 66z" />
    <glyph glyph-name="afii10074" unicode="&#x438;" horiz-adv-x="1015" 
d="M72 422q0 111 2 210t2 197v122q0 46 1 72t2 37t3 19q2 6 6 9.5t19.5 5.5t44 3t81.5 1q68 0 84.5 -1t22.5 -5t8 -14.5t2 -33.5q0 -82 -2 -167.5t-2 -167.5q25 43 55.5 91t65.5 96t73 94t78 85q12 14 31 19.5t60 5.5q25 0 68.5 -1t111.5 -5q33 -2 44 -11.5t11 -38.5
q0 -133 -1 -284.5t-2 -289.5t-2 -246.5t-1 -153.5q0 -29 -1 -55.5t-11 -34.5q-10 -12 -35 -15.5t-100 -3.5q-41 0 -63.5 2t-34 8t-14.5 16.5t-3 26.5q0 61 4 132t8 192q-59 -74 -118.5 -155t-100.5 -146q-18 -29 -31.5 -44.5t-36 -23.5t-60.5 -9t-101 -1q-47 0 -74 1t-42 3
t-20.5 4t-9.5 4q-8 6 -10 18.5t-6 49.5q-4 25 -5 124t-1 259z" />
    <glyph glyph-name="afii10075" unicode="&#x439;" horiz-adv-x="1015" 
d="M72 422q0 111 2 210t2 197v122q0 46 1 72t2 37t3 19q2 6 6 9.5t19.5 5.5t44 3t81.5 1q68 0 84.5 -1t22.5 -5t8 -14.5t2 -33.5q0 -82 -2 -167.5t-2 -167.5q25 43 55.5 91t65.5 96t73 94t78 85q12 14 31 19.5t60 5.5q25 0 68.5 -1t111.5 -5q33 -2 44 -11.5t11 -38.5
q0 -133 -1 -284.5t-2 -289.5t-2 -246.5t-1 -153.5q0 -29 -1 -55.5t-11 -34.5q-10 -12 -35 -15.5t-100 -3.5q-41 0 -63.5 2t-34 8t-14.5 16.5t-3 26.5q0 61 4 132t8 192q-59 -74 -118.5 -155t-100.5 -146q-18 -29 -31.5 -44.5t-36 -23.5t-60.5 -9t-101 -1q-47 0 -74 1t-42 3
t-20.5 4t-9.5 4q-8 6 -10 18.5t-6 49.5q-4 25 -5 124t-1 259zM228 1444q0 14 19.5 24.5t48 14.5t60 6t54.5 2q10 0 20.5 -9t12.5 -22q4 -41 21.5 -77.5t58.5 -36.5t58 28.5t21 71.5q2 10 12.5 17.5t20.5 11.5q31 6 60.5 10t64.5 4q16 0 38 -4t22 -27q0 -74 -26 -131t-67 -96
t-95 -58.5t-109 -19.5t-108.5 17.5t-94.5 53.5t-66.5 91t-25.5 129z" />
    <glyph glyph-name="afii10076" unicode="&#x43a;" horiz-adv-x="1101" 
d="M51 1077q0 10 23.5 16.5t76 9.5t137.5 3h208q14 0 14 -14q0 -16 -1 -33t-1 -31q0 -104 4 -208.5t12 -203.5q47 111 95.5 231t89.5 249q0 10 14 10q31 0 93.5 -4t125 -10.5t108.5 -14.5t46 -16q0 -11 -6 -31q-27 -78 -53.5 -143.5t-57.5 -123.5t-66.5 -113.5t-81.5 -112.5
q68 -127 126.5 -260.5t103.5 -284.5q0 -18 -44 -29.5t-104.5 -18.5t-124 -9.5t-104.5 -2.5q-8 0 -14 9q-27 96 -63 192t-79 184q-2 -33 -2 -62v-62q0 -49 2 -97.5t2 -97.5q0 -10 -7 -15.5t-27.5 -8.5t-59.5 -4t-102 -1q-66 0 -113 -1t-80 3q-12 0 -20 11.5t-13.5 43t-8.5 89
t-9 151.5q-16 281 -27.5 475.5t-11.5 335.5z" />
    <glyph glyph-name="afii10077" unicode="&#x43b;" horiz-adv-x="1437" 
d="M6 -10q0 18 10.5 48t25.5 57.5t31.5 47t30.5 19.5q10 0 22.5 -4t23.5 -4q45 0 72.5 69.5t27.5 179.5q0 129 -3 224.5t-6 169t-5.5 135t-2.5 127.5q0 16 6.5 25.5t26.5 9.5q117 0 248 2q113 2 256 3t299 1q72 0 141.5 -3t135.5 -12q24 -2 24 -18q0 -23 -2 -53.5t-4 -101
t-5 -197.5t-7 -342q-4 -129 -5 -226.5t-1 -152.5q0 -23 -10.5 -26t-20.5 -3q-33 -2 -64 -2h-67q-59 0 -125 3t-113 7q-23 2 -28 12.5t-5 39.5q-10 135 -18 291.5t-14 312.5q-20 2 -41 3t-41 1t-41 -1t-41 -3q-12 -186 -36 -308t-52 -176q-59 -106 -161.5 -159.5
t-225.5 -53.5t-179.5 21.5t-56.5 36.5z" />
    <glyph glyph-name="afii10078" unicode="&#x43c;" horiz-adv-x="1267" 
d="M84 647q0 109 2 213.5t10 208.5q0 14 13.5 22.5t32 13.5t41 6t40.5 1q23 0 55.5 -2t75.5 -6q43 -6 54 -29q39 -88 87 -170t99 -155q53 74 99 153.5t81 167.5q4 10 14.5 19.5t28.5 13.5q39 4 84 8t86 4q102 0 141 -10t39 -37q6 -190 7 -385q0 -162 -2.5 -325.5
t-10.5 -323.5q-2 -41 -22.5 -48t-61.5 -7q-76 0 -126 1t-86 3t-59.5 5t-43.5 7t-31.5 13t-11.5 44v27v45q0 25 1 47.5t1 30.5q-23 -51 -47.5 -101.5t-46.5 -93.5q-8 -16 -20.5 -22t-55.5 -6q-35 0 -46 4t-26 24q-35 53 -66.5 106.5t-60.5 118.5q2 -29 2 -57v-76
q0 -59 -7 -81.5t-23 -26.5t-52 -7t-114 -3q-35 0 -47.5 13t-12.5 36q-6 147 -10 306t-4 310z" />
    <glyph glyph-name="afii10079" unicode="&#x43d;" 
d="M80 1057q0 16 20.5 25.5t50 13.5t62.5 5t57 1q98 0 174 1t111 1q33 0 33 -33q0 -125 -2 -273.5t-17 -287.5q23 16 36 21.5t20 5.5q10 0 28 -23v557q0 16 21.5 25.5t52.5 13.5t62.5 5t52.5 1q18 0 66 -1t98.5 -6t90.5 -14.5t40 -23.5v-240q0 -111 -1 -201.5t-5.5 -184
t-12.5 -199t-24 -244.5q-4 -25 -31 -25q-61 0 -152.5 2.5t-171.5 8.5q-14 2 -23 5t-14 17q-4 16 -9 45t-11 63t-11 67.5t-9 60.5q-41 -41 -56.5 -50.5t-19.5 -9.5q-16 0 -29 25q-4 -45 -6 -88t-8 -96q-4 -23 -39 -27t-72 -4q-113 0 -176 1t-95 5t-39 11t-7 20l-25 612
q-4 147 -7 249.5t-3 162.5z" />
    <glyph glyph-name="afii10080" unicode="&#x43e;" horiz-adv-x="1110" 
d="M59 575q0 119 34 220.5t98.5 175t156.5 115.5t207 42q117 0 206 -43t149.5 -116.5t91 -172t30.5 -208.5q0 -119 -30.5 -231.5t-90 -200.5t-150.5 -141.5t-210 -53.5q-111 0 -202 43t-155.5 123t-99.5 193.5t-35 254.5zM459 449q0 -80 24.5 -133.5t59.5 -53.5
q39 0 62.5 54.5t23.5 132.5q0 72 -19.5 99t-60.5 27q-53 0 -71.5 -27.5t-18.5 -98.5z" />
    <glyph glyph-name="afii10081" unicode="&#x43f;" horiz-adv-x="1200" 
d="M72 1071q0 16 43 25.5t108.5 14.5t143 7t145.5 2h179q106 0 203 -3t165.5 -9t68.5 -18v-248q0 -115 -1 -213.5t-6 -196.5t-15 -204.5t-27 -237.5q-2 -10 -14 -10h-79q-46 0 -96 2t-101.5 3t-92.5 5q-12 0 -12 14q0 -2 -3 41t-6 124t-6 198.5t-3 263.5h-61q-27 0 -56 -2
q-4 -147 -11.5 -297t-25.5 -318q-4 -14 -31.5 -16t-62.5 -2q-111 0 -173.5 1t-93 3t-38 6t-7.5 10l-24 633q-6 158 -8 259.5t-2 162.5z" />
    <glyph glyph-name="afii10082" unicode="&#x440;" horiz-adv-x="1140" 
d="M57 1038q0 20 33 38t88 31t128 20.5t151 7.5q143 0 258.5 -42t197.5 -117t125 -178.5t43 -226.5q0 -111 -40 -189.5t-107.5 -130.5t-157.5 -81t-190 -39v-115q0 -16 -17.5 -25t-46 -14.5t-64.5 -6.5t-71 -1h-86h-59q-23 0 -39.5 1t-30.5 3q-8 10 -20.5 75t-24.5 162
t-24.5 215t-22.5 232.5t-16.5 215t-6.5 165.5zM586 330q63 6 100 42t37 89q0 51 -36 74.5t-77 23.5h-13q-7 0 -11 -2v-227z" />
    <glyph glyph-name="afii10083" unicode="&#x441;" horiz-adv-x="1024" 
d="M66 551q0 121 43 226.5t120.5 184t184 123.5t235.5 45q55 0 93 -2t66 -6t47 -9t38 -13q14 -6 25.5 -48t18.5 -105.5t10 -141.5t3 -156q0 -31 -30 -31q-12 0 -39 7.5t-95 7.5q-106 0 -163.5 -60.5t-57.5 -152.5q0 -43 14.5 -81t41 -67.5t66.5 -47t89 -17.5q27 0 44.5 3
t28.5 6t18 6t16 3q12 0 24.5 -12t12.5 -31q0 -10 -1 -52t-6 -83q-2 -16 -23.5 -30.5t-57 -25.5t-79.5 -18.5t-91 -7.5q-115 0 -221.5 32t-190.5 102.5t-134 182t-50 269.5z" />
    <glyph glyph-name="afii10084" unicode="&#x442;" horiz-adv-x="978" 
d="M45 872q0 55 1 104.5t5 102.5q0 14 9.5 23.5t21.5 9.5q63 4 138 4h142q135 0 271.5 -2t265.5 -12q27 -2 31 -31q4 -53 5 -100t1 -101q0 -123 -6 -247q-2 -14 -8.5 -23.5t-22.5 -9.5h-184q-2 -53 -7.5 -123t-11.5 -147.5t-15 -158.5t-17 -157q-4 -23 -39 -31t-95 -8
q-61 0 -106 2t-86 6q-14 4 -20.5 13.5t-8.5 40.5q-10 154 -18 294t-23 273q-45 4 -91 4h-95q-31 0 -31 31q-4 59 -5 121.5t-1 121.5z" />
    <glyph glyph-name="afii10085" unicode="&#x443;" horiz-adv-x="989" 
d="M6 1053q0 23 27 24q70 10 158 13.5t169 3.5q16 0 29.5 -1t18.5 -10q16 -72 43.5 -140.5t60.5 -137.5q33 66 59.5 135.5t46.5 142.5q0 6 12.5 8.5t28.5 2.5h41q92 0 147.5 -2t86.5 -6.5t40 -10.5t9 -14v-2q0 -2 -1 -3t-1 -3q-70 -174 -158 -334t-180 -318
q-63 -109 -122.5 -216t-106.5 -228q-6 -16 -17 -16q-29 0 -87 2t-116.5 7t-103.5 13t-45 21q49 143 107.5 276t130.5 256q-80 123 -145.5 250t-125.5 262q-6 12 -6 25z" />
    <glyph glyph-name="afii10086" unicode="&#x444;" horiz-adv-x="1208" 
d="M39 569q0 147 109.5 250t334.5 127v115q0 27 20.5 33t55.5 6h46q28 0 55.5 -3t47 -10.5t19.5 -19.5q-2 -18 -2 -44v-73q119 -10 203 -44t138 -84t79.5 -112.5t25.5 -131.5q0 -78 -25.5 -151t-79.5 -132t-141 -100t-210 -54v-147q0 -16 -9.5 -23.5t-21.5 -9.5t-25.5 0
t-23.5 2q-29 0 -60.5 3t-54.5 7q-12 2 -13 12.5t-3 39.5l-6 116q-227 23 -343 135.5t-116 292.5zM377 551q0 -72 30.5 -124t84.5 -81q-4 88 -4.5 177t-2.5 182q-59 -16 -83.5 -52t-24.5 -102zM717 362q90 64 90 189q0 115 -86 149q0 -66 -1 -144.5t-3 -182.5v-11z" />
    <glyph glyph-name="afii10087" unicode="&#x445;" horiz-adv-x="1026" 
d="M14 1036q0 16 8.5 27.5t30.5 13.5q68 10 155 13.5t167 3.5q20 0 38.5 -3.5t22.5 -17.5q29 -119 86 -237q25 53 46.5 115.5t37.5 119.5q4 14 20.5 17.5t39.5 3.5q111 0 175 -3.5t99 -9.5t45 -15.5t10 -21.5q0 -10 -8 -26q-53 -133 -118.5 -256t-141.5 -242
q68 -117 123 -246t104 -270q0 -14 -31.5 -25.5t-78.5 -19.5t-101.5 -12t-99.5 -4h-41q-18 0 -35.5 6t-23.5 30q-12 61 -23.5 94t-25.5 66q-14 -37 -25.5 -81t-22.5 -85q-4 -16 -16 -22t-22 -6q-27 0 -85.5 3t-119 10t-105.5 18.5t-45 27.5q47 141 103.5 270t124.5 246
q-76 113 -139.5 231.5t-118.5 245.5q-4 10 -6.5 20.5t-2.5 20.5z" />
    <glyph glyph-name="afii10088" unicode="&#x446;" horiz-adv-x="1218" 
d="M94 512v77q0 54 1 119.5t3 136t6.5 129t11.5 96.5t19 38q33 0 81 -1t102.5 -2t107.5 -4t94 -5q14 0 15 -15q0 2 1 -37.5t3 -107.5t5 -158t5 -191.5t3 -207t1 -201.5h59q29 0 56 2q2 74 5 190.5t7 244.5t10 250t15 206q4 14 32.5 17.5t61.5 3.5q111 0 175 -1t98 -3.5
t43 -7.5t9 -11q2 -180 3 -318.5t1 -244.5q0 -131 -1 -210t-3 -125t-3 -70.5t-1 -47.5h47q25 0 30 -20.5t5 -38.5q0 -98 -1 -172t-1 -121q0 -20 -10 -23.5t-21 -3.5q-33 -2 -64 -2h-67q-59 0 -124.5 3t-112.5 8q-25 2 -29 12t-6 39l-16 233q-35 0 -95.5 2t-132 4t-144.5 4.5
t-132.5 5.5t-97 6t-37.5 7q-12 178 -14.5 301t-2.5 215z" />
    <glyph glyph-name="afii10089" unicode="&#x447;" horiz-adv-x="995" 
d="M49 879q0 59 1 112t5 88q0 4 5.5 7.5t21.5 6.5t48 5t87 2q70 0 88.5 -4t18.5 -21q0 -98 -3.5 -187t-3.5 -175q0 -23 9.5 -46.5t56.5 -23.5q35 0 46 14.5t11 30.5q0 92 -5 188.5t-5 188.5q0 23 42 29t118 6q86 0 170 -2t162 -13q14 -2 19 -6.5t5 -29.5q0 -115 -4 -247
l-8 -264q-4 -132 -8 -254t-4 -214v-59q0 -21 -3.5 -31.5t-9.5 -12.5t-18 -2q-33 0 -64.5 -1t-66.5 -1q-59 0 -125 3t-113 7q-27 2 -32 12.5t-7 39.5q-4 84 -8 176t-8 190q-80 -18 -139 -18q-74 0 -123 23.5t-80 61.5t-46.5 84t-19.5 93q-4 49 -7 113.5t-3 130.5z" />
    <glyph glyph-name="afii10090" unicode="&#x448;" horiz-adv-x="1675" 
d="M94 512v55q0 47 1 114t3 141.5t6.5 138t11.5 105.5t17 42q29 0 73 -1t93 -2t98 -4t88 -5q12 0 13 -15q0 2 1 -37.5t3 -107.5t4 -158t4 -191.5t3 -207t1 -201.5h148q-10 205 -18.5 427t-8.5 450q0 29 42 34t103 5q66 0 129.5 -3.5t122.5 -11.5q21 -2 21 -18
q0 -23 -1 -52.5t-2 -100t-4.5 -196.5t-7.5 -337q-2 -55 -3 -104.5t-1 -92.5h87q40 0 46 2q2 74 5.5 190.5t6.5 244.5t8 250t13 206q4 14 30.5 17.5t57.5 3.5q100 0 159.5 -1t90.5 -3.5t39 -7.5t8 -11q2 -242 3 -411t2 -281.5t1 -175.5v-92v-27q0 -12 -2 -29l-4 -53
q-2 -23 -9 -26t-17 -3q-145 -4 -240.5 -5t-171.5 -1q-68 0 -172.5 2t-219 4t-230 6.5t-208 7.5t-149.5 6t-57 5q-12 178 -14.5 301t-2.5 215z" />
    <glyph glyph-name="afii10091" unicode="&#x449;" horiz-adv-x="1675" 
d="M94 512v55q0 47 1 114t3 141.5t6.5 138t11.5 105.5t17 42q29 0 73 -1t93 -2t98 -4t88 -5q12 0 13 -15q0 2 1 -37.5t3 -107.5t4 -158t4 -191.5t3 -207t1 -201.5h148q-10 205 -18.5 427t-8.5 450q0 29 42 34t103 5q66 0 129.5 -3.5t122.5 -11.5q21 -2 21 -18
q0 -23 -1 -52.5t-2 -100t-4.5 -196.5t-7.5 -337q-2 -55 -3 -104.5t-1 -92.5h87q40 0 46 2q2 74 5.5 190.5t6.5 244.5t8 250t13 206q4 14 30.5 17.5t57.5 3.5q100 0 159.5 -1t90.5 -3.5t39 -7.5t8 -11q2 -180 3 -318.5t1 -244.5q0 -131 -1 -210t-3 -125t-3 -70.5t-1 -47.5h45
q23 0 27 -20.5t4 -38.5q0 -98 -2 -172t-2 -121q0 -20 -8.5 -23.5t-18.5 -3.5q-31 -2 -61 -2h-60q-53 0 -113.5 3t-103.5 8q-23 2 -27 12t-4 39l-16 233q-25 2 -83 2t-142 2h-6q-29 -2 -56 -2h-57q-127 0 -266 4t-255 8.5t-190 9.5l-75 5q-12 178 -14.5 301t-2.5 215z" />
    <glyph glyph-name="afii10092" unicode="&#x44a;" horiz-adv-x="1265" 
d="M29 895q0 57 1 107.5t5 107.5q0 14 14 14q94 6 206 8.5t275 2.5h67q34 0 60.5 -3.5t43 -9.5t16.5 -16v-135q104 -8 197.5 -36t163 -80t110.5 -132t41 -191q0 -123 -43 -226t-125 -178t-197.5 -117t-259.5 -42q-78 0 -149.5 6.5t-126 16.5t-87 25.5t-32.5 31.5v111
q0 65 -1 142t-1 160v165h-158q-14 0 -14 16q-6 123 -6 252zM717 223q10 -4 21.5 -5t23.5 -1q49 0 92 27.5t43 93.5t-49 108.5t-131 42.5v-266z" />
    <glyph glyph-name="afii10093" unicode="&#x44b;" horiz-adv-x="1721" 
d="M47 686q0 88 1 167t3 139.5t5 96t10 35.5q29 2 112.5 6.5t194.5 4.5h65q33 0 59.5 -3.5t43 -9.5t16.5 -16v-135q104 -8 197.5 -36t163 -80t110.5 -132t41 -191q0 -123 -43 -226t-124 -178t-196.5 -117t-259.5 -42q-78 0 -149.5 6.5t-125.5 16.5t-87 25.5t-33 31.5
q0 51 -1 124t-1 158t-1 176t-1 179zM557 223q10 -4 21.5 -5t23.5 -1q49 0 92 27.5t43 93.5t-48 108.5t-132 42.5v-266zM1135 1047q0 16 6 28q7 11 42 17q23 4 68 6t90 2q72 0 140.5 -3t129.5 -10q24 -4 32 -11t7 -27q0 -8 -5 -172t-13 -498q-4 -119 -5.5 -216t-1.5 -151
q0 -29 -16 -37t-29 -8q-29 -2 -64 -2h-63q-59 0 -122.5 3t-110.5 7q-22 2 -33 15.5t-15 48.5q-17 227 -27 484t-10 524z" />
    <glyph glyph-name="afii10094" unicode="&#x44c;" horiz-adv-x="1105" 
d="M47 686q0 88 1 167t3 139.5t5 96t10 35.5q29 2 112.5 6.5t194.5 4.5h65q33 0 59.5 -3.5t43 -9.5t16.5 -16v-135q104 -8 197.5 -36t163 -80t110.5 -132t41 -191q0 -123 -43 -226t-124 -178t-196.5 -117t-259.5 -42q-78 0 -149.5 6.5t-125.5 16.5t-87 25.5t-33 31.5
q0 51 -1 124t-1 158t-1 176t-1 179zM557 223q10 -4 21.5 -5t23.5 -1q49 0 92 27.5t43 93.5t-48 108.5t-132 42.5v-266z" />
    <glyph glyph-name="afii10095" unicode="&#x44d;" horiz-adv-x="987" 
d="M57 653q0 78 3 157t9.5 141.5t15.5 104.5t21 46q35 14 87.5 22.5t162.5 8.5q129 0 235.5 -46.5t183.5 -125t120 -184t43 -226.5q0 -160 -51 -271.5t-135 -182t-191.5 -102.5t-220.5 -32q-47 0 -90 6t-77 15.5t-55.5 21.5t-21.5 27q-4 55 -5 91t-1 44q0 29 21 29
q12 0 31.5 -10.5t76.5 -10.5q86 0 142.5 43t78.5 107h-108q-68 0 -106 4t-42 14q-12 37 -22 71t-17 70q0 23 48 23q18 0 47.5 -2t64.5 -4t72 -4t69 -2q-23 72 -83 115.5t-154 43.5q-66 0 -94.5 -7t-42.5 -7q-15 0 -15 12z" />
    <glyph glyph-name="afii10096" unicode="&#x44e;" horiz-adv-x="1673" 
d="M78 1061q0 31 53 35t135 4q68 0 134.5 -3t127.5 -12q25 -2 25 -18q0 -18 -2 -43t-3 -73t-3 -129t-4 -214q29 2 58 2h56h13q4 113 37.5 208t94 165t147 108.5t192.5 38.5q113 0 197.5 -43t142 -116.5t87 -172t29.5 -208.5q0 -119 -28.5 -232.5t-87 -201.5t-144.5 -141.5
t-200 -53.5q-92 0 -170 34t-137.5 96.5t-98.5 152.5t-53 202h-17h-61q-31 0 -61 -2q0 -156 -4.5 -271.5t-4.5 -178.5q0 -23 -9 -26t-17 -3q-33 -2 -63 -2h-64q-57 0 -119.5 3t-108.5 7q-16 2 -23 12.5t-9 39.5q-16 233 -26.5 498t-10.5 538zM1026 446q0 -92 28.5 -151
t73.5 -59q47 0 75 59t28 151q0 84 -23.5 117t-72.5 33q-61 0 -85 -34t-24 -116z" />
    <glyph glyph-name="afii10097" unicode="&#x44f;" horiz-adv-x="1153" 
d="M72 653q0 94 45 180.5t129 152t204.5 104t274.5 38.5q74 0 139.5 -5t114.5 -14t77.5 -23.5t28.5 -30.5q0 -14 -1 -44t-3 -67t-3 -76t-1 -69q-6 -219 -9 -375t-8 -256t-14.5 -147.5t-25.5 -49.5q-39 -4 -92 -4h-148q-35 0 -69.5 1t-62 4t-45 9.5t-17.5 16.5v108
q-102 -88 -160 -192q-10 -16 -27 -16q-2 0 -47 12t-99 28.5t-98 36t-44 31.5q0 8 6 19q45 72 93 131t93 106q-109 41 -170 139t-61 252zM408 471q0 -72 48 -116t130 -50v266q-18 6 -43 7q-53 0 -94 -27t-41 -80z" />
    <glyph glyph-name="uni0450" unicode="&#x450;" horiz-adv-x="935" 
d="M70 1018q0 18 22.5 31.5t83 23.5t163.5 15.5t267 5.5h230q30 0 30 -31q0 -90 -7 -176t-17.5 -153.5t-21.5 -108.5t-21 -41t-27.5 1t-46.5 3t-70 3t-100 1q-2 -16 -2 -43v-43q59 2 97 4t62.5 4t40 3t33.5 1q43 0 43 -43q-4 -31 -16 -72t-22 -57q-20 -27 -160 -27h-84
q-2 -18 -3 -42.5t-1 -47.5q29 -4 55 -4h51q33 0 64.5 3t70.5 3q20 0 25.5 -12t5.5 -29q0 -57 -2 -99t-8 -83q-2 -8 -17.5 -16t-54.5 -14.5t-105.5 -9.5t-170.5 -3q-96 0 -156.5 1t-95.5 6t-50.5 17.5t-17.5 35.5q-8 59 -16 152t-16.5 198.5t-14.5 214t-10 199t-7 153
t-3 76.5zM170 1303q0 104 6 158.5t43 54.5q20 0 33.5 -8.5t56.5 -28.5q76 -35 152.5 -66t148.5 -53q31 -10 31 -35q0 -27 -2 -54.5t-8.5 -50t-15.5 -37t-21 -14.5q-18 0 -39 5q-98 16 -187.5 39.5t-173.5 60.5q-10 4 -17 11t-7 18z" />
    <glyph glyph-name="afii10071" unicode="&#x451;" horiz-adv-x="935" 
d="M70 1018q0 18 22.5 31.5t83 23.5t163.5 15.5t267 5.5h230q30 0 30 -31q0 -90 -7 -176t-17.5 -153.5t-21.5 -108.5t-21 -41t-27.5 1t-46.5 3t-70 3t-100 1q-2 -16 -2 -43v-43q59 2 97 4t62.5 4t40 3t33.5 1q43 0 43 -43q-4 -31 -16 -72t-22 -57q-20 -27 -160 -27h-84
q-2 -18 -3 -42.5t-1 -47.5q29 -4 55 -4h51q33 0 64.5 3t70.5 3q20 0 25.5 -12t5.5 -29q0 -57 -2 -99t-8 -83q-2 -8 -17.5 -16t-54.5 -14.5t-105.5 -9.5t-170.5 -3q-96 0 -156.5 1t-95.5 6t-50.5 17.5t-17.5 35.5q-8 59 -16 152t-16.5 198.5t-14.5 214t-10 199t-7 153
t-3 76.5zM105 1497q0 29 30.5 35t100.5 6q55 0 87 -1t48 -8t20 -22.5t4 -46.5q0 -53 -3 -113.5t-9 -95.5q-4 -18 -22.5 -23t-73.5 -5q-31 0 -62.5 1t-58.5 6t-43 12t-16 20q0 33 2 66.5t2 68.5q0 25 -3 50t-3 50zM539 1497q0 29 29.5 35t99.5 6q55 0 88 -1t49 -8t20.5 -22.5
t4.5 -46.5q0 -53 -3 -113.5t-10 -95.5q-4 -18 -23.5 -23t-72.5 -5q-31 0 -63.5 1t-58 6t-42 12t-16.5 20q0 33 2 66.5t2 68.5q0 25 -3 50t-3 50z" />
    <glyph glyph-name="afii10099" unicode="&#x452;" horiz-adv-x="1122" 
d="M29 883q0 57 1 107t5 108q0 14 14 14q35 2 63.5 3t56.5 1h57h65q141 0 285.5 -4t283.5 -10q14 0 14 -17q4 -55 5.5 -102t1.5 -102q0 -63 -2 -127t-5 -127q0 -16 -14 -17h-223l-8 -127q45 6 108 6q82 0 147.5 -10t109.5 -40.5t67.5 -86t23.5 -145.5q0 -76 -25.5 -127
t-67.5 -83t-94 -46t-105 -14q-63 0 -112.5 20t-49.5 47q-4 55 -4 90v43q0 29 12 29q10 0 15.5 -7t23.5 -7q12 0 20.5 21.5t8.5 80.5q0 41 -18.5 55.5t-37.5 14.5q-16 0 -25.5 -7.5t-11.5 -17.5q-10 -68 -15 -152t-15 -159q-4 -16 -35 -20.5t-86 -4.5q-59 0 -106.5 3t-88.5 5
q-8 2 -12 9.5t-4 31.5q-6 160 -16.5 311.5t-24.5 288.5q-27 2 -45.5 3t-35.5 1h-36h-45q-14 0 -14 15q-6 125 -6 252z" />
    <glyph glyph-name="afii10100" unicode="&#x453;" horiz-adv-x="827" 
d="M47 735q0 98 4 185.5t15 150.5q0 6 43 13.5t103 11.5t124.5 7t109.5 3q174 0 257 -11.5t85 -21.5q2 -23 5.5 -83t4.5 -127.5t3 -130t2 -91.5q0 -14 -15 -14q-23 0 -74.5 4t-162.5 4q-6 -190 -6 -369q0 -141 6 -282q0 -12 -14 -13q-37 0 -106 1t-138.5 4.5t-124.5 8.5
t-64 15q-10 12 -20 83t-18.5 175t-13.5 230t-5 247zM250 1325q0 23 32 35q72 23 149 53.5t153 65.5q20 10 33.5 17t22.5 11t16 6.5t18 2.5q35 0 41 -54.5t6 -158.5q0 -20 -23 -29q-86 -37 -174 -60.5t-186 -39.5q-10 -2 -21.5 -3.5t-19.5 -1.5q-12 0 -21.5 14.5t-15.5 37
t-8 50t-2 54.5z" />
    <glyph glyph-name="afii10101" unicode="&#x454;" horiz-adv-x="987" 
d="M57 551q0 121 42 226.5t119 184t183.5 125t235.5 46.5q55 0 95 -2.5t68.5 -6.5t49 -10t39.5 -12q12 -4 21.5 -46t15.5 -104.5t9 -141.5t3 -157q0 -12 -16 -12q-12 0 -42 7t-96 7q-94 0 -154.5 -44t-82.5 -115q33 0 70.5 2t72.5 4t64.5 4t46.5 2q29 0 38 -6t9 -17
q-6 -37 -15.5 -70.5t-21.5 -70.5q-6 -18 -149 -18h-109q25 -63 81 -106.5t140 -43.5q57 0 77.5 10.5t33.5 10.5q20 0 20 -29q0 -8 -1 -44t-7 -91q0 -14 -20.5 -26.5t-54.5 -22t-78 -15.5t-89 -6q-113 0 -220 32t-191 102.5t-135.5 182t-51.5 271.5z" />
    <glyph glyph-name="afii10102" unicode="&#x455;" horiz-adv-x="839" 
d="M63 748q0 82 30 154.5t94.5 125.5t169 84t255.5 31q41 0 69 -6t32 -29q12 -49 21 -105.5t15.5 -111.5t10.5 -103.5t4 -82.5q0 -29 -29 -29q-16 0 -24.5 1t-16.5 1q-55 0 -78.5 -21.5t-23.5 -52.5q0 -29 24 -61q43 -61 73 -122t30 -126q0 -86 -34 -148.5t-95.5 -102.5
t-146.5 -58.5t-185 -18.5q-35 0 -52.5 6.5t-21.5 28.5q-8 29 -14 66.5t-6 76.5q0 33 29 33q6 0 20 -1t31 -1q16 0 35.5 2t37 10.5t29.5 21.5t12 38q0 33 -21.5 59.5t-76.5 69.5q-98 78 -147.5 166t-49.5 205z" />
    <glyph glyph-name="afii10103" unicode="&#x456;" horiz-adv-x="677" 
d="M80 1047q0 16 7 28t42 17q23 4 68 6t90 2q72 0 140.5 -3t129.5 -10q23 -4 31 -11t8 -27q0 -8 -5 -172t-13 -498q-4 -119 -5.5 -216t-1.5 -151q0 -29 -16 -37t-29 -8q-29 -2 -65 -2h-62q-59 0 -122.5 3t-110.5 7q-23 2 -34 15.5t-15 48.5q-16 227 -26.5 484t-10.5 524z
" />
    <glyph glyph-name="afii10104" unicode="&#x457;" horiz-adv-x="753" 
d="M13 1497q0 29 30.5 35t100.5 6q55 0 87 -1t48 -8t20 -22.5t4 -46.5q0 -53 -3 -113.5t-9 -95.5q-4 -18 -22.5 -23t-73.5 -5q-31 0 -62.5 1t-58.5 6t-43 12t-16 20q0 33 2 66.5t2 68.5q0 25 -3 50t-3 50zM113 1047q0 16 7 28t42 17q23 4 68 6t90 2q72 0 140.5 -3t129.5 -10
q23 -4 31 -11t8 -27q0 -8 -5 -172t-13 -498q-4 -119 -5.5 -216t-1.5 -151q0 -29 -16 -37t-29 -8q-29 -2 -65 -2h-62q-59 0 -122.5 3t-110.5 7q-23 2 -34 15.5t-15 48.5q-16 227 -26.5 484t-10.5 524zM447 1497q0 29 29.5 35t99.5 6q55 0 88 -1t49 -8t20.5 -22.5t4.5 -46.5
q0 -53 -3 -113.5t-10 -95.5q-4 -18 -23.5 -23t-72.5 -5q-31 0 -63.5 1t-58 6t-42 12t-16.5 20q0 33 2 66.5t2 68.5q0 25 -3 50t-3 50z" />
    <glyph glyph-name="afii10105" unicode="&#x458;" horiz-adv-x="931" 
d="M8 117q0 8 19.5 32.5t46 51t52.5 46t38 19.5q8 0 15 -2t11 -12q29 -63 78 -64q43 0 71 55.5t28 164.5q0 125 -3.5 215t-6.5 161.5t-5 132t-2 125.5q0 25 8.5 38.5t38.5 13.5q145 0 236.5 -2t141.5 -8.5t68.5 -14.5t18.5 -20q0 -197 -7 -346.5t-20.5 -259t-32 -181.5
t-38.5 -112q-59 -106 -160.5 -161t-230.5 -55q-139 0 -222 33t-128 103q-10 16 -12.5 26t-2.5 21z" />
    <glyph glyph-name="afii10106" unicode="&#x459;" horiz-adv-x="1724" 
d="M6 -10q-2 16 7.5 39.5t21.5 54.5q14 41 23.5 59.5t35.5 18.5q6 0 17.5 -4t21.5 -4q39 0 63.5 69.5t24.5 179.5q0 129 -2 224.5t-5 169t-5 135t-2 127.5q0 16 5 25.5t21 9.5q102 0 220 2q98 2 226 3t265 1q14 0 58.5 -2t90.5 -7.5t82.5 -15.5t36.5 -28l5 -127
q248 0 354 -111.5t106 -351.5q0 -123 -49 -215t-135 -153.5t-201.5 -93.5t-247.5 -32q-53 0 -110 3t-98 7q-39 4 -47.5 19.5t-8.5 56.5q0 45 -1 110.5t-1 142.5t-1 161t-1 166q-18 2 -36.5 3t-37.5 1q-16 0 -34.5 -1t-36.5 -3q-10 -186 -29.5 -308t-46.5 -176
q-53 -106 -142 -159.5t-200 -53.5q-106 0 -156.5 21.5t-50.5 36.5zM1225 223q10 -4 20 -5t21 -1q43 0 80.5 27.5t37.5 93.5t-43 108.5t-116 42.5v-266z" />
    <glyph glyph-name="afii10107" unicode="&#x45a;" horiz-adv-x="1652" 
d="M72 1071q0 12 19.5 18.5t48 9.5t58.5 3h52h38q25 0 53 -1t53 -1h40q41 0 65.5 1t45.5 3q16 0 16 -14q0 -66 -1 -145t-4 -162t-7 -165.5t-10 -154.5q33 33 51 45t26 12q6 0 16.5 -16.5t33.5 -61.5v648q0 10 20.5 16t48 9t57.5 3h48q86 0 144 -4t93 -11t49.5 -17.5
t14.5 -20.5v-131q96 -8 181 -35t149.5 -77t102.5 -127t38 -183q0 -119 -40 -218t-115 -172t-181.5 -113t-239.5 -40q-78 0 -159.5 6.5t-149.5 12.5q-49 4 -53 57q-4 104 -6 161.5t-2 69.5q-53 -57 -69.5 -70t-18.5 -13q-4 0 -11.5 11t-14.5 26.5t-13.5 28.5t-8.5 20
q-2 -70 -5 -128.5t-13 -136.5q-4 -14 -31.5 -16t-62.5 -2q-111 0 -173.5 1t-93 3t-38 6t-7.5 10l-24 633q-6 158 -8 259.5t-2 162.5zM1104 209q23 -2 46 -2h32q45 0 85 28t40 89q0 57 -48.5 96t-136.5 49q-4 -63 -8 -126.5t-10 -133.5z" />
    <glyph glyph-name="afii10108" unicode="&#x45b;" horiz-adv-x="1122" 
d="M29 883q0 57 1 107t5 108q0 14 14 14q35 2 63.5 3t56.5 1h57h65q141 0 285.5 -4t283.5 -10q14 -1 14 -17q4 -55 5.5 -102t1.5 -102q0 -63 -2 -127t-5 -127q0 -16 -14 -17h-223l-8 -127q45 6 108 6q174 0 251 -48t77 -146q0 -76 2 -156t2 -125q0 -16 -7 -23t-30 -9
q-59 -6 -96 -7.5t-80 -1.5h-59q-14 0 -33 1t-34 5.5t-26.5 11.5t-11.5 17q0 78 2 144.5t2 146.5q0 8 -13 16.5t-32 8.5q-16 0 -25.5 -7.5t-11.5 -17.5q-10 -68 -15 -152t-15 -159q-4 -16 -35 -20.5t-86 -4.5q-59 0 -106.5 3t-88.5 5q-8 2 -12 9.5t-4 31.5
q-6 160 -16.5 311.5t-24.5 288.5q-27 2 -45.5 3t-35.5 1h-36h-45q-14 0 -14 15q-6 125 -6 252z" />
    <glyph glyph-name="afii10109" unicode="&#x45c;" horiz-adv-x="1101" 
d="M51 1077q0 10 23.5 16.5t76 9.5t137.5 3h208q14 0 14 -14q0 -16 -1 -33t-1 -31q0 -104 4 -208.5t12 -203.5q47 111 95.5 231t89.5 249q0 10 14 10q31 0 93.5 -4t125 -10.5t108.5 -14.5t46 -16q0 -11 -6 -31q-27 -78 -53.5 -143.5t-57.5 -123.5t-66.5 -113.5t-81.5 -112.5
q68 -127 126.5 -260.5t103.5 -284.5q0 -18 -44 -29.5t-104.5 -18.5t-124 -9.5t-104.5 -2.5q-8 0 -14 9q-27 96 -63 192t-79 184q-2 -33 -2 -62v-62q0 -49 2 -97.5t2 -97.5q0 -10 -7 -15.5t-27.5 -8.5t-59.5 -4t-102 -1q-66 0 -113 -1t-80 3q-12 0 -20 11.5t-13.5 43t-8.5 89
t-9 151.5q-16 281 -27.5 475.5t-11.5 335.5zM375 1325q0 23 32 35q72 23 149 53.5t153 65.5q20 10 33.5 17t22.5 11t16 6.5t18 2.5q35 0 41 -54.5t6 -158.5q0 -20 -23 -29q-86 -37 -174 -60.5t-186 -39.5q-10 -2 -21.5 -3.5t-19.5 -1.5q-12 0 -21.5 14.5t-15.5 37t-8 50
t-2 54.5z" />
    <glyph glyph-name="uni045D" unicode="&#x45d;" horiz-adv-x="1015" 
d="M72 422q0 111 2 210t2 197v122q0 46 1 72t2 37t3 19q2 6 6 9.5t19.5 5.5t44 3t81.5 1q68 0 84.5 -1t22.5 -5t8 -14.5t2 -33.5q0 -82 -2 -167.5t-2 -167.5q25 43 55.5 91t65.5 96t73 94t78 85q12 14 31 19.5t60 5.5q25 0 68.5 -1t111.5 -5q33 -2 44 -11.5t11 -38.5
q0 -133 -1 -284.5t-2 -289.5t-2 -246.5t-1 -153.5q0 -29 -1 -55.5t-11 -34.5q-10 -12 -35 -15.5t-100 -3.5q-41 0 -63.5 2t-34 8t-14.5 16.5t-3 26.5q0 61 4 132t8 192q-59 -74 -118.5 -155t-100.5 -146q-18 -29 -31.5 -44.5t-36 -23.5t-60.5 -9t-101 -1q-47 0 -74 1t-42 3
t-20.5 4t-9.5 4q-8 6 -10 18.5t-6 49.5q-4 25 -5 124t-1 259zM289 1260q0 104 6 158.5t43 54.5q20 0 33.5 -8.5t56.5 -28.5q76 -35 152.5 -66t148.5 -53q31 -10 31 -35q0 -27 -2 -54.5t-8.5 -50t-15.5 -37t-21 -14.5q-18 0 -39 5q-98 16 -187.5 39.5t-173.5 60.5
q-10 4 -17 11t-7 18z" />
    <glyph glyph-name="afii10110" unicode="&#x45e;" horiz-adv-x="1013" 
d="M12 1044q0 23 8.5 30t28.5 11q25 2 67 5.5t91 6.5t99 5t91 2q16 0 31.5 -5t20.5 -22q16 -63 36.5 -118.5t42.5 -108.5q27 55 46.5 107.5t41.5 115.5q4 16 25 24.5t86 8.5q20 0 51 -2t65 -5t64.5 -7.5t48.5 -8.5q29 -8 29 -36q0 -8 -5 -21.5t-11 -30.5
q-59 -129 -122 -245.5t-128 -229.5q4 -59 5 -123.5t1 -124.5q0 -68 -1 -135t-5 -133q-2 -27 -31 -31q-92 -6 -190 -6q-49 0 -100.5 1t-92.5 5q-12 2 -18 6.5t-6 26.5q2 66 3 132.5t1 131.5v126q0 65 -4 126q-72 115 -139.5 235t-118.5 242q-4 10 -7.5 20.5t-3.5 24.5z
M211 1487q0 14 19.5 24.5t48 14.5t60 6t54.5 2q10 0 20.5 -9t12.5 -22q4 -41 21.5 -77.5t58.5 -36.5t58 28.5t21 71.5q2 10 12.5 17.5t20.5 11.5q31 6 60.5 10t64.5 4q16 0 38 -4t22 -27q0 -74 -26 -131t-67 -96t-95 -58.5t-109 -19.5t-108.5 17.5t-94.5 53.5t-66.5 91
t-25.5 129z" />
    <glyph glyph-name="afii10193" unicode="&#x45f;" horiz-adv-x="1200" 
d="M94 512v77q0 54 1 119.5t3 136t6.5 129t11.5 96.5t19 38q33 0 81 -1t102.5 -2t107.5 -4t94 -5q14 0 15 -15q0 2 1 -37.5t3 -107.5t5 -158t5 -191.5t3 -207t1 -201.5h59q29 0 56 2q2 74 5 190.5t7 244.5t10 250t15 206q4 14 32.5 17.5t61.5 3.5q111 0 175 -1t98 -3.5
t43 -7.5t9 -11q2 -180 3 -318.5t1 -244.5q0 -131 -1 -216t-3 -138.5t-3 -84t-1 -53.5q0 -12 -24.5 -20t-65.5 -13.5t-94 -8.5t-109 -5q-4 -90 -4 -156v-110q0 -20 -9 -23.5t-19 -3.5q-35 -2 -66 -2h-65q-59 0 -125 3t-113 8q-16 2 -24.5 12t-10.5 39l-16 233q-53 2 -101.5 4
t-84 5.5t-57 8.5t-21.5 11q-12 178 -14.5 301t-2.5 215z" />
    </font>
</defs>
</svg>
