<svg xmlns="http://www.w3.org/2000/svg" width="124" height="135"><defs><filter filterUnits="userSpaceOnUse" id="a" x="0" y="0" width="124" height="135"><feOffset in="SourceAlpha" dy="5"/><feGaussianBlur result="blurOut" stdDeviation="2.236"/><feFlood flood-color="#000" result="floodOut"/><feComposite operator="atop" in="floodOut" in2="blurOut"/><feComponentTransfer><feFuncA type="linear" slope=".19"/></feComponentTransfer><feMerge><feMergeNode/><feMergeNode in="SourceGraphic"/></feMerge></filter></defs><path fill-rule="evenodd" fill="#FFF" d="M75.838 4.991c11.531 5.901 19.841 10.546 30.618 16.531 10.43 5.195 12.551 11.569 12.527 24.682.001 11.887.036 21.074 0 34.459.044 13.371-2.616 15.57-13.216 22.493-9.908 5.765-18.666 10.805-29.929 17.13-9.881 6.41-18.219 6.148-27.234 0-11.011-5.974-18.962-10.548-29.929-17.13C8.08 96.687 4.219 91.745 4.033 79.073c.03-12.09-.098-20.749 0-32.869-.037-12.425 4.212-19.034 14.642-24.082 11.196-7.044 18.918-11.478 29.929-17.131 12.113-6.642 15.189-6.692 27.234 0z" filter="url(#a)"/></svg>